EvangelionCPA-Regular.ufo
<glyph name="ETX" format="2">
  <advance width="746"/>
  <unicode hex="0003"/>
  <outline>
    <contour>
      <point x="111" y="0" type="line"/>
      <point x="111" y="597" type="line"/>
      <point x="635" y="597" type="line"/>
      <point x="635" y="0" type="line"/>
    </contour>
    <contour>
      <point x="598" y="37" type="line"/>
      <point x="598" y="561" type="line"/>
      <point x="148" y="561" type="line"/>
      <point x="148" y="37" type="line"/>
    </contour>
  </outline>
</glyph>
<glyph name="exclam" format="2">
  <advance width="228"/>
  <unicode hex="0021"/>
  <outline>
    <contour>
      <point x="120" y="190" type="line"/>
      <point x="127" y="261" type="line" smooth="yes"/>
      <point x="127" y="283"/>
      <point x="126" y="305" type="qcurve" smooth="yes"/>
      <point x="124" y="327"/>
      <point x="124" y="350" type="qcurve" smooth="yes"/>
      <point x="124" y="370"/>
      <point x="121" y="405"/>
      <point x="116" y="421" type="qcurve"/>
      <point x="174" y="464" type="line"/>
      <point x="176" y="458"/>
      <point x="181" y="438"/>
      <point x="181" y="431" type="qcurve" smooth="yes"/>
      <point x="181" y="414" type="line" smooth="yes"/>
      <point x="181" y="371"/>
      <point x="179" y="328"/>
      <point x="173" y="298" type="qcurve" smooth="yes"/>
      <point x="159" y="213" type="line"/>
    </contour>
    <contour>
      <point x="135" y="40" type="line"/>
      <point x="94" y="91" type="line"/>
      <point x="140" y="144" type="line"/>
      <point x="183" y="91" type="line"/>
    </contour>
  </outline>
</glyph>
<glyph name="quotedbl" format="2">
  <advance width="326"/>
  <unicode hex="0022"/>
  <outline>
    <contour>
      <point x="264" y="574" type="line"/>
      <point x="276" y="567"/>
      <point x="291" y="551"/>
      <point x="291" y="515" type="curve" smooth="yes"/>
      <point x="291" y="463"/>
      <point x="250" y="394"/>
      <point x="192" y="313" type="curve"/>
      <point x="177" y="327" type="line"/>
      <point x="207" y="390"/>
      <point x="208" y="392"/>
      <point x="213" y="414" type="curve" smooth="yes"/>
      <point x="217" y="436" type="line" smooth="yes"/>
      <point x="221" y="456"/>
      <point x="222" y="466"/>
      <point x="222" y="475" type="curve" smooth="yes"/>
      <point x="222" y="492"/>
      <point x="218" y="505"/>
      <point x="211" y="514" type="curve"/>
    </contour>
    <contour>
      <point x="129" y="576" type="line"/>
      <point x="147" y="563"/>
      <point x="156" y="536"/>
      <point x="156" y="511" type="curve" smooth="yes"/>
      <point x="156" y="505"/>
      <point x="155" y="498"/>
      <point x="154" y="491" type="curve" smooth="yes"/>
      <point x="148" y="469" type="line"/>
      <point x="128" y="416"/>
      <point x="107" y="387"/>
      <point x="54" y="313" type="curve" smooth="yes"/>
      <point x="54" y="312"/>
      <point x="50" y="317"/>
      <point x="41" y="326" type="curve"/>
      <point x="75" y="391"/>
      <point x="79" y="407"/>
      <point x="81" y="418" type="curve" smooth="yes"/>
      <point x="86" y="442" type="line" smooth="yes"/>
      <point x="87" y="449"/>
      <point x="88" y="455"/>
      <point x="88" y="460" type="curve" smooth="yes"/>
      <point x="88" y="474" type="line" smooth="yes"/>
      <point x="88" y="494"/>
      <point x="86" y="502"/>
      <point x="77" y="514" type="curve"/>
    </contour>
  </outline>
</glyph>
<glyph name="numbersign" format="2">
  <advance width="403"/>
  <unicode hex="0023"/>
  <outline>
    <contour>
      <point x="241" y="0" type="line"/>
      <point x="207" y="0" type="line"/>
      <point x="208" y="0"/>
      <point x="216" y="41"/>
      <point x="232" y="124" type="curve"/>
      <point x="152" y="124" type="line"/>
      <point x="129" y="0" type="line"/>
      <point x="95" y="0" type="line"/>
      <point x="118" y="124" type="line"/>
      <point x="57" y="124" type="line"/>
      <point x="57" y="156" type="line"/>
      <point x="124" y="156" type="line"/>
      <point x="140" y="232" type="line"/>
      <point x="78" y="232" type="line"/>
      <point x="78" y="265" type="line"/>
      <point x="147" y="265" type="line"/>
      <point x="168" y="380" type="line"/>
      <point x="202" y="380" type="line"/>
      <point x="180" y="265" type="line"/>
      <point x="256" y="265" type="line"/>
      <point x="279" y="380" type="line"/>
      <point x="312" y="380" type="line"/>
      <point x="291" y="265" type="line"/>
      <point x="347" y="265" type="line"/>
      <point x="347" y="232" type="line"/>
      <point x="285" y="232" type="line"/>
      <point x="270" y="156" type="line"/>
      <point x="328" y="156" type="line"/>
      <point x="328" y="124" type="line"/>
      <point x="264" y="124" type="line"/>
    </contour>
    <contour>
      <point x="159" y="156" type="line"/>
      <point x="237" y="156" type="line" smooth="yes"/>
      <point x="238" y="156"/>
      <point x="243" y="181"/>
      <point x="252" y="232" type="curve"/>
      <point x="173" y="232" type="line"/>
    </contour>
  </outline>
</glyph>
<glyph name="dollar" format="2">
  <advance width="415"/>
  <unicode hex="0024"/>
  <outline>
    <contour>
      <point x="215" y="-1" type="line"/>
      <point x="214.333" y="-1"/>
      <point x="214.667" y="15"/>
      <point x="216" y="47" type="curve"/>
      <point x="187.333" y="50.3333"/>
      <point x="166" y="53.3333"/>
      <point x="152" y="56" type="curve" smooth="yes"/>
      <point x="129.333" y="61.3333"/>
      <point x="110.333" y="69"/>
      <point x="95" y="79" type="curve"/>
      <point x="94.3333" y="79"/>
      <point x="108" y="96.3333"/>
      <point x="136" y="131" type="curve"/>
      <point x="144" y="126.333"/>
      <point x="152" y="122.333"/>
      <point x="160" y="119" type="curve" smooth="yes"/>
      <point x="176.667" y="112.333"/>
      <point x="192.667" y="108.667"/>
      <point x="208" y="108" type="curve" smooth="yes"/>
      <point x="219" y="109" type="line"/>
      <point x="219" y="109.667"/>
      <point x="220.333" y="148"/>
      <point x="223" y="224" type="curve"/>
      <point x="213" y="228.667"/>
      <point x="205.333" y="232.333"/>
      <point x="200" y="235" type="curve" smooth="yes"/>
      <point x="192.667" y="239"/>
      <point x="186.167" y="243.167"/>
      <point x="180.5" y="247.5" type="curve" smooth="yes"/>
      <point x="174.833" y="251.833"/>
      <point x="171" y="254.667"/>
      <point x="169" y="256" type="curve" smooth="yes"/>
      <point x="163.667" y="260"/>
      <point x="160.333" y="262.667"/>
      <point x="159" y="264" type="curve" smooth="yes"/>
      <point x="147" y="273.333"/>
      <point x="137.167" y="283.833"/>
      <point x="129.5" y="295.5" type="curve" smooth="yes"/>
      <point x="121.833" y="307.167"/>
      <point x="118" y="320"/>
      <point x="118" y="334" type="curve" smooth="yes"/>
      <point x="118" y="336.667"/>
      <point x="118.667" y="341.333"/>
      <point x="120" y="348" type="curve" smooth="yes"/>
      <point x="119" y="353" type="line"/>
      <point x="121" y="362.333"/>
      <point x="125.333" y="372.667"/>
      <point x="132" y="384" type="curve" smooth="yes"/>
      <point x="141.333" y="400"/>
      <point x="155.667" y="413.333"/>
      <point x="175" y="424" type="curve" smooth="yes"/>
      <point x="191" y="433.333"/>
      <point x="209.333" y="440"/>
      <point x="230" y="444" type="curve"/>
      <point x="232" y="498" type="line"/>
      <point x="264" y="508" type="line"/>
      <point x="262" y="447" type="line"/>
      <point x="303.333" y="447"/>
      <point x="340.667" y="440.667"/>
      <point x="374" y="428" type="curve"/>
      <point x="340" y="374" type="line"/>
      <point x="327.333" y="380"/>
      <point x="314.167" y="384.833"/>
      <point x="300.5" y="388.5" type="curve" smooth="yes"/>
      <point x="286.833" y="392.167"/>
      <point x="273" y="394"/>
      <point x="259" y="394" type="curve"/>
      <point x="256" y="286" type="line"/>
      <point x="260.667" y="284"/>
      <point x="267.333" y="280.667"/>
      <point x="276" y="276" type="curve" smooth="yes"/>
      <point x="294" y="266"/>
      <point x="294" y="266"/>
      <point x="312" y="256" type="curve" smooth="yes"/>
      <point x="324" y="248"/>
      <point x="324" y="248"/>
      <point x="336" y="240" type="curve" smooth="yes"/>
      <point x="342.667" y="234.667"/>
      <point x="348.833" y="228.333"/>
      <point x="354.5" y="221" type="curve" smooth="yes"/>
      <point x="360.167" y="213.667"/>
      <point x="364.5" y="206.833"/>
      <point x="367.5" y="200.5" type="curve" smooth="yes"/>
      <point x="370.5" y="194.167"/>
      <point x="372" y="187"/>
      <point x="372" y="179" type="curve" smooth="yes"/>
      <point x="372" y="174"/>
      <point x="372" y="174"/>
      <point x="372" y="172" type="curve" smooth="yes"/>
      <point x="369.333" y="158.667"/>
      <point x="366.667" y="148.5"/>
      <point x="364" y="141.5" type="curve" smooth="yes"/>
      <point x="361.333" y="134.5"/>
      <point x="358" y="127.667"/>
      <point x="354" y="121" type="curve" smooth="yes"/>
      <point x="343.333" y="103.667"/>
      <point x="328.333" y="88.8333"/>
      <point x="309" y="76.5" type="curve" smooth="yes"/>
      <point x="289.667" y="64.1667"/>
      <point x="269.333" y="55.3333"/>
      <point x="248" y="50" type="curve"/>
      <point x="246" y="12" type="line"/>
    </contour>
    <contour>
      <point x="249" y="105" type="line"/>
      <point x="258.333" y="105"/>
      <point x="269" y="106.333"/>
      <point x="281" y="109" type="curve" smooth="yes"/>
      <point x="294.333" y="113"/>
      <point x="304" y="117.167"/>
      <point x="310" y="121.5" type="curve" smooth="yes"/>
      <point x="315.333" y="125.833"/>
      <point x="318.667" y="130.667"/>
      <point x="320" y="136" type="curve" smooth="yes"/>
      <point x="321.333" y="144.667"/>
      <point x="321.333" y="150.667"/>
      <point x="320" y="154" type="curve" smooth="yes"/>
      <point x="316" y="167.333"/>
      <point x="304" y="179.667"/>
      <point x="284" y="191" type="curve" smooth="yes"/>
      <point x="274" y="197"/>
      <point x="264" y="202.667"/>
      <point x="254" y="208" type="curve"/>
    </contour>
    <contour>
      <point x="225" y="304" type="curve"/>
      <point x="229" y="394" type="line"/>
      <point x="228" y="394"/>
      <point x="228" y="394"/>
      <point x="216" y="394" type="curve"/>
      <point x="199.333" y="391.333"/>
      <point x="189" y="389.333"/>
      <point x="185" y="388" type="curve" smooth="yes"/>
      <point x="173" y="384"/>
      <point x="166.333" y="377.333"/>
      <point x="165" y="368" type="curve" smooth="yes"/>
      <point x="164.333" y="364"/>
      <point x="164" y="361.333"/>
      <point x="164" y="360" type="curve" smooth="yes"/>
      <point x="164" y="357.333"/>
      <point x="164.667" y="354.667"/>
      <point x="166" y="352" type="curve" smooth="yes"/>
      <point x="170" y="341.333"/>
      <point x="178.333" y="332"/>
      <point x="191" y="324" type="curve" smooth="yes"/>
      <point x="192.333" y="322.667"/>
      <point x="203.667" y="316"/>
    </contour>
  </outline>
</glyph>
<glyph name="percent" format="2">
  <advance width="602"/>
  <unicode hex="0025"/>
  <outline>
    <contour>
      <point x="322" y="356" type="curve" smooth="yes"/>
      <point x="322" y="356"/>
      <point x="378" y="356"/>
      <point x="406" y="397" type="curve"/>
      <point x="406" y="396"/>
      <point x="415" y="396"/>
      <point x="435" y="396" type="curve"/>
      <point x="198" y="0" type="line"/>
      <point x="170" y="0" type="line"/>
      <point x="385" y="360.125" type="line"/>
      <point x="361" y="349.125"/>
      <point x="338" y="344"/>
      <point x="314" y="344" type="curve" smooth="yes"/>
      <point x="304" y="344"/>
      <point x="294" y="345"/>
      <point x="283" y="348" type="curve"/>
      <point x="284" y="341"/>
      <point x="285" y="334"/>
      <point x="286" y="325" type="curve" smooth="yes"/>
      <point x="286" y="316"/>
      <point x="284" y="304"/>
      <point x="282" y="291" type="curve" smooth="yes"/>
      <point x="279" y="277" type="line" smooth="yes"/>
      <point x="278" y="276"/>
      <point x="240" y="175"/>
      <point x="163" y="175" type="curve"/>
      <point x="163" y="170"/>
      <point x="95" y="182"/>
      <point x="95" y="236" type="curve" smooth="yes"/>
      <point x="95" y="239"/>
      <point x="95" y="243"/>
      <point x="96" y="248" type="curve" smooth="yes"/>
      <point x="101" y="275" type="line"/>
      <point x="112" y="328"/>
      <point x="167" y="389"/>
      <point x="227" y="389" type="curve" smooth="yes"/>
      <point x="267" y="389"/>
      <point x="269" y="369"/>
      <point x="283" y="364" type="curve" smooth="yes"/>
      <point x="296" y="359"/>
      <point x="309" y="356"/>
    </contour>
    <contour>
      <point x="185" y="196" type="line"/>
      <point x="220" y="203"/>
      <point x="273" y="257"/>
      <point x="273" y="327" type="curve" smooth="yes"/>
      <point x="273" y="334"/>
      <point x="271" y="343"/>
      <point x="269" y="352" type="curve"/>
      <point x="260" y="355"/>
      <point x="240" y="368"/>
      <point x="231" y="373" type="curve" smooth="yes"/>
      <point x="229" y="373"/>
      <point x="166" y="362"/>
      <point x="140" y="242" type="curve" smooth="yes"/>
      <point x="139" y="240"/>
      <point x="139" y="237"/>
      <point x="139" y="232" type="curve" smooth="yes"/>
      <point x="139" y="214"/>
      <point x="149" y="196"/>
      <point x="168" y="196" type="curve" smooth="yes"/>
    </contour>
    <contour>
      <point x="455" y="213" type="curve" smooth="yes"/>
      <point x="486" y="213"/>
      <point x="507" y="186"/>
      <point x="507" y="158" type="curve" smooth="yes"/>
      <point x="507" y="153"/>
      <point x="507" y="150"/>
      <point x="507" y="148" type="curve" smooth="yes"/>
      <point x="504" y="133" type="line"/>
      <point x="500" y="109" type="line"/>
      <point x="485" y="55"/>
      <point x="438" y="0"/>
      <point x="387" y="0" type="curve" smooth="yes"/>
      <point x="348" y="0"/>
      <point x="315" y="27"/>
      <point x="315" y="66" type="curve" smooth="yes"/>
      <point x="315" y="69"/>
      <point x="315" y="74"/>
      <point x="316" y="79" type="curve" smooth="yes"/>
      <point x="320" y="100" type="line"/>
      <point x="335" y="166"/>
      <point x="393" y="213"/>
    </contour>
    <contour>
      <point x="394" y="19" type="curve" smooth="yes"/>
      <point x="472" y="19"/>
      <point x="492" y="148"/>
      <point x="491" y="156" type="curve" smooth="yes"/>
      <point x="491" y="174"/>
      <point x="481" y="196"/>
      <point x="453" y="196" type="curve" smooth="yes"/>
      <point x="427" y="196"/>
      <point x="384" y="176"/>
      <point x="360" y="59" type="curve" smooth="yes"/>
      <point x="359.544" y="56.834"/>
      <point x="359.322" y="54.642"/>
      <point x="359.322" y="52.4582" type="curve" smooth="yes"/>
      <point x="359.322" y="35.485"/>
      <point x="372.736" y="19"/>
    </contour>
  </outline>
</glyph>
<glyph name="ampersand" format="2">
  <advance width="701"/>
  <unicode hex="0026"/>
  <outline>
    <contour>
      <point x="363" y="67" type="curve"/>
      <point x="296" y="147"/>
      <point x="249" y="203"/>
      <point x="218" y="270" type="curve"/>
      <point x="174.474" y="233.245"/>
      <point x="159.951" y="156.261"/>
      <point x="159.951" y="141.303" type="curve" smooth="yes"/>
      <point x="159.951" y="140.796"/>
      <point x="159.967" y="140.36"/>
      <point x="160" y="140" type="curve" smooth="yes"/>
      <point x="160" y="110"/>
      <point x="196" y="36"/>
      <point x="264" y="30" type="curve" smooth="yes"/>
      <point x="276" y="30" type="line"/>
      <point x="299" y="30"/>
      <point x="334" y="36"/>
    </contour>
    <contour>
      <point x="296" y="473" type="curve" smooth="yes"/>
      <point x="275" y="473"/>
      <point x="241" y="455"/>
      <point x="241" y="402" type="curve" smooth="yes"/>
      <point x="241" y="380"/>
      <point x="247" y="356"/>
      <point x="255" y="326" type="curve"/>
      <point x="282" y="348" type="line"/>
      <point x="320" y="383"/>
      <point x="320" y="398"/>
      <point x="320" y="440" type="curve" smooth="yes"/>
      <point x="319" y="450"/>
      <point x="316" y="473"/>
    </contour>
    <contour>
      <point x="509" y="-6" type="curve" smooth="yes"/>
      <point x="463" y="-6"/>
      <point x="428" y="17"/>
      <point x="389" y="52" type="curve"/>
      <point x="366" y="36"/>
      <point x="309" y="0"/>
      <point x="238" y="0" type="curve" smooth="yes"/>
      <point x="130" y="0"/>
      <point x="100" y="84"/>
      <point x="100" y="112" type="curve" smooth="yes"/>
      <point x="100" y="126"/>
      <point x="112" y="222"/>
      <point x="210" y="289" type="curve"/>
      <point x="198" y="318"/>
      <point x="192" y="346"/>
      <point x="192" y="373" type="curve" smooth="yes"/>
      <point x="192" y="400"/>
      <point x="201" y="502"/>
      <point x="330" y="502" type="curve" smooth="yes"/>
      <point x="371" y="502"/>
      <point x="372" y="432"/>
      <point x="372" y="431" type="curve" smooth="yes"/>
      <point x="372" y="377"/>
      <point x="325" y="345"/>
      <point x="262" y="302" type="curve"/>
      <point x="276" y="260"/>
      <point x="313" y="177"/>
      <point x="404" y="108" type="curve"/>
      <point x="417" y="124"/>
      <point x="435" y="149"/>
      <point x="439" y="198" type="curve" smooth="yes"/>
      <point x="439" y="203"/>
      <point x="439" y="246"/>
      <point x="405" y="253" type="curve"/>
      <point x="377" y="254" type="line" smooth="yes"/>
      <point x="372" y="254"/>
      <point x="368" y="265"/>
      <point x="368" y="265" type="curve" smooth="yes"/>
      <point x="368" y="271" type="line" smooth="yes"/>
      <point x="369" y="273"/>
      <point x="371" y="278"/>
      <point x="375" y="280" type="curve"/>
      <point x="417" y="278" type="line" smooth="yes"/>
      <point x="427" y="277"/>
      <point x="461" y="275"/>
      <point x="489" y="275" type="curve" smooth="yes"/>
      <point x="556" y="275" type="line" smooth="yes"/>
      <point x="562" y="275"/>
      <point x="562" y="274"/>
      <point x="562" y="261" type="curve"/>
      <point x="561" y="255"/>
      <point x="558" y="246"/>
      <point x="555" y="246" type="curve" smooth="yes"/>
      <point x="534" y="246" type="line" smooth="yes"/>
      <point x="526" y="246"/>
      <point x="515" y="249"/>
      <point x="504" y="249" type="curve" smooth="yes"/>
      <point x="490" y="249"/>
      <point x="475" y="246"/>
      <point x="472" y="202" type="curve" smooth="yes"/>
      <point x="467" y="162"/>
      <point x="464" y="143"/>
      <point x="440" y="108" type="curve" smooth="yes"/>
      <point x="438" y="102"/>
      <point x="438" y="102"/>
      <point x="428" y="88" type="curve"/>
      <point x="465.13" y="58.6865"/>
      <point x="495.578" y="37.9658"/>
      <point x="524.939" y="37.9658" type="curve" smooth="yes"/>
      <point x="525.627" y="37.9658"/>
      <point x="526.314" y="37.9771"/>
      <point x="527" y="38" type="curve" smooth="yes"/>
      <point x="561" y="38"/>
      <point x="568" y="54"/>
      <point x="573" y="66" type="curve"/>
      <point x="584" y="82" type="line"/>
      <point x="587" y="84" type="line"/>
      <point x="596" y="83"/>
      <point x="602" y="82"/>
      <point x="600" y="74" type="curve"/>
      <point x="590" y="49" type="line" smooth="yes"/>
      <point x="577" y="18"/>
      <point x="542" y="-6"/>
    </contour>
  </outline>
</glyph>
<glyph name="quotesingle" format="2">
  <advance width="161"/>
  <unicode hex="0027"/>
  <outline>
    <contour>
      <point x="117" y="361" type="curve"/>
      <point x="117" y="360.333"/>
      <point x="112.667" y="364.667"/>
      <point x="104" y="374" type="curve"/>
      <point x="115" y="396"/>
      <point x="115" y="396"/>
      <point x="127.5" y="421" type="curve" smooth="yes"/>
      <point x="135.833" y="437.667"/>
      <point x="141.333" y="452.667"/>
      <point x="144" y="466" type="curve" smooth="yes"/>
      <point x="147" y="491" type="line" smooth="yes"/>
      <point x="149.667" y="504.333"/>
      <point x="151" y="516.333"/>
      <point x="151" y="527" type="curve" smooth="yes"/>
      <point x="151" y="535.667"/>
      <point x="150.333" y="542.333"/>
      <point x="149" y="547" type="curve" smooth="yes"/>
      <point x="147.667" y="551.667"/>
      <point x="144.667" y="556.667"/>
      <point x="140" y="562" type="curve"/>
      <point x="192" y="624" type="line"/>
      <point x="210" y="609.333"/>
      <point x="219.333" y="588.667"/>
      <point x="220" y="562" type="curve" smooth="yes"/>
      <point x="220" y="554.667"/>
      <point x="219" y="547"/>
      <point x="217" y="539" type="curve" smooth="yes"/>
      <point x="210.333" y="507.667"/>
      <point x="192" y="470"/>
      <point x="162" y="426" type="curve" smooth="yes"/>
      <point x="146.667" y="404.667"/>
      <point x="131.667" y="383"/>
    </contour>
  </outline>
</glyph>
<glyph name="parenleft" format="2">
  <advance width="333"/>
  <unicode hex="0028"/>
  <outline>
    <contour>
      <point x="283" y="-123" type="line"/>
      <point x="185" y="-80"/>
      <point x="67" y="120"/>
      <point x="67" y="241" type="qcurve" smooth="yes"/>
      <point x="67" y="361"/>
      <point x="118" y="453" type="qcurve" smooth="yes"/>
      <point x="173" y="550"/>
      <point x="283" y="603" type="qcurve"/>
      <point x="283" y="587" type="line"/>
      <point x="198" y="529"/>
      <point x="169" y="457" type="qcurve" smooth="yes"/>
      <point x="156" y="422"/>
      <point x="142" y="312"/>
      <point x="142" y="241" type="qcurve" smooth="yes"/>
      <point x="142" y="119"/>
      <point x="212" y="-70"/>
      <point x="283" y="-109" type="qcurve"/>
    </contour>
  </outline>
</glyph>
<glyph name="parenright" format="2">
  <advance width="300"/>
  <unicode hex="0029"/>
  <outline>
    <contour>
      <point x="190" y="241" type="curve" smooth="yes"/>
      <point x="190" y="434"/>
      <point x="157" y="515"/>
      <point x="49" y="587" type="curve"/>
      <point x="49" y="603" type="line"/>
      <point x="151" y="553"/>
      <point x="265" y="451"/>
      <point x="265" y="241" type="curve" smooth="yes"/>
      <point x="265" y="73"/>
      <point x="177" y="-64"/>
      <point x="49" y="-123" type="curve"/>
      <point x="49" y="-109" type="line"/>
      <point x="89" y="-87"/>
      <point x="190" y="-7"/>
    </contour>
  </outline>
</glyph>
<glyph name="asterisk" format="2">
  <advance width="359"/>
  <unicode hex="002A"/>
  <outline>
    <contour>
      <point x="246" y="345" type="qcurve"/>
      <point x="246" y="327"/>
      <point x="251" y="307" type="qcurve" smooth="yes"/>
      <point x="253" y="303"/>
      <point x="264" y="283" type="qcurve" smooth="yes"/>
      <point x="273" y="268"/>
      <point x="270" y="257" type="qcurve" smooth="yes"/>
      <point x="267" y="245"/>
      <point x="248" y="227"/>
      <point x="237" y="227" type="qcurve" smooth="yes"/>
      <point x="223" y="227"/>
      <point x="202" y="244"/>
      <point x="206" y="257" type="qcurve" smooth="yes"/>
      <point x="208" y="268" type="line"/>
      <point x="222" y="303"/>
      <point x="235" y="339" type="qcurve"/>
      <point x="237" y="345" type="line"/>
      <point x="230" y="341"/>
      <point x="217" y="332"/>
      <point x="213" y="327" type="qcurve" smooth="yes"/>
      <point x="195" y="303"/>
      <point x="186" y="292" type="qcurve" smooth="yes"/>
      <point x="170" y="272"/>
      <point x="156" y="272" type="qcurve" smooth="yes"/>
      <point x="140" y="272"/>
      <point x="130" y="282.5" type="qcurve" smooth="yes"/>
      <point x="120" y="294"/>
      <point x="123" y="308" type="qcurve" smooth="yes"/>
      <point x="125" y="321"/>
      <point x="139" y="334"/>
      <point x="154" y="337" type="qcurve" smooth="yes"/>
      <point x="180" y="341"/>
      <point x="213" y="346"/>
      <point x="232" y="352" type="qcurve"/>
      <point x="220" y="359" type="line" smooth="yes"/>
      <point x="210" y="363"/>
      <point x="187" y="368"/>
      <point x="176" y="368" type="qcurve" smooth="yes"/>
      <point x="157" y="368" type="line" smooth="yes"/>
      <point x="144" y="371"/>
      <point x="136" y="378" type="qcurve" smooth="yes"/>
      <point x="126" y="387"/>
      <point x="128" y="399" type="qcurve" smooth="yes"/>
      <point x="129" y="406" type="line"/>
      <point x="130" y="410" type="line" smooth="yes"/>
      <point x="132" y="419"/>
      <point x="153" y="435"/>
      <point x="163" y="435" type="qcurve" smooth="yes"/>
      <point x="167" y="435"/>
      <point x="178" y="430"/>
      <point x="182" y="427" type="qcurve" smooth="yes"/>
      <point x="208" y="394"/>
      <point x="235" y="362" type="qcurve"/>
      <point x="236" y="366"/>
      <point x="234" y="376" type="qcurve" smooth="yes"/>
      <point x="230" y="401" type="line" smooth="yes"/>
      <point x="228" y="407"/>
      <point x="209" y="440"/>
      <point x="210" y="448" type="qcurve"/>
      <point x="212" y="451" type="line"/>
      <point x="214" y="463"/>
      <point x="234" y="480"/>
      <point x="246" y="480" type="qcurve" smooth="yes"/>
      <point x="260" y="480"/>
      <point x="280" y="464"/>
      <point x="277" y="451" type="qcurve" smooth="yes"/>
      <point x="274" y="439" type="line" smooth="yes"/>
      <point x="269" y="428"/>
      <point x="262" y="412" type="qcurve" smooth="yes"/>
      <point x="248" y="381"/>
      <point x="245" y="366" type="qcurve"/>
      <point x="245" y="362" type="line"/>
      <point x="257" y="370" type="line" smooth="yes"/>
      <point x="264" y="376"/>
      <point x="290" y="409" type="qcurve" smooth="yes"/>
      <point x="310" y="435"/>
      <point x="327" y="435" type="qcurve" smooth="yes"/>
      <point x="341" y="435"/>
      <point x="350.5" y="424" type="qcurve" smooth="yes"/>
      <point x="360" y="414"/>
      <point x="357" y="400" type="qcurve" smooth="yes"/>
      <point x="355" y="388"/>
      <point x="346" y="375"/>
      <point x="326" y="369"/>
      <point x="267" y="363"/>
      <point x="250" y="354" type="qcurve"/>
      <point x="260" y="350"/>
      <point x="278" y="343"/>
      <point x="286" y="341" type="qcurve" smooth="yes"/>
      <point x="312" y="339" type="line" smooth="yes"/>
      <point x="330" y="339"/>
      <point x="357" y="323"/>
      <point x="354" y="307" type="qcurve" smooth="yes"/>
      <point x="352" y="295"/>
      <point x="332" y="272"/>
      <point x="320" y="272" type="qcurve" smooth="yes"/>
      <point x="306" y="272"/>
      <point x="295" y="285" type="qcurve" smooth="yes"/>
      <point x="276" y="311"/>
      <point x="256" y="336"/>
    </contour>
  </outline>
</glyph>
<glyph name="plus" format="2">
  <advance width="514"/>
  <unicode hex="002B"/>
  <outline>
    <contour>
      <point x="233" y="259" type="line"/>
      <point x="233" y="417" type="line"/>
      <point x="281" y="417" type="line"/>
      <point x="281" y="259" type="line"/>
      <point x="439" y="259" type="line"/>
      <point x="439" y="211" type="line"/>
      <point x="281" y="211" type="line"/>
      <point x="281" y="53" type="line"/>
      <point x="233" y="53" type="line"/>
      <point x="233" y="211" type="line"/>
      <point x="75" y="211" type="line"/>
      <point x="75" y="259" type="line"/>
    </contour>
  </outline>
</glyph>
<glyph name="comma" format="2">
  <advance width="172"/>
  <unicode hex="002C"/>
  <outline>
    <contour>
      <point x="35" y="-75" type="line"/>
      <point x="22" y="-62" type="line"/>
      <point x="49" y="-12" type="line" smooth="yes"/>
      <point x="54" y="-2"/>
      <point x="64" y="28"/>
      <point x="69" y="57"/>
      <point x="70" y="71"/>
      <point x="70" y="76" type="qcurve" smooth="yes"/>
      <point x="70" y="101"/>
      <point x="60" y="122" type="qcurve"/>
      <point x="114" y="183" type="line"/>
      <point x="124" y="171"/>
      <point x="137" y="135"/>
      <point x="137" y="116" type="qcurve" smooth="yes"/>
      <point x="137" y="110"/>
      <point x="134" y="93"/>
      <point x="134" y="89" type="qcurve" smooth="yes"/>
      <point x="130" y="63"/>
      <point x="114" y="41" type="qcurve" smooth="yes"/>
    </contour>
  </outline>
</glyph>
<glyph name="hyphen" format="2">
  <advance width="514"/>
  <unicode hex="002D"/>
  <outline>
    <contour>
      <point x="439" y="259" type="line"/>
      <point x="439" y="211" type="line"/>
      <point x="75" y="211" type="line"/>
      <point x="75" y="259" type="line"/>
    </contour>
  </outline>
</glyph>
<glyph name="period" format="2">
  <advance width="564"/>
  <unicode hex="002E"/>
  <outline>
    <contour>
      <point x="203" y="50" type="qcurve" smooth="yes"/>
      <point x="203" y="28"/>
      <point x="173" y="0"/>
      <point x="151" y="-0" type="qcurve" smooth="yes"/>
      <point x="129" y="0"/>
      <point x="101" y="29"/>
      <point x="101" y="50" type="qcurve" smooth="yes"/>
      <point x="101" y="72"/>
      <point x="130" y="102"/>
      <point x="151" y="102" type="qcurve" smooth="yes"/>
      <point x="173" y="102"/>
      <point x="203" y="72"/>
    </contour>
  </outline>
</glyph>
<glyph name="slash" format="2">
  <advance width="182"/>
  <unicode hex="002F"/>
  <outline>
    <contour>
      <point x="41" y="0" type="line"/>
      <point x="7" y="0" type="line"/>
      <point x="134" y="387" type="line"/>
      <point x="168" y="387" type="line"/>
    </contour>
  </outline>
</glyph>
<glyph name="zero" format="2">
  <advance width="457"/>
  <unicode hex="0030"/>
  <outline>
    <contour>
      <point x="397" y="302" type="curve" smooth="yes"/>
      <point x="397" y="240"/>
      <point x="386.333" y="186.333"/>
      <point x="365" y="141" type="curve" smooth="yes"/>
      <point x="335" y="78.3333"/>
      <point x="289.667" y="47"/>
      <point x="229" y="47" type="curve" smooth="yes"/>
      <point x="168.333" y="47"/>
      <point x="123" y="78"/>
      <point x="93" y="140" type="curve" smooth="yes"/>
      <point x="70.3333" y="186.667"/>
      <point x="59" y="240.667"/>
      <point x="59" y="302" type="curve" smooth="yes"/>
      <point x="59" y="362.667"/>
      <point x="70" y="416"/>
      <point x="92" y="462" type="curve" smooth="yes"/>
      <point x="122.667" y="525.333"/>
      <point x="168.333" y="557"/>
      <point x="229" y="557" type="curve" smooth="yes"/>
      <point x="289" y="557"/>
      <point x="334" y="525.667"/>
      <point x="364" y="463" type="curve" smooth="yes"/>
      <point x="386" y="416.333"/>
      <point x="397" y="362.667"/>
    </contour>
    <contour>
      <point x="319" y="302" type="curve" smooth="yes"/>
      <point x="319" y="356.667"/>
      <point x="315.333" y="401"/>
      <point x="308" y="435" type="curve" smooth="yes"/>
      <point x="294" y="499.667"/>
      <point x="267.667" y="532"/>
      <point x="229" y="532" type="curve" smooth="yes"/>
      <point x="198.333" y="532"/>
      <point x="175.333" y="512.667"/>
      <point x="160" y="474" type="curve" smooth="yes"/>
      <point x="144.667" y="435.333"/>
      <point x="137" y="378"/>
      <point x="137" y="302" type="curve" smooth="yes"/>
      <point x="137" y="244"/>
      <point x="140.667" y="198.667"/>
      <point x="148" y="166" type="curve" smooth="yes"/>
      <point x="162.667" y="103.333"/>
      <point x="189.667" y="72"/>
      <point x="229" y="72" type="curve" smooth="yes"/>
      <point x="259" y="72"/>
      <point x="281.5" y="91.1667"/>
      <point x="296.5" y="129.5" type="curve" smooth="yes"/>
      <point x="311.5" y="167.833"/>
      <point x="319" y="225.333"/>
    </contour>
  </outline>
</glyph>
<glyph name="one" format="2">
  <advance width="457"/>
  <unicode hex="0031"/>
  <outline>
    <contour>
      <point x="338" y="58" type="line"/>
      <point x="129" y="58" type="line"/>
      <point x="129" y="77" type="line"/>
      <point x="155" y="77"/>
      <point x="172.333" y="79.3333"/>
      <point x="181" y="84" type="curve" smooth="yes"/>
      <point x="193" y="90.6667"/>
      <point x="198.667" y="106"/>
      <point x="198" y="130" type="curve" smooth="yes"/>
      <point x="198" y="462" type="line" smooth="yes"/>
      <point x="198" y="471.333"/>
      <point x="197" y="478.667"/>
      <point x="195" y="484" type="curve" smooth="yes"/>
      <point x="193" y="489.333"/>
      <point x="187" y="492"/>
      <point x="177" y="492" type="curve" smooth="yes"/>
      <point x="171.667" y="492"/>
      <point x="167.667" y="491.333"/>
      <point x="165" y="490" type="curve" smooth="yes"/>
      <point x="153" y="484.667"/>
      <point x="139.333" y="479.333"/>
      <point x="124" y="474" type="curve"/>
      <point x="124" y="493" type="line"/>
      <point x="124" y="492.333"/>
      <point x="168.667" y="514"/>
      <point x="258" y="558" type="curve"/>
      <point x="269" y="557" type="line"/>
      <point x="269" y="115" type="line" smooth="yes"/>
      <point x="269" y="99.6667"/>
      <point x="273.5" y="89.5"/>
      <point x="282.5" y="84.5" type="curve" smooth="yes"/>
      <point x="291.5" y="79.5"/>
      <point x="310" y="77"/>
      <point x="338" y="77" type="curve"/>
    </contour>
  </outline>
</glyph>
<glyph name="two" format="2">
  <advance width="457"/>
  <unicode hex="0032"/>
  <outline>
    <contour>
      <point x="397" y="164" type="line"/>
      <point x="356" y="58" type="line"/>
      <point x="64" y="58" type="line"/>
      <point x="65" y="72" type="line"/>
      <point x="195" y="210" type="line" smooth="yes"/>
      <point x="288" y="311"/>
      <point x="288" y="398" type="qcurve" smooth="yes"/>
      <point x="288" y="436"/>
      <point x="270" y="461" type="qcurve" smooth="yes"/>
      <point x="244" y="497"/>
      <point x="189" y="497" type="qcurve" smooth="yes"/>
      <point x="146" y="496"/>
      <point x="120" y="466" type="qcurve" smooth="yes"/>
      <point x="104" y="446"/>
      <point x="86" y="402" type="qcurve"/>
      <point x="65" y="408" type="line"/>
      <point x="80" y="488"/>
      <point x="128" y="526" type="qcurve" smooth="yes"/>
      <point x="167" y="558"/>
      <point x="223" y="558" type="qcurve" smooth="yes"/>
      <point x="276" y="558"/>
      <point x="316" y="523" type="qcurve" smooth="yes"/>
      <point x="358" y="485"/>
      <point x="359" y="424" type="qcurve" smooth="yes"/>
      <point x="358" y="372"/>
      <point x="324" y="317" type="qcurve" smooth="yes"/>
      <point x="306" y="289"/>
      <point x="265" y="244" type="qcurve" smooth="yes"/>
      <point x="148" y="120" type="line"/>
      <point x="314" y="120" type="line" smooth="yes"/>
      <point x="336" y="120"/>
      <point x="347" y="127" type="qcurve" smooth="yes"/>
      <point x="361" y="137"/>
      <point x="383" y="170" type="qcurve"/>
    </contour>
  </outline>
</glyph>
<glyph name="three" format="2">
  <advance width="457"/>
  <unicode hex="0033"/>
  <outline>
    <contour>
      <point x="363" y="219" type="qcurve" smooth="yes"/>
      <point x="363" y="141"/>
      <point x="246" y="47"/>
      <point x="156" y="47" type="qcurve" smooth="yes"/>
      <point x="116" y="47"/>
      <point x="71" y="71"/>
      <point x="71" y="92" type="qcurve" smooth="yes"/>
      <point x="71" y="108"/>
      <point x="91" y="122"/>
      <point x="103" y="122" type="qcurve" smooth="yes"/>
      <point x="115" y="122"/>
      <point x="164" y="93" type="qcurve" smooth="yes"/>
      <point x="187" y="79"/>
      <point x="207" y="80" type="qcurve" smooth="yes"/>
      <point x="253" y="80"/>
      <point x="279" y="114" type="qcurve" smooth="yes"/>
      <point x="301" y="144"/>
      <point x="302" y="189" type="qcurve" smooth="yes"/>
      <point x="302" y="203"/>
      <point x="297" y="220" type="qcurve" smooth="yes"/>
      <point x="284" y="264"/>
      <point x="248" y="280" type="qcurve" smooth="yes"/>
      <point x="230" y="291"/>
      <point x="190" y="299"/>
      <point x="152" y="299" type="qcurve"/>
      <point x="151" y="314" type="line"/>
      <point x="207" y="332"/>
      <point x="237" y="359" type="qcurve" smooth="yes"/>
      <point x="272" y="390"/>
      <point x="272" y="435" type="qcurve" smooth="yes"/>
      <point x="272" y="465"/>
      <point x="254" y="484" type="qcurve" smooth="yes"/>
      <point x="233" y="507"/>
      <point x="195" y="508" type="qcurve" smooth="yes"/>
      <point x="154" y="508"/>
      <point x="124" y="478" type="qcurve" smooth="yes"/>
      <point x="106" y="460"/>
      <point x="90" y="428" type="qcurve"/>
      <point x="71" y="433" type="line"/>
      <point x="94" y="502"/>
      <point x="139" y="533" type="qcurve" smooth="yes"/>
      <point x="174" y="557"/>
      <point x="219" y="557" type="qcurve" smooth="yes"/>
      <point x="284" y="557"/>
      <point x="315" y="519" type="qcurve" smooth="yes"/>
      <point x="337" y="492"/>
      <point x="338" y="455" type="qcurve" smooth="yes"/>
      <point x="338" y="427"/>
      <point x="308" y="379"/>
      <point x="273" y="355" type="qcurve"/>
      <point x="312" y="337"/>
      <point x="332" y="313" type="qcurve" smooth="yes"/>
      <point x="363" y="277"/>
    </contour>
  </outline>
</glyph>
<glyph name="four" format="2">
  <advance width="457"/>
  <unicode hex="0034"/>
  <outline>
    <contour>
      <point x="394" y="180" type="line"/>
      <point x="318" y="180" type="line"/>
      <point x="318" y="58" type="line"/>
      <point x="256" y="58" type="line"/>
      <point x="256" y="180" type="line"/>
      <point x="50" y="180" type="line"/>
      <point x="51" y="232" type="line"/>
      <point x="281" y="558" type="line"/>
      <point x="318" y="558" type="line"/>
      <point x="318" y="234" type="line"/>
      <point x="394" y="234" type="line"/>
    </contour>
    <contour>
      <point x="255" y="234" type="line"/>
      <point x="255" y="467" type="line"/>
      <point x="252" y="467" type="line"/>
      <point x="89" y="234" type="line"/>
    </contour>
  </outline>
</glyph>
<glyph name="five" format="2">
  <advance width="457"/>
  <unicode hex="0035"/>
  <outline>
    <contour>
      <point x="367" y="561" type="line"/>
      <point x="338" y="494" type="line" smooth="yes"/>
      <point x="337.333" y="491.333"/>
      <point x="335.667" y="489"/>
      <point x="333" y="487" type="curve" smooth="yes"/>
      <point x="330.333" y="485"/>
      <point x="325.667" y="484"/>
      <point x="319" y="484" type="curve" smooth="yes"/>
      <point x="177" y="484" type="line"/>
      <point x="151" y="429" type="line"/>
      <point x="192.333" y="421"/>
      <point x="222.333" y="413.333"/>
      <point x="241" y="406" type="curve" smooth="yes"/>
      <point x="272.333" y="394"/>
      <point x="297.333" y="376.333"/>
      <point x="316" y="353" type="curve" smooth="yes"/>
      <point x="333.333" y="333"/>
      <point x="344.833" y="314.833"/>
      <point x="350.5" y="298.5" type="curve" smooth="yes"/>
      <point x="356.167" y="282.167"/>
      <point x="359" y="258"/>
      <point x="359" y="226" type="curve" smooth="yes"/>
      <point x="359" y="176.667"/>
      <point x="340.167" y="134.667"/>
      <point x="302.5" y="100" type="curve" smooth="yes"/>
      <point x="264.833" y="65.3333"/>
      <point x="216.667" y="48"/>
      <point x="158" y="48" type="curve" smooth="yes"/>
      <point x="128.667" y="48"/>
      <point x="105.333" y="52.6667"/>
      <point x="88" y="62" type="curve" smooth="yes"/>
      <point x="70.6667" y="71.3333"/>
      <point x="62" y="82.6667"/>
      <point x="62" y="96" type="curve" smooth="yes"/>
      <point x="62" y="104"/>
      <point x="63.3333" y="110.333"/>
      <point x="66" y="115" type="curve" smooth="yes"/>
      <point x="71.3333" y="124.333"/>
      <point x="81.3333" y="128.667"/>
      <point x="96" y="128" type="curve" smooth="yes"/>
      <point x="110" y="128"/>
      <point x="132" y="118"/>
      <point x="162" y="98" type="curve" smooth="yes"/>
      <point x="176.667" y="88.6667"/>
      <point x="190" y="84"/>
      <point x="202" y="84" type="curve" smooth="yes"/>
      <point x="227.333" y="84"/>
      <point x="249.333" y="94"/>
      <point x="268" y="114" type="curve" smooth="yes"/>
      <point x="288.667" y="136.667"/>
      <point x="299" y="168"/>
      <point x="299" y="208" type="curve" smooth="yes"/>
      <point x="299" y="259.333"/>
      <point x="274.667" y="298.667"/>
      <point x="226" y="326" type="curve" smooth="yes"/>
      <point x="187.333" y="348"/>
      <point x="144" y="359"/>
      <point x="96" y="359" type="curve" smooth="yes"/>
      <point x="89.3333" y="359"/>
      <point x="86" y="362"/>
      <point x="86" y="368" type="curve" smooth="yes"/>
      <point x="86.6667" y="370.667"/>
      <point x="87.3333" y="372.333"/>
      <point x="88" y="373" type="curve" smooth="yes"/>
      <point x="169" y="549" type="line"/>
      <point x="324" y="549" type="line" smooth="yes"/>
      <point x="335.333" y="549"/>
      <point x="345.667" y="556.333"/>
      <point x="355" y="571" type="curve"/>
    </contour>
  </outline>
</glyph>
<glyph name="six" format="2">
  <advance width="457"/>
  <unicode hex="0036"/>
  <outline>
    <contour>
      <point x="253" y="329" type="curve" smooth="yes"/>
      <point x="273" y="329"/>
      <point x="392" y="323"/>
      <point x="392" y="172" type="curve" smooth="yes"/>
      <point x="392" y="106"/>
      <point x="359" y="0"/>
      <point x="232" y="0" type="curve" smooth="yes"/>
      <point x="199" y="0"/>
      <point x="68" y="13"/>
      <point x="68" y="226" type="curve" smooth="yes"/>
      <point x="68" y="382"/>
      <point x="193" y="516"/>
      <point x="376" y="516" type="curve"/>
      <point x="378" y="499" type="line"/>
      <point x="319" y="490"/>
      <point x="270" y="465"/>
      <point x="231" y="426" type="curve" smooth="yes"/>
      <point x="196" y="391"/>
      <point x="173" y="349"/>
      <point x="163" y="300" type="curve"/>
      <point x="203" y="324"/>
      <point x="219" y="329"/>
    </contour>
    <contour>
      <point x="244" y="27" type="curve" smooth="yes"/>
      <point x="268" y="27"/>
      <point x="318" y="40"/>
      <point x="318" y="144" type="curve" smooth="yes"/>
      <point x="318" y="198"/>
      <point x="308" y="289"/>
      <point x="223" y="289" type="curve" smooth="yes"/>
      <point x="184" y="289"/>
      <point x="166" y="276"/>
      <point x="156" y="267" type="curve" smooth="yes"/>
      <point x="147" y="258"/>
      <point x="143" y="236"/>
      <point x="143" y="200" type="curve" smooth="yes"/>
      <point x="143" y="166"/>
      <point x="149" y="27"/>
    </contour>
  </outline>
</glyph>
<glyph name="seven" format="2">
  <advance width="457"/>
  <unicode hex="0037"/>
  <outline>
    <contour>
      <point x="155" y="436" type="line" smooth="yes"/>
      <point x="110" y="436"/>
      <point x="98" y="417"/>
      <point x="71" y="375" type="curve"/>
      <point x="53" y="385" type="line"/>
      <point x="53" y="385"/>
      <point x="64" y="410"/>
      <point x="86" y="462" type="curve"/>
      <point x="99" y="497" type="line"/>
      <point x="375" y="497" type="line"/>
      <point x="375" y="483" type="line"/>
      <point x="219" y="0" type="line"/>
      <point x="164" y="0" type="line"/>
      <point x="309" y="436" type="line"/>
    </contour>
  </outline>
</glyph>
<glyph name="eight" format="2">
  <advance width="457"/>
  <unicode hex="0038"/>
  <outline>
    <contour>
      <point x="374" y="170" type="curve" smooth="yes"/>
      <point x="374" y="141.333"/>
      <point x="364.667" y="116"/>
      <point x="346" y="94" type="curve" smooth="yes"/>
      <point x="320" y="62.6667"/>
      <point x="279.667" y="47"/>
      <point x="225" y="47" type="curve" smooth="yes"/>
      <point x="181" y="47"/>
      <point x="145.667" y="59.6667"/>
      <point x="119" y="85" type="curve" smooth="yes"/>
      <point x="95" y="107.667"/>
      <point x="83" y="135"/>
      <point x="83" y="167" type="curve" smooth="yes"/>
      <point x="83" y="201"/>
      <point x="94.6667" y="229.667"/>
      <point x="118" y="253" type="curve" smooth="yes"/>
      <point x="128" y="263"/>
      <point x="147.333" y="279.667"/>
      <point x="176" y="303" type="curve"/>
      <point x="141.333" y="333"/>
      <point x="118.667" y="355.333"/>
      <point x="108" y="370" type="curve" smooth="yes"/>
      <point x="93.3333" y="390"/>
      <point x="86" y="413.333"/>
      <point x="86" y="440" type="curve" smooth="yes"/>
      <point x="86" y="476"/>
      <point x="101.667" y="505.333"/>
      <point x="133" y="528" type="curve" smooth="yes"/>
      <point x="161" y="548"/>
      <point x="192.667" y="557.667"/>
      <point x="228" y="557" type="curve" smooth="yes"/>
      <point x="269.333" y="557"/>
      <point x="301.333" y="546.833"/>
      <point x="324" y="526.5" type="curve" smooth="yes"/>
      <point x="346.667" y="506.167"/>
      <point x="358" y="481"/>
      <point x="358" y="451" type="curve" smooth="yes"/>
      <point x="358" y="429"/>
      <point x="352.333" y="409.333"/>
      <point x="341" y="392" type="curve" smooth="yes"/>
      <point x="327.667" y="372"/>
      <point x="302.667" y="351.667"/>
      <point x="266" y="331" type="curve"/>
      <point x="310" y="298.333"/>
      <point x="339.333" y="269"/>
      <point x="354" y="243" type="curve" smooth="yes"/>
      <point x="367.333" y="221.667"/>
      <point x="374" y="197.333"/>
    </contour>
    <contour>
      <point x="301" y="453" type="curve" smooth="yes"/>
      <point x="300.333" y="474.333"/>
      <point x="294" y="492"/>
      <point x="282" y="506" type="curve" smooth="yes"/>
      <point x="267.333" y="522"/>
      <point x="247.333" y="530"/>
      <point x="222" y="530" type="curve" smooth="yes"/>
      <point x="198" y="530"/>
      <point x="179.833" y="523"/>
      <point x="167.5" y="509" type="curve" smooth="yes"/>
      <point x="155.167" y="495"/>
      <point x="149" y="478.667"/>
      <point x="149" y="460" type="curve" smooth="yes"/>
      <point x="149" y="436.667"/>
      <point x="159.667" y="414"/>
      <point x="181" y="392" type="curve" smooth="yes"/>
      <point x="193" y="379.333"/>
      <point x="211.333" y="364.667"/>
      <point x="236" y="348" type="curve"/>
      <point x="256" y="362.667"/>
      <point x="270.333" y="375.333"/>
      <point x="279" y="386" type="curve" smooth="yes"/>
      <point x="293.667" y="404.667"/>
      <point x="301" y="427"/>
    </contour>
    <contour>
      <point x="312" y="153" type="curve" smooth="yes"/>
      <point x="312" y="181"/>
      <point x="299" y="206.667"/>
      <point x="273" y="230" type="curve" smooth="yes"/>
      <point x="263.667" y="238.667"/>
      <point x="240" y="256.667"/>
      <point x="202" y="284" type="curve"/>
      <point x="186" y="270.667"/>
      <point x="173.667" y="257.667"/>
      <point x="165" y="245" type="curve" smooth="yes"/>
      <point x="152.333" y="225"/>
      <point x="146" y="201.667"/>
      <point x="146" y="175" type="curve" smooth="yes"/>
      <point x="146" y="146.333"/>
      <point x="154" y="122.333"/>
      <point x="170" y="103" type="curve" smooth="yes"/>
      <point x="186" y="83.6667"/>
      <point x="207.667" y="74"/>
      <point x="235" y="74" type="curve" smooth="yes"/>
      <point x="257" y="74"/>
      <point x="275.333" y="81"/>
      <point x="290" y="95" type="curve" smooth="yes"/>
      <point x="304.667" y="109"/>
      <point x="312" y="128.333"/>
    </contour>
  </outline>
</glyph>
<glyph name="nine" format="2">
  <advance width="457"/>
  <unicode hex="0039"/>
  <outline>
    <contour>
      <point x="383" y="349" type="curve" smooth="yes"/>
      <point x="383" y="265"/>
      <point x="357.333" y="193.667"/>
      <point x="306" y="135" type="curve" smooth="yes"/>
      <point x="250" y="70.3333"/>
      <point x="176.333" y="38"/>
      <point x="85" y="38" type="curve"/>
      <point x="82" y="62" type="line"/>
      <point x="140.667" y="72.6667"/>
      <point x="189.833" y="98"/>
      <point x="229.5" y="138" type="curve" smooth="yes"/>
      <point x="269.167" y="178"/>
      <point x="293" y="219.667"/>
      <point x="301" y="263" type="curve"/>
      <point x="271" y="240.333"/>
      <point x="236.667" y="229.333"/>
      <point x="198" y="230" type="curve" smooth="yes"/>
      <point x="152" y="230"/>
      <point x="117" y="246.667"/>
      <point x="93" y="280" type="curve" smooth="yes"/>
      <point x="73" y="307.333"/>
      <point x="63" y="339.667"/>
      <point x="63" y="377" type="curve" smooth="yes"/>
      <point x="63" y="429"/>
      <point x="77.1667" y="471.833"/>
      <point x="105.5" y="505.5" type="curve" smooth="yes"/>
      <point x="133.833" y="539.167"/>
      <point x="172" y="556"/>
      <point x="220" y="556" type="curve" smooth="yes"/>
      <point x="266.667" y="556"/>
      <point x="305.5" y="536.833"/>
      <point x="336.5" y="498.5" type="curve" smooth="yes"/>
      <point x="367.5" y="460.167"/>
      <point x="383" y="410.333"/>
    </contour>
    <contour>
      <point x="305" y="319" type="curve" smooth="yes"/>
      <point x="305" y="347" type="line" smooth="yes"/>
      <point x="305" y="407"/>
      <point x="297.167" y="452.333"/>
      <point x="281.5" y="483" type="curve" smooth="yes"/>
      <point x="265.833" y="513.667"/>
      <point x="242.667" y="529"/>
      <point x="212" y="529" type="curve" smooth="yes"/>
      <point x="185.333" y="529"/>
      <point x="165.667" y="515.667"/>
      <point x="153" y="489" type="curve" smooth="yes"/>
      <point x="143" y="467.667"/>
      <point x="137.667" y="439.667"/>
      <point x="137" y="405" type="curve" smooth="yes"/>
      <point x="137" y="357.667"/>
      <point x="146.333" y="321.667"/>
      <point x="165" y="297" type="curve" smooth="yes"/>
      <point x="180.333" y="277"/>
      <point x="201.333" y="267"/>
      <point x="228" y="267" type="curve" smooth="yes"/>
      <point x="238" y="267"/>
      <point x="249.667" y="269.667"/>
      <point x="263" y="275" type="curve" smooth="yes"/>
      <point x="276.333" y="280.333"/>
      <point x="287.333" y="286"/>
      <point x="296" y="292" type="curve" smooth="yes"/>
      <point x="302" y="298"/>
      <point x="305" y="307"/>
    </contour>
  </outline>
</glyph>
<glyph name="colon" format="2">
  <advance width="228"/>
  <unicode hex="003A"/>
  <outline>
    <contour>
      <point x="139" y="39" type="line"/>
      <point x="140" y="39"/>
      <point x="98" y="91" type="qcurve"/>
      <point x="143" y="143" type="line"/>
      <point x="144" y="143"/>
      <point x="186" y="91" type="qcurve"/>
    </contour>
    <contour>
      <point x="150" y="315" type="line"/>
      <point x="108" y="368" type="line"/>
      <point x="153" y="419" type="line"/>
      <point x="154" y="419"/>
      <point x="198" y="368" type="qcurve"/>
    </contour>
  </outline>
</glyph>
<glyph name="semicolon" format="2">
  <advance width="204"/>
  <unicode hex="003B"/>
  <outline>
    <contour>
      <point x="144" y="301" type="line"/>
      <point x="102" y="352" type="line"/>
      <point x="146" y="406" type="line"/>
      <point x="190" y="354" type="line"/>
    </contour>
    <contour>
      <point x="73" y="-50" type="line"/>
      <point x="61" y="-37" type="line"/>
      <point x="87" y="12" type="line" smooth="yes"/>
      <point x="97" y="30.6667"/>
      <point x="103.333" y="46.6667"/>
      <point x="106" y="60" type="curve" smooth="yes"/>
      <point x="108.667" y="73.3333"/>
      <point x="110" y="86"/>
      <point x="110" y="98" type="curve" smooth="yes"/>
      <point x="110" y="116.667"/>
      <point x="106" y="133"/>
      <point x="98" y="147" type="curve"/>
      <point x="152" y="208" type="line"/>
      <point x="166.667" y="186.667"/>
      <point x="174.333" y="163.333"/>
      <point x="175" y="138" type="curve" smooth="yes"/>
      <point x="175" y="128.667"/>
      <point x="174" y="120.5"/>
      <point x="172" y="113.5" type="curve" smooth="yes"/>
      <point x="170" y="106.5"/>
      <point x="167.167" y="98.5"/>
      <point x="163.5" y="89.5" type="curve" smooth="yes"/>
      <point x="159.833" y="80.5"/>
      <point x="156" y="72.6667"/>
      <point x="152" y="66" type="curve" smooth="yes"/>
    </contour>
  </outline>
</glyph>
<glyph name="less" format="2">
  <advance width="416"/>
  <unicode hex="003C"/>
  <outline>
    <contour>
      <point x="354" y="14" type="line"/>
      <point x="341" y="0" type="line"/>
      <point x="62" y="256" type="line"/>
      <point x="341" y="506" type="line"/>
      <point x="353" y="490" type="line"/>
      <point x="184" y="253" type="line"/>
    </contour>
  </outline>
</glyph>
<glyph name="equal" format="2">
  <advance width="403"/>
  <unicode hex="003D"/>
  <outline>
    <contour>
      <point x="332" y="137" type="line"/>
      <point x="72" y="137" type="line"/>
      <point x="72" y="178" type="line"/>
      <point x="332" y="178" type="line"/>
    </contour>
    <contour>
      <point x="334" y="220" type="line"/>
      <point x="76" y="220" type="line"/>
      <point x="76" y="261" type="line"/>
      <point x="334" y="261" type="line"/>
    </contour>
  </outline>
</glyph>
<glyph name="greater" format="2">
  <advance width="371"/>
  <unicode hex="003E"/>
  <outline>
    <contour>
      <point x="115" y="115" type="line"/>
      <point x="115" y="114"/>
      <point x="117" y="156" type="qcurve"/>
      <point x="305" y="247" type="line"/>
      <point x="305" y="246"/>
      <point x="124" y="336" type="qcurve"/>
      <point x="126" y="378" type="line"/>
      <point x="350" y="268" type="line"/>
      <point x="348" y="226" type="line"/>
    </contour>
  </outline>
</glyph>
<glyph name="question" format="2">
  <advance width="293"/>
  <unicode hex="003F"/>
  <outline>
    <contour>
      <point x="139" y="175" type="line"/>
      <point x="136" y="196"/>
      <point x="135.5" y="205.5" type="qcurve" smooth="yes"/>
      <point x="135" y="214"/>
      <point x="135" y="220" type="qcurve" smooth="yes"/>
      <point x="135" y="238"/>
      <point x="139" y="253.5" type="qcurve" smooth="yes"/>
      <point x="143" y="268"/>
      <point x="150" y="284" type="qcurve" smooth="yes"/>
      <point x="163" y="312" type="line"/>
      <point x="166" y="324" type="line" smooth="yes"/>
      <point x="167" y="328"/>
      <point x="167" y="334" type="qcurve" smooth="yes"/>
      <point x="167" y="355"/>
      <point x="135" y="383"/>
      <point x="113" y="383" type="qcurve" smooth="yes"/>
      <point x="99" y="383"/>
      <point x="70" y="368"/>
      <point x="57" y="354" type="qcurve"/>
      <point x="73" y="432" type="line"/>
      <point x="110" y="454"/>
      <point x="154" y="454" type="qcurve" smooth="yes"/>
      <point x="190" y="454"/>
      <point x="241" y="410"/>
      <point x="241" y="377" type="qcurve" smooth="yes"/>
      <point x="241" y="372"/>
      <point x="237" y="350"/>
      <point x="227" y="327"/>
      <point x="219" y="317" type="qcurve" smooth="yes"/>
      <point x="199" y="291" type="line" smooth="yes"/>
      <point x="193" y="284"/>
      <point x="186" y="270"/>
      <point x="183" y="257"/>
      <point x="183" y="249" type="qcurve" smooth="yes"/>
      <point x="183" y="240"/>
      <point x="184" y="228"/>
      <point x="189" y="211" type="qcurve"/>
    </contour>
    <contour>
      <point x="139" y="39" type="line"/>
      <point x="98" y="90" type="line"/>
      <point x="143" y="143" type="line"/>
      <point x="185" y="90" type="line"/>
    </contour>
  </outline>
</glyph>
<glyph name="at" format="2">
  <advance width="832"/>
  <unicode hex="0040"/>
  <outline>
    <contour>
      <point x="230" y="732" type="qcurve" smooth="yes"/>
      <point x="251" y="732"/>
      <point x="265.5" y="717.5" type="qcurve" smooth="yes"/>
      <point x="280" y="704"/>
      <point x="280" y="682" type="qcurve" smooth="yes"/>
      <point x="280" y="662"/>
      <point x="251" y="633"/>
      <point x="230" y="633" type="qcurve" smooth="yes"/>
      <point x="210" y="633"/>
      <point x="180" y="662"/>
      <point x="180" y="682" type="qcurve" smooth="yes"/>
      <point x="180" y="703"/>
      <point x="209" y="732"/>
    </contour>
    <contour>
      <point x="376" y="732" type="qcurve" smooth="yes"/>
      <point x="397" y="732"/>
      <point x="411.5" y="717.5" type="qcurve" smooth="yes"/>
      <point x="426" y="704"/>
      <point x="426" y="682" type="qcurve" smooth="yes"/>
      <point x="426" y="662"/>
      <point x="397" y="633"/>
      <point x="376" y="633" type="qcurve" smooth="yes"/>
      <point x="356" y="633"/>
      <point x="326" y="662"/>
      <point x="326" y="682" type="qcurve" smooth="yes"/>
      <point x="326" y="703"/>
      <point x="355" y="732"/>
    </contour>
    <contour>
      <point x="695" y="84" type="line"/>
      <point x="571" y="84" type="line"/>
      <point x="379" y="474" type="line"/>
      <point x="232" y="474" type="line"/>
      <point x="233" y="84" type="line"/>
      <point x="123" y="84" type="line"/>
      <point x="123" y="546" type="line"/>
      <point x="372" y="546" type="line"/>
      <point x="704" y="755" type="line"/>
      <point x="764" y="689" type="line"/>
      <point x="494" y="501" type="line"/>
    </contour>
  </outline>
</glyph>
<glyph name="A" format="2">
  <advance width="800"/>
  <unicode hex="0041"/>
  <outline>
    <contour>
      <point x="334" y="729" type="qcurve" smooth="yes"/>
      <point x="355" y="729"/>
      <point x="383" y="700"/>
      <point x="383" y="679" type="qcurve" smooth="yes"/>
      <point x="383" y="659"/>
      <point x="354" y="630"/>
      <point x="334" y="630" type="qcurve" smooth="yes"/>
      <point x="314" y="630"/>
      <point x="283" y="659"/>
      <point x="283" y="679" type="qcurve" smooth="yes"/>
      <point x="283" y="700"/>
      <point x="313" y="729"/>
    </contour>
    <contour>
      <point x="479" y="729" type="qcurve" smooth="yes"/>
      <point x="500" y="729"/>
      <point x="529" y="700"/>
      <point x="529" y="679" type="qcurve" smooth="yes"/>
      <point x="529" y="659"/>
      <point x="500" y="630"/>
      <point x="479" y="630" type="qcurve" smooth="yes"/>
      <point x="459" y="630"/>
      <point x="429" y="659"/>
      <point x="429" y="679" type="qcurve" smooth="yes"/>
      <point x="429" y="700"/>
      <point x="458" y="729"/>
    </contour>
    <contour>
      <point x="689" y="81" type="line"/>
      <point x="112" y="81" type="line"/>
      <point x="112" y="121" type="line"/>
      <point x="582" y="121" type="line"/>
      <point x="582" y="507" type="line"/>
      <point x="270" y="507" type="line"/>
      <point x="270" y="390" type="line"/>
      <point x="112" y="390" type="line"/>
      <point x="112" y="543" type="line"/>
      <point x="689" y="543" type="line"/>
    </contour>
  </outline>
</glyph>
<glyph name="B" format="2">
  <advance width="760"/>
  <unicode hex="0042"/>
  <outline>
    <contour>
      <point x="457" y="435" type="qcurve" smooth="yes"/>
      <point x="478" y="435"/>
      <point x="507" y="406"/>
      <point x="507" y="384" type="qcurve" smooth="yes"/>
      <point x="507" y="364"/>
      <point x="478" y="336"/>
      <point x="457" y="336" type="qcurve" smooth="yes"/>
      <point x="437" y="336"/>
      <point x="407" y="364"/>
      <point x="407" y="384" type="qcurve" smooth="yes"/>
      <point x="407" y="405"/>
      <point x="436" y="435"/>
    </contour>
    <contour>
      <point x="603" y="435" type="qcurve" smooth="yes"/>
      <point x="624" y="435"/>
      <point x="652" y="406"/>
      <point x="652" y="384" type="qcurve" smooth="yes"/>
      <point x="652" y="364"/>
      <point x="624" y="336"/>
      <point x="603" y="336" type="qcurve" smooth="yes"/>
      <point x="583" y="336"/>
      <point x="552" y="364"/>
      <point x="552" y="384" type="qcurve" smooth="yes"/>
      <point x="552" y="405"/>
      <point x="582" y="435"/>
    </contour>
    <contour>
      <point x="324" y="83" type="line"/>
      <point x="324" y="84"/>
      <point x="201" y="472" type="qcurve" smooth="yes"/>
      <point x="194" y="485"/>
      <point x="160" y="516" type="qcurve" smooth="yes"/>
      <point x="149" y="526"/>
      <point x="125" y="547" type="qcurve"/>
      <point x="126" y="547"/>
      <point x="292" y="547" type="qcurve"/>
      <point x="402" y="83" type="line"/>
      <point x="496" y="43" type="line"/>
      <point x="508" y="33"/>
      <point x="612" y="-7" type="qcurve" smooth="yes"/>
      <point x="711" y="-45"/>
      <point x="748" y="-53"/>
      <point x="769" y="-58" type="qcurve"/>
      <point x="790" y="-66"/>
      <point x="790" y="-89" type="qcurve" smooth="yes"/>
      <point x="790" y="-119"/>
      <point x="758" y="-120" type="qcurve" smooth="yes"/>
      <point x="684" y="-120"/>
      <point x="460" y="-20"/>
      <point x="403" y="43" type="qcurve"/>
      <point x="265" y="43" type="line"/>
      <point x="265" y="83" type="line"/>
    </contour>
  </outline>
</glyph>
<glyph name="C" format="2">
  <advance width="864"/>
  <unicode hex="0043"/>
  <outline>
    <contour>
      <point x="655" y="80" type="line"/>
      <point x="655" y="506" type="line"/>
      <point x="431" y="506" type="line"/>
      <point x="431" y="390" type="line"/>
      <point x="273" y="390" type="line"/>
      <point x="273" y="542" type="line"/>
      <point x="762" y="542" type="line"/>
      <point x="762" y="80" type="line"/>
    </contour>
    <contour>
      <point x="477" y="729" type="curve" smooth="yes"/>
      <point x="491" y="729"/>
      <point x="502.833" y="724.167"/>
      <point x="512.5" y="714.5" type="curve" smooth="yes"/>
      <point x="522.167" y="704.833"/>
      <point x="527" y="692.667"/>
      <point x="527" y="678" type="curve" smooth="yes"/>
      <point x="527" y="664.667"/>
      <point x="522.167" y="653.333"/>
      <point x="512.5" y="644" type="curve" smooth="yes"/>
      <point x="502.833" y="634.667"/>
      <point x="491" y="630"/>
      <point x="477" y="630" type="curve" smooth="yes"/>
      <point x="463.667" y="630"/>
      <point x="452" y="634.667"/>
      <point x="442" y="644" type="curve" smooth="yes"/>
      <point x="432" y="653.333"/>
      <point x="427" y="664.667"/>
      <point x="427" y="678" type="curve" smooth="yes"/>
      <point x="427" y="692"/>
      <point x="431.833" y="704"/>
      <point x="441.5" y="714" type="curve" smooth="yes"/>
      <point x="451.167" y="724"/>
      <point x="463" y="729"/>
    </contour>
    <contour>
      <point x="623" y="729" type="curve" smooth="yes"/>
      <point x="637" y="729"/>
      <point x="648.667" y="724.167"/>
      <point x="658" y="714.5" type="curve" smooth="yes"/>
      <point x="667.333" y="704.833"/>
      <point x="672" y="692.667"/>
      <point x="672" y="678" type="curve" smooth="yes"/>
      <point x="672" y="664.667"/>
      <point x="667.333" y="653.333"/>
      <point x="658" y="644" type="curve" smooth="yes"/>
      <point x="648.667" y="634.667"/>
      <point x="637" y="630"/>
      <point x="623" y="630" type="curve" smooth="yes"/>
      <point x="609.667" y="630"/>
      <point x="597.833" y="634.667"/>
      <point x="587.5" y="644" type="curve" smooth="yes"/>
      <point x="577.167" y="653.333"/>
      <point x="572" y="664.667"/>
      <point x="572" y="678" type="curve" smooth="yes"/>
      <point x="572" y="692"/>
      <point x="577" y="704"/>
      <point x="587" y="714" type="curve" smooth="yes"/>
      <point x="597" y="724"/>
      <point x="609" y="729"/>
    </contour>
  </outline>
</glyph>
<glyph name="D" format="2">
  <advance width="900"/>
  <unicode hex="0044"/>
  <outline>
    <contour>
      <point x="383" y="729" type="qcurve" smooth="yes"/>
      <point x="404" y="729"/>
      <point x="432" y="700"/>
      <point x="432" y="679" type="qcurve" smooth="yes"/>
      <point x="432" y="659"/>
      <point x="404" y="630"/>
      <point x="383" y="630" type="qcurve" smooth="yes"/>
      <point x="363" y="630"/>
      <point x="332" y="659"/>
      <point x="332" y="679" type="qcurve" smooth="yes"/>
      <point x="332" y="700"/>
      <point x="362" y="729"/>
    </contour>
    <contour>
      <point x="528" y="729" type="qcurve" smooth="yes"/>
      <point x="549" y="729"/>
      <point x="578" y="700"/>
      <point x="578" y="679" type="qcurve" smooth="yes"/>
      <point x="578" y="659"/>
      <point x="549" y="630"/>
      <point x="528" y="630" type="qcurve" smooth="yes"/>
      <point x="508" y="630"/>
      <point x="478" y="659"/>
      <point x="478" y="679" type="qcurve" smooth="yes"/>
      <point x="478" y="700"/>
      <point x="507" y="729"/>
    </contour>
    <contour>
      <point x="124" y="81" type="line"/>
      <point x="124" y="543" type="line"/>
      <point x="768" y="543" type="line"/>
      <point x="768" y="81" type="line"/>
      <point x="657" y="81" type="line"/>
      <point x="657" y="500" type="line"/>
      <point x="505" y="500" type="line"/>
      <point x="505" y="81" type="line"/>
      <point x="393" y="81" type="line"/>
      <point x="393" y="500" type="line"/>
      <point x="238" y="500" type="line"/>
      <point x="238" y="81" type="line"/>
    </contour>
  </outline>
</glyph>
<glyph name="E" format="2">
  <advance width="644"/>
  <unicode hex="0045"/>
  <outline>
    <contour>
      <point x="546" y="315" type="curve" smooth="yes"/>
      <point x="546" y="248.333"/>
      <point x="525.333" y="192.667"/>
      <point x="484" y="148" type="curve" smooth="yes"/>
      <point x="442.667" y="103.333"/>
      <point x="390.667" y="81"/>
      <point x="328" y="81" type="curve" smooth="yes"/>
      <point x="262.667" y="81"/>
      <point x="207.667" y="102.333"/>
      <point x="163" y="145" type="curve" smooth="yes"/>
      <point x="117" y="189"/>
      <point x="94" y="244.667"/>
      <point x="94" y="312" type="curve" smooth="yes"/>
      <point x="94" y="380.667"/>
      <point x="120.667" y="438.667"/>
      <point x="174" y="486" type="curve" smooth="yes"/>
      <point x="220" y="527.333"/>
      <point x="267.667" y="547.667"/>
      <point x="317" y="547" type="curve" smooth="yes"/>
      <point x="372.333" y="547"/>
      <point x="422.333" y="528.333"/>
      <point x="467" y="491" type="curve" smooth="yes"/>
      <point x="519.667" y="447"/>
      <point x="546" y="388.333"/>
    </contour>
    <contour>
      <point x="416" y="317" type="curve" smooth="yes"/>
      <point x="416" y="366.333"/>
      <point x="408.667" y="409"/>
      <point x="394" y="445" type="curve" smooth="yes"/>
      <point x="375.333" y="489"/>
      <point x="350" y="511"/>
      <point x="318" y="511" type="curve" smooth="yes"/>
      <point x="291.333" y="511"/>
      <point x="270.667" y="489"/>
      <point x="256" y="445" type="curve" smooth="yes"/>
      <point x="243.333" y="408.333"/>
      <point x="237" y="365.667"/>
      <point x="237" y="317" type="curve" smooth="yes"/>
      <point x="237" y="268.333"/>
      <point x="244" y="226.333"/>
      <point x="258" y="191" type="curve" smooth="yes"/>
      <point x="275.333" y="147.667"/>
      <point x="299" y="126.333"/>
      <point x="329" y="127" type="curve" smooth="yes"/>
      <point x="362.333" y="127"/>
      <point x="386.333" y="148.333"/>
      <point x="401" y="191" type="curve" smooth="yes"/>
      <point x="411" y="221"/>
      <point x="416" y="263"/>
    </contour>
    <contour>
      <point x="243" y="729" type="curve" smooth="yes"/>
      <point x="257" y="729"/>
      <point x="268.833" y="724.167"/>
      <point x="278.5" y="714.5" type="curve" smooth="yes"/>
      <point x="288.167" y="704.833"/>
      <point x="293" y="693"/>
      <point x="293" y="679" type="curve" smooth="yes"/>
      <point x="293" y="665.667"/>
      <point x="288.167" y="654.167"/>
      <point x="278.5" y="644.5" type="curve" smooth="yes"/>
      <point x="268.833" y="634.833"/>
      <point x="257" y="630"/>
      <point x="243" y="630" type="curve" smooth="yes"/>
      <point x="229.667" y="630"/>
      <point x="218" y="634.833"/>
      <point x="208" y="644.5" type="curve" smooth="yes"/>
      <point x="198" y="654.167"/>
      <point x="193" y="665.667"/>
      <point x="193" y="679" type="curve" smooth="yes"/>
      <point x="193" y="693"/>
      <point x="197.833" y="704.833"/>
      <point x="207.5" y="714.5" type="curve" smooth="yes"/>
      <point x="217.167" y="724.167"/>
      <point x="229" y="729"/>
    </contour>
    <contour>
      <point x="389" y="729" type="curve" smooth="yes"/>
      <point x="403" y="729"/>
      <point x="414.667" y="724.167"/>
      <point x="424" y="714.5" type="curve" smooth="yes"/>
      <point x="433.333" y="704.833"/>
      <point x="438" y="693"/>
      <point x="438" y="679" type="curve" smooth="yes"/>
      <point x="438" y="665.667"/>
      <point x="433.333" y="654.167"/>
      <point x="424" y="644.5" type="curve" smooth="yes"/>
      <point x="414.667" y="634.833"/>
      <point x="403" y="630"/>
      <point x="389" y="630" type="curve" smooth="yes"/>
      <point x="375.667" y="630"/>
      <point x="363.833" y="634.833"/>
      <point x="353.5" y="644.5" type="curve" smooth="yes"/>
      <point x="343.167" y="654.167"/>
      <point x="338" y="665.667"/>
      <point x="338" y="679" type="curve" smooth="yes"/>
      <point x="338" y="693"/>
      <point x="343" y="704.833"/>
      <point x="353" y="714.5" type="curve" smooth="yes"/>
      <point x="363" y="724.167"/>
      <point x="375" y="729"/>
    </contour>
  </outline>
</glyph>
<glyph name="F" format="2">
  <advance width="427"/>
  <unicode hex="0046"/>
  <outline>
    <contour>
      <point x="254" y="243" type="curve" smooth="yes"/>
      <point x="168" y="243" type="line"/>
      <point x="168" y="92" type="line" smooth="yes"/>
      <point x="168" y="30"/>
      <point x="181" y="26"/>
      <point x="233" y="24" type="curve"/>
      <point x="235" y="22"/>
      <point x="237" y="16"/>
      <point x="237" y="11" type="curve" smooth="yes"/>
      <point x="237" y="7"/>
      <point x="235" y="3"/>
      <point x="233" y="1" type="curve"/>
      <point x="224" y="1"/>
      <point x="214" y="1"/>
      <point x="204" y="1" type="curve" smooth="yes"/>
      <point x="183" y="1"/>
      <point x="158" y="1"/>
      <point x="136" y="1" type="curve" smooth="yes"/>
      <point x="102" y="1"/>
      <point x="65" y="0"/>
      <point x="39" y="-1" type="curve"/>
      <point x="37" y="1"/>
      <point x="36" y="7"/>
      <point x="36" y="11" type="curve" smooth="yes"/>
      <point x="36" y="16"/>
      <point x="37" y="22"/>
      <point x="39" y="24" type="curve"/>
      <point x="91" y="26"/>
      <point x="104" y="30"/>
      <point x="104" y="92" type="curve" smooth="yes"/>
      <point x="104" y="393" type="line" smooth="yes"/>
      <point x="104" y="455"/>
      <point x="91" y="459"/>
      <point x="39" y="461" type="curve"/>
      <point x="37" y="463"/>
      <point x="36" y="469"/>
      <point x="36" y="473" type="curve" smooth="yes"/>
      <point x="36" y="478"/>
      <point x="37" y="484"/>
      <point x="39" y="486" type="curve"/>
      <point x="69" y="485"/>
      <point x="111" y="485"/>
      <point x="135" y="485" type="curve" smooth="yes"/>
      <point x="327" y="485" type="line" smooth="yes"/>
      <point x="346" y="485"/>
      <point x="349" y="486"/>
      <point x="362" y="488" type="curve" smooth="yes"/>
      <point x="364" y="488"/>
      <point x="365" y="487"/>
      <point x="365" y="485" type="curve" smooth="yes"/>
      <point x="367" y="479"/>
      <point x="377" y="408"/>
      <point x="381" y="377" type="curve"/>
      <point x="375" y="375"/>
      <point x="367" y="373"/>
      <point x="358" y="373" type="curve"/>
      <point x="342" y="425"/>
      <point x="323" y="455"/>
      <point x="243" y="455" type="curve" smooth="yes"/>
      <point x="210" y="455" type="line" smooth="yes"/>
      <point x="177" y="455"/>
      <point x="168" y="447"/>
      <point x="168" y="407" type="curve" smooth="yes"/>
      <point x="168" y="272" type="line"/>
      <point x="237" y="272" type="line" smooth="yes"/>
      <point x="301" y="272"/>
      <point x="304" y="282"/>
      <point x="306" y="323" type="curve"/>
      <point x="308" y="325"/>
      <point x="314" y="326"/>
      <point x="318" y="326" type="curve" smooth="yes"/>
      <point x="323" y="326"/>
      <point x="328" y="325"/>
      <point x="330" y="323" type="curve"/>
      <point x="329" y="303"/>
      <point x="329" y="283"/>
      <point x="329" y="258" type="curve" smooth="yes"/>
      <point x="329" y="232"/>
      <point x="329" y="211"/>
      <point x="330" y="192" type="curve"/>
      <point x="328" y="190"/>
      <point x="323" y="188"/>
      <point x="318" y="188" type="curve" smooth="yes"/>
      <point x="314" y="188"/>
      <point x="308" y="190"/>
      <point x="306" y="192" type="curve"/>
      <point x="306" y="194"/>
      <point x="306" y="196"/>
      <point x="305" y="196" type="curve" smooth="yes"/>
      <point x="303" y="196"/>
      <point x="313" y="243"/>
    </contour>
  </outline>
</glyph>
<glyph name="G" format="2">
  <advance width="605"/>
  <unicode hex="0047"/>
  <outline>
    <contour>
      <point x="331" y="500" type="curve" smooth="yes"/>
      <point x="414" y="500"/>
      <point x="442" y="475"/>
      <point x="487" y="467" type="curve"/>
      <point x="499" y="413"/>
      <point x="504" y="383"/>
      <point x="504" y="351" type="curve"/>
      <point x="496" y="348"/>
      <point x="490" y="347"/>
      <point x="482" y="347" type="curve" smooth="yes"/>
      <point x="481" y="347"/>
      <point x="480" y="347"/>
      <point x="479" y="347" type="curve"/>
      <point x="459" y="411"/>
      <point x="429" y="474"/>
      <point x="320" y="474" type="curve" smooth="yes"/>
      <point x="232" y="474"/>
      <point x="148" y="383"/>
      <point x="148" y="252" type="curve" smooth="yes"/>
      <point x="148" y="153"/>
      <point x="211" y="26"/>
      <point x="329" y="26" type="curve" smooth="yes"/>
      <point x="369" y="26"/>
      <point x="419" y="31"/>
      <point x="445" y="55" type="curve"/>
      <point x="445" y="170" type="line" smooth="yes"/>
      <point x="445" y="200"/>
      <point x="425" y="203"/>
      <point x="384" y="206" type="curve"/>
      <point x="382" y="208"/>
      <point x="381" y="214"/>
      <point x="381" y="219" type="curve" smooth="yes"/>
      <point x="381" y="224"/>
      <point x="382" y="231"/>
      <point x="384" y="233" type="curve"/>
      <point x="417" y="232"/>
      <point x="451" y="231"/>
      <point x="477" y="231" type="curve" smooth="yes"/>
      <point x="507" y="231"/>
      <point x="526" y="232"/>
      <point x="544" y="233" type="curve"/>
      <point x="546" y="231"/>
      <point x="547" y="224"/>
      <point x="547" y="219" type="curve" smooth="yes"/>
      <point x="547" y="214"/>
      <point x="546" y="208"/>
      <point x="544" y="206" type="curve"/>
      <point x="522" y="204"/>
      <point x="509" y="196"/>
      <point x="509" y="170" type="curve" smooth="yes"/>
      <point x="509" y="83" type="line" smooth="yes"/>
      <point x="509" y="75"/>
      <point x="513" y="69"/>
      <point x="521" y="62" type="curve"/>
      <point x="470" y="18"/>
      <point x="400" y="0"/>
      <point x="312" y="-0" type="curve" smooth="yes"/>
      <point x="169" y="0"/>
      <point x="76" y="102"/>
      <point x="76" y="237" type="curve" smooth="yes"/>
      <point x="76" y="402"/>
      <point x="206" y="500"/>
    </contour>
  </outline>
</glyph>
<glyph name="H" format="2">
  <advance width="636"/>
  <unicode hex="0048"/>
  <outline>
    <contour>
      <point x="510" y="92" type="line" smooth="yes"/>
      <point x="510" y="30"/>
      <point x="523" y="26"/>
      <point x="575" y="24" type="curve"/>
      <point x="577" y="22"/>
      <point x="579" y="16"/>
      <point x="579" y="11" type="curve" smooth="yes"/>
      <point x="579" y="7"/>
      <point x="577" y="1"/>
      <point x="575" y="-1" type="curve"/>
      <point x="542" y="0"/>
      <point x="506" y="1"/>
      <point x="478" y="1" type="curve" smooth="yes"/>
      <point x="450" y="1"/>
      <point x="415" y="0"/>
      <point x="381" y="-1" type="curve"/>
      <point x="379" y="1"/>
      <point x="378" y="7"/>
      <point x="378" y="11" type="curve" smooth="yes"/>
      <point x="378" y="16"/>
      <point x="379" y="22"/>
      <point x="381" y="24" type="curve"/>
      <point x="433" y="26"/>
      <point x="446" y="30"/>
      <point x="446" y="92" type="curve" smooth="yes"/>
      <point x="446" y="241" type="line"/>
      <point x="190" y="241" type="line"/>
      <point x="190" y="92" type="line" smooth="yes"/>
      <point x="190" y="30"/>
      <point x="203" y="26"/>
      <point x="255" y="24" type="curve"/>
      <point x="257" y="22"/>
      <point x="258" y="16"/>
      <point x="258" y="11" type="curve" smooth="yes"/>
      <point x="258" y="7"/>
      <point x="257" y="1"/>
      <point x="255" y="-1" type="curve"/>
      <point x="222" y="0"/>
      <point x="185" y="1"/>
      <point x="158" y="1" type="curve" smooth="yes"/>
      <point x="130" y="1"/>
      <point x="94" y="0"/>
      <point x="61" y="-1" type="curve"/>
      <point x="59" y="1"/>
      <point x="57" y="7"/>
      <point x="57" y="11" type="curve" smooth="yes"/>
      <point x="57" y="16"/>
      <point x="59" y="22"/>
      <point x="61" y="24" type="curve"/>
      <point x="113" y="26"/>
      <point x="126" y="30"/>
      <point x="126" y="92" type="curve" smooth="yes"/>
      <point x="126" y="393" type="line" smooth="yes"/>
      <point x="126" y="455"/>
      <point x="113" y="459"/>
      <point x="61" y="461" type="curve"/>
      <point x="59" y="463"/>
      <point x="57" y="469"/>
      <point x="57" y="473" type="curve" smooth="yes"/>
      <point x="57" y="478"/>
      <point x="59" y="484"/>
      <point x="61" y="486" type="curve"/>
      <point x="89" y="485"/>
      <point x="120" y="484"/>
      <point x="158" y="484" type="curve" smooth="yes"/>
      <point x="196" y="484"/>
      <point x="227" y="485"/>
      <point x="255" y="486" type="curve"/>
      <point x="257" y="484"/>
      <point x="258" y="478"/>
      <point x="258" y="473" type="curve" smooth="yes"/>
      <point x="258" y="469"/>
      <point x="257" y="463"/>
      <point x="255" y="461" type="curve"/>
      <point x="203" y="459"/>
      <point x="190" y="455"/>
      <point x="190" y="393" type="curve" smooth="yes"/>
      <point x="190" y="273" type="line"/>
      <point x="446" y="273" type="line"/>
      <point x="446" y="393" type="line" smooth="yes"/>
      <point x="446" y="455"/>
      <point x="433" y="459"/>
      <point x="381" y="461" type="curve"/>
      <point x="379" y="463"/>
      <point x="378" y="469"/>
      <point x="378" y="473" type="curve" smooth="yes"/>
      <point x="378" y="478"/>
      <point x="379" y="484"/>
      <point x="381" y="486" type="curve"/>
      <point x="414" y="485"/>
      <point x="450" y="484"/>
      <point x="478" y="484" type="curve" smooth="yes"/>
      <point x="506" y="484"/>
      <point x="544" y="485"/>
      <point x="575" y="486" type="curve"/>
      <point x="577" y="484"/>
      <point x="579" y="478"/>
      <point x="579" y="473" type="curve" smooth="yes"/>
      <point x="579" y="469"/>
      <point x="577" y="463"/>
      <point x="575" y="461" type="curve"/>
      <point x="523" y="459"/>
      <point x="510" y="455"/>
      <point x="510" y="393" type="curve" smooth="yes"/>
    </contour>
  </outline>
</glyph>
<glyph name="I" format="2">
  <advance width="520"/>
  <unicode hex="0049"/>
  <outline>
    <contour>
      <point x="122" y="729" type="qcurve" smooth="yes"/>
      <point x="143" y="729"/>
      <point x="172" y="700"/>
      <point x="172" y="679" type="qcurve" smooth="yes"/>
      <point x="172" y="659"/>
      <point x="143" y="630"/>
      <point x="122" y="630" type="qcurve" smooth="yes"/>
      <point x="102" y="630"/>
      <point x="72" y="659"/>
      <point x="72" y="679" type="qcurve" smooth="yes"/>
      <point x="72" y="700"/>
      <point x="101" y="729"/>
    </contour>
    <contour>
      <point x="268" y="729" type="qcurve" smooth="yes"/>
      <point x="289" y="729"/>
      <point x="318" y="700"/>
      <point x="318" y="679" type="qcurve" smooth="yes"/>
      <point x="318" y="659"/>
      <point x="289" y="630"/>
      <point x="268" y="630" type="qcurve" smooth="yes"/>
      <point x="248" y="630"/>
      <point x="218" y="659"/>
      <point x="218" y="679" type="qcurve" smooth="yes"/>
      <point x="218" y="700"/>
      <point x="247" y="729"/>
    </contour>
    <contour>
      <point x="110" y="121" type="line"/>
      <point x="160" y="483" type="line"/>
      <point x="234" y="483" type="line"/>
      <point x="394" y="121" type="line"/>
      <point x="458" y="121" type="line"/>
      <point x="458" y="81" type="line"/>
      <point x="69" y="81" type="line"/>
      <point x="69" y="121" type="line"/>
    </contour>
  </outline>
</glyph>
<glyph name="J" format="2">
  <advance width="279"/>
  <unicode hex="004A"/>
  <outline>
    <contour>
      <point x="168" y="392" type="curve" smooth="yes"/>
      <point x="168" y="77" type="line" smooth="yes"/>
      <point x="168" y="-30"/>
      <point x="125" y="-69"/>
      <point x="92" y="-97" type="curve" smooth="yes"/>
      <point x="61" y="-123"/>
      <point x="38" y="-130"/>
      <point x="4" y="-130" type="curve" smooth="yes"/>
      <point x="-12" y="-130"/>
      <point x="-52" y="-116"/>
      <point x="-52" y="-89" type="curve" smooth="yes"/>
      <point x="-52" y="-73"/>
      <point x="-29" y="-57"/>
      <point x="-19" y="-57" type="curve" smooth="yes"/>
      <point x="0" y="-57"/>
      <point x="7" y="-67"/>
      <point x="11" y="-76" type="curve" smooth="yes"/>
      <point x="16" y="-87"/>
      <point x="27" y="-96"/>
      <point x="41" y="-96" type="curve" smooth="yes"/>
      <point x="66" y="-96"/>
      <point x="105" y="-75"/>
      <point x="105" y="60" type="curve" smooth="yes"/>
      <point x="105" y="392" type="line" smooth="yes"/>
      <point x="105" y="454"/>
      <point x="92" y="458"/>
      <point x="32" y="460" type="curve"/>
      <point x="30" y="462"/>
      <point x="29" y="468"/>
      <point x="29" y="472" type="curve" smooth="yes"/>
      <point x="29" y="477"/>
      <point x="30" y="483"/>
      <point x="32" y="485" type="curve"/>
      <point x="70" y="484"/>
      <point x="109" y="483"/>
      <point x="136" y="483" type="curve" smooth="yes"/>
      <point x="165" y="483"/>
      <point x="198" y="484"/>
      <point x="226" y="485" type="curve"/>
      <point x="228" y="483"/>
      <point x="230" y="477"/>
      <point x="230" y="472" type="curve" smooth="yes"/>
      <point x="230" y="468"/>
      <point x="228" y="462"/>
      <point x="226" y="460" type="curve"/>
      <point x="181" y="458"/>
      <point x="168" y="454"/>
    </contour>
  </outline>
</glyph>
<glyph name="K" format="2">
  <advance width="534"/>
  <unicode hex="004B"/>
  <outline>
    <contour>
      <point x="217" y="729" type="curve" smooth="yes"/>
      <point x="231" y="729"/>
      <point x="242.667" y="724.167"/>
      <point x="252" y="714.5" type="curve" smooth="yes"/>
      <point x="261.333" y="704.833"/>
      <point x="266" y="693"/>
      <point x="266" y="679" type="curve" smooth="yes"/>
      <point x="266" y="665.667"/>
      <point x="261.333" y="654.167"/>
      <point x="252" y="644.5" type="curve" smooth="yes"/>
      <point x="242.667" y="634.833"/>
      <point x="231" y="630"/>
      <point x="217" y="630" type="curve" smooth="yes"/>
      <point x="203.667" y="630"/>
      <point x="191.833" y="634.833"/>
      <point x="181.5" y="644.5" type="curve" smooth="yes"/>
      <point x="171.167" y="654.167"/>
      <point x="166" y="665.667"/>
      <point x="166" y="679" type="curve" smooth="yes"/>
      <point x="166" y="693"/>
      <point x="171" y="704.833"/>
      <point x="181" y="714.5" type="curve" smooth="yes"/>
      <point x="191" y="724.167"/>
      <point x="203" y="729"/>
    </contour>
    <contour>
      <point x="362" y="729" type="curve" smooth="yes"/>
      <point x="376" y="729"/>
      <point x="387.833" y="724.167"/>
      <point x="397.5" y="714.5" type="curve" smooth="yes"/>
      <point x="407.167" y="704.833"/>
      <point x="412" y="693"/>
      <point x="412" y="679" type="curve" smooth="yes"/>
      <point x="412" y="665.667"/>
      <point x="407.167" y="654.167"/>
      <point x="397.5" y="644.5" type="curve" smooth="yes"/>
      <point x="387.167" y="634.833"/>
      <point x="375.333" y="630"/>
      <point x="362" y="630" type="curve" smooth="yes"/>
      <point x="348.667" y="630"/>
      <point x="337" y="634.833"/>
      <point x="327" y="644.5" type="curve" smooth="yes"/>
      <point x="317" y="654.167"/>
      <point x="312" y="665.667"/>
      <point x="312" y="679" type="curve" smooth="yes"/>
      <point x="312" y="693"/>
      <point x="316.833" y="704.833"/>
      <point x="326.5" y="714.5" type="curve" smooth="yes"/>
      <point x="336.167" y="724.167"/>
      <point x="348" y="729"/>
    </contour>
    <contour>
      <point x="437" y="81" type="line"/>
      <point x="76" y="81" type="line"/>
      <point x="76" y="121" type="line"/>
      <point x="333" y="121" type="line"/>
      <point x="334" y="392" type="line" smooth="yes"/>
      <point x="334" y="405.333"/>
      <point x="330.667" y="416.5"/>
      <point x="324" y="425.5" type="curve" smooth="yes"/>
      <point x="317.333" y="434.5"/>
      <point x="308.333" y="439"/>
      <point x="297" y="439" type="curve" smooth="yes"/>
      <point x="285.667" y="439"/>
      <point x="274" y="434"/>
      <point x="262" y="424" type="curve" smooth="yes"/>
      <point x="245.333" y="410"/>
      <point x="225.333" y="385.667"/>
      <point x="202" y="351" type="curve"/>
      <point x="86" y="351" type="line"/>
      <point x="82" y="356" type="line"/>
      <point x="90.6667" y="368"/>
      <point x="98.6667" y="378.667"/>
      <point x="106" y="388" type="curve" smooth="yes"/>
      <point x="124.667" y="411.333"/>
      <point x="150" y="440.333"/>
      <point x="182" y="475" type="curve" smooth="yes"/>
      <point x="197.333" y="491.667"/>
      <point x="213.667" y="506"/>
      <point x="231" y="518" type="curve" smooth="yes"/>
      <point x="256.333" y="535.333"/>
      <point x="278.667" y="544"/>
      <point x="298" y="544" type="curve" smooth="yes"/>
      <point x="339.333" y="544"/>
      <point x="372.833" y="530.333"/>
      <point x="398.5" y="503" type="curve" smooth="yes"/>
      <point x="424.167" y="475.667"/>
      <point x="437" y="441"/>
      <point x="437" y="399" type="curve" smooth="yes"/>
    </contour>
  </outline>
</glyph>
<glyph name="L" format="2">
  <advance width="455"/>
  <unicode hex="004C"/>
  <outline>
    <contour>
      <point x="144" y="1" type="line" smooth="yes"/>
      <point x="118" y="1"/>
      <point x="75" y="0"/>
      <point x="46" y="-1" type="curve"/>
      <point x="44" y="1"/>
      <point x="43" y="7"/>
      <point x="43" y="11" type="curve" smooth="yes"/>
      <point x="43" y="16"/>
      <point x="44" y="22"/>
      <point x="46" y="24" type="curve"/>
      <point x="98" y="26"/>
      <point x="112" y="30"/>
      <point x="112" y="92" type="curve" smooth="yes"/>
      <point x="112" y="393" type="line" smooth="yes"/>
      <point x="112" y="455"/>
      <point x="98" y="459"/>
      <point x="46" y="461" type="curve"/>
      <point x="44" y="463"/>
      <point x="43" y="469"/>
      <point x="43" y="473" type="curve" smooth="yes"/>
      <point x="43" y="478"/>
      <point x="44" y="484"/>
      <point x="46" y="486" type="curve"/>
      <point x="80" y="485"/>
      <point x="116" y="484"/>
      <point x="143" y="484" type="curve" smooth="yes"/>
      <point x="171" y="484"/>
      <point x="207" y="485"/>
      <point x="241" y="486" type="curve"/>
      <point x="243" y="484"/>
      <point x="244" y="478"/>
      <point x="244" y="473" type="curve" smooth="yes"/>
      <point x="244" y="469"/>
      <point x="243" y="463"/>
      <point x="241" y="461" type="curve"/>
      <point x="189" y="459"/>
      <point x="175" y="455"/>
      <point x="175" y="393" type="curve" smooth="yes"/>
      <point x="175" y="82" type="line" smooth="yes"/>
      <point x="175" y="44"/>
      <point x="189" y="30"/>
      <point x="218" y="30" type="curve" smooth="yes"/>
      <point x="265" y="30" type="line" smooth="yes"/>
      <point x="345" y="30"/>
      <point x="373" y="74"/>
      <point x="388" y="128" type="curve"/>
      <point x="390" y="128"/>
      <point x="392" y="129"/>
      <point x="394" y="129" type="curve" smooth="yes"/>
      <point x="401" y="129"/>
      <point x="407" y="127"/>
      <point x="412" y="124" type="curve"/>
      <point x="408" y="85"/>
      <point x="401" y="37"/>
      <point x="393" y="-1" type="curve"/>
      <point x="393" y="-1"/>
      <point x="324" y="1"/>
      <point x="304" y="1" type="curve" smooth="yes"/>
    </contour>
  </outline>
</glyph>
<glyph name="M" format="2">
  <advance width="731"/>
  <unicode hex="004D"/>
  <outline>
    <contour>
      <point x="547" y="148" type="curve" smooth="yes"/>
      <point x="530" y="400" type="line"/>
      <point x="528" y="400" type="line"/>
      <point x="360" y="3" type="line" smooth="yes"/>
      <point x="357" y="-3"/>
      <point x="353" y="-8"/>
      <point x="349" y="-8" type="curve" smooth="yes"/>
      <point x="345" y="-8"/>
      <point x="340" y="-2"/>
      <point x="338" y="3" type="curve" smooth="yes"/>
      <point x="182" y="393" type="line"/>
      <point x="181" y="393" type="line"/>
      <point x="152" y="92" type="line" smooth="yes"/>
      <point x="151" y="84"/>
      <point x="151" y="78"/>
      <point x="151" y="71" type="curve" smooth="yes"/>
      <point x="151" y="43"/>
      <point x="162" y="26"/>
      <point x="202" y="23" type="curve"/>
      <point x="204" y="21"/>
      <point x="205" y="15"/>
      <point x="205" y="10" type="curve" smooth="yes"/>
      <point x="205" y="6"/>
      <point x="204" y="2"/>
      <point x="202" y="-0" type="curve"/>
      <point x="194" y="0"/>
      <point x="186" y="0"/>
      <point x="178" y="-0" type="curve" smooth="yes"/>
      <point x="161" y="0"/>
      <point x="144" y="0"/>
      <point x="132" y="-0" type="curve" smooth="yes"/>
      <point x="114" y="0"/>
      <point x="89" y="-1"/>
      <point x="67" y="-2" type="curve"/>
      <point x="65" y="0"/>
      <point x="64" y="6"/>
      <point x="64" y="10" type="curve" smooth="yes"/>
      <point x="64" y="15"/>
      <point x="65" y="21"/>
      <point x="67" y="23" type="curve"/>
      <point x="110" y="27"/>
      <point x="119" y="45"/>
      <point x="123" y="90" type="curve" smooth="yes"/>
      <point x="153" y="399" type="line" smooth="yes"/>
      <point x="154" y="410"/>
      <point x="155" y="419"/>
      <point x="155" y="426" type="curve" smooth="yes"/>
      <point x="155" y="456"/>
      <point x="144" y="458"/>
      <point x="102" y="460" type="curve"/>
      <point x="100" y="462"/>
      <point x="98" y="468"/>
      <point x="98" y="472" type="curve" smooth="yes"/>
      <point x="98" y="477"/>
      <point x="100" y="483"/>
      <point x="102" y="485" type="curve"/>
      <point x="211" y="483" type="line"/>
      <point x="365" y="102" type="line" smooth="yes"/>
      <point x="367" y="96"/>
      <point x="369" y="93"/>
      <point x="371" y="93" type="curve" smooth="yes"/>
      <point x="373" y="93"/>
      <point x="375" y="95"/>
      <point x="378" y="103" type="curve" smooth="yes"/>
      <point x="536" y="483" type="line"/>
      <point x="635" y="485" type="line"/>
      <point x="637" y="483"/>
      <point x="638" y="477"/>
      <point x="638" y="472" type="curve" smooth="yes"/>
      <point x="638" y="468"/>
      <point x="637" y="462"/>
      <point x="635" y="460" type="curve"/>
      <point x="592" y="458"/>
      <point x="582" y="449"/>
      <point x="582" y="423" type="curve" smooth="yes"/>
      <point x="582" y="418"/>
      <point x="583" y="413"/>
      <point x="583" y="406" type="curve" smooth="yes"/>
      <point x="606" y="90" type="line" smooth="yes"/>
      <point x="610" y="28"/>
      <point x="612" y="25"/>
      <point x="663" y="23" type="curve"/>
      <point x="665" y="21"/>
      <point x="667" y="15"/>
      <point x="667" y="10" type="curve" smooth="yes"/>
      <point x="667" y="6"/>
      <point x="665" y="0"/>
      <point x="663" y="-2" type="curve"/>
      <point x="638" y="-1"/>
      <point x="604" y="0"/>
      <point x="582" y="-0" type="curve" smooth="yes"/>
      <point x="560" y="0"/>
      <point x="529" y="-1"/>
      <point x="501" y="-2" type="curve"/>
      <point x="499" y="0"/>
      <point x="498" y="6"/>
      <point x="498" y="10" type="curve" smooth="yes"/>
      <point x="498" y="15"/>
      <point x="499" y="21"/>
      <point x="501" y="23" type="curve"/>
      <point x="541" y="25"/>
      <point x="550" y="26"/>
      <point x="550" y="59" type="curve" smooth="yes"/>
      <point x="550" y="67"/>
      <point x="547" y="138"/>
    </contour>
  </outline>
</glyph>
<glyph name="N" format="2">
  <advance width="619"/>
  <unicode hex="004E"/>
  <outline>
    <contour>
      <point x="460" y="385" type="line" smooth="yes"/>
      <point x="460" y="454"/>
      <point x="448" y="455"/>
      <point x="396" y="460" type="curve"/>
      <point x="394" y="462"/>
      <point x="393" y="468"/>
      <point x="393" y="472" type="curve" smooth="yes"/>
      <point x="393" y="477"/>
      <point x="394" y="483"/>
      <point x="396" y="485" type="curve"/>
      <point x="429" y="484"/>
      <point x="464" y="483"/>
      <point x="480" y="483" type="curve" smooth="yes"/>
      <point x="498" y="483"/>
      <point x="533" y="484"/>
      <point x="564" y="485" type="curve"/>
      <point x="566" y="483"/>
      <point x="567" y="477"/>
      <point x="567" y="472" type="curve" smooth="yes"/>
      <point x="567" y="468"/>
      <point x="566" y="462"/>
      <point x="564" y="460" type="curve"/>
      <point x="512" y="455"/>
      <point x="498" y="451"/>
      <point x="498" y="384" type="curve" smooth="yes"/>
      <point x="498" y="15" type="line" smooth="yes"/>
      <point x="498" y="1"/>
      <point x="491" y="-8"/>
      <point x="481" y="-8" type="curve" smooth="yes"/>
      <point x="469" y="-8"/>
      <point x="459" y="-1"/>
      <point x="451" y="10" type="curve" smooth="yes"/>
      <point x="190" y="341" type="line" smooth="yes"/>
      <point x="177" y="357"/>
      <point x="168" y="366"/>
      <point x="164" y="366" type="curve" smooth="yes"/>
      <point x="158" y="366"/>
      <point x="158" y="355"/>
      <point x="158" y="329" type="curve" smooth="yes"/>
      <point x="158" y="99" type="line" smooth="yes"/>
      <point x="158" y="31"/>
      <point x="171" y="28"/>
      <point x="223" y="23" type="curve"/>
      <point x="225" y="21"/>
      <point x="226" y="15"/>
      <point x="226" y="10" type="curve" smooth="yes"/>
      <point x="226" y="6"/>
      <point x="225" y="2"/>
      <point x="223" y="-0" type="curve"/>
      <point x="213" y="0"/>
      <point x="202" y="0"/>
      <point x="192" y="-0" type="curve" smooth="yes"/>
      <point x="171" y="0"/>
      <point x="151" y="0"/>
      <point x="140" y="-0" type="curve" smooth="yes"/>
      <point x="128" y="0"/>
      <point x="109" y="0"/>
      <point x="88" y="-0" type="curve" smooth="yes"/>
      <point x="78" y="0"/>
      <point x="66" y="0"/>
      <point x="56" y="-0" type="curve"/>
      <point x="54" y="2"/>
      <point x="52" y="6"/>
      <point x="52" y="10" type="curve" smooth="yes"/>
      <point x="52" y="15"/>
      <point x="54" y="21"/>
      <point x="56" y="23" type="curve"/>
      <point x="108" y="28"/>
      <point x="121" y="32"/>
      <point x="121" y="99" type="curve" smooth="yes"/>
      <point x="121" y="412" type="line"/>
      <point x="117" y="432"/>
      <point x="94" y="458"/>
      <point x="62" y="460" type="curve"/>
      <point x="60" y="462"/>
      <point x="58" y="468"/>
      <point x="58" y="472" type="curve" smooth="yes"/>
      <point x="58" y="477"/>
      <point x="60" y="483"/>
      <point x="62" y="485" type="curve"/>
      <point x="163" y="483" type="line"/>
      <point x="420" y="157" type="line" smooth="yes"/>
      <point x="442" y="129"/>
      <point x="453" y="116"/>
      <point x="456" y="116" type="curve" smooth="yes"/>
      <point x="461" y="116"/>
      <point x="462" y="124"/>
      <point x="462" y="138" type="curve" smooth="yes"/>
    </contour>
  </outline>
</glyph>
<glyph name="O" format="2">
  <advance width="756"/>
  <unicode hex="004F"/>
  <outline>
    <contour>
      <point x="478" y="48" type="qcurve" smooth="yes"/>
      <point x="521" y="8" type="line"/>
      <point x="604" y="-58"/>
      <point x="700" y="-121" type="qcurve" smooth="yes"/>
      <point x="771" y="-168"/>
      <point x="855" y="-216" type="qcurve" smooth="yes"/>
      <point x="907" y="-246"/>
      <point x="989" y="-291" type="qcurve"/>
      <point x="988" y="-291"/>
      <point x="984" y="-308" type="qcurve"/>
      <point x="870" y="-266"/>
      <point x="757" y="-223" type="qcurve" smooth="yes"/>
      <point x="611" y="-167"/>
      <point x="495" y="-115" type="qcurve" smooth="yes"/>
      <point x="350" y="-50"/>
      <point x="264" y="6" type="qcurve" smooth="yes"/>
      <point x="211" y="40"/>
      <point x="181" y="71" type="qcurve" smooth="yes"/>
      <point x="143" y="110"/>
      <point x="144" y="144" type="qcurve" smooth="yes"/>
      <point x="144" y="157"/>
      <point x="150" y="175"/>
      <point x="160" y="187" type="qcurve" smooth="yes"/>
      <point x="174" y="203"/>
      <point x="205" y="217"/>
      <point x="222" y="217" type="qcurve" smooth="yes"/>
      <point x="262" y="217"/>
      <point x="319" y="175" type="qcurve" smooth="yes"/>
      <point x="352" y="148"/>
      <point x="364" y="139" type="qcurve" smooth="yes"/>
      <point x="389" y="117"/>
      <point x="422" y="91" type="qcurve" smooth="yes"/>
      <point x="471" y="54"/>
    </contour>
    <contour>
      <point x="383" y="384" type="qcurve" smooth="yes"/>
      <point x="404" y="384"/>
      <point x="432" y="355"/>
      <point x="432" y="333" type="qcurve" smooth="yes"/>
      <point x="432" y="313"/>
      <point x="404" y="284"/>
      <point x="383" y="284" type="qcurve" smooth="yes"/>
      <point x="363" y="284"/>
      <point x="332" y="313"/>
      <point x="332" y="333" type="qcurve" smooth="yes"/>
      <point x="332" y="354"/>
      <point x="362" y="384"/>
    </contour>
    <contour>
      <point x="528" y="384" type="qcurve" smooth="yes"/>
      <point x="549" y="384"/>
      <point x="578" y="355"/>
      <point x="578" y="333" type="qcurve" smooth="yes"/>
      <point x="578" y="313"/>
      <point x="563.5" y="298.5" type="qcurve" smooth="yes"/>
      <point x="548" y="284"/>
      <point x="508" y="284"/>
      <point x="478" y="313"/>
      <point x="478" y="333" type="qcurve" smooth="yes"/>
      <point x="478" y="354"/>
      <point x="507" y="384"/>
    </contour>
  </outline>
</glyph>
<glyph name="P" format="2">
  <advance width="460"/>
  <unicode hex="0050"/>
  <outline>
    <contour>
      <point x="177.125" y="416.75" type="curve" smooth="yes"/>
      <point x="177.125" y="242" type="line"/>
      <point x="185.375" y="239.75"/>
      <point x="215.375" y="238.25"/>
      <point x="234.125" y="238.25" type="curve" smooth="yes"/>
      <point x="306.875" y="238.25"/>
      <point x="345.875" y="271.25"/>
      <point x="345.875" y="352.25" type="curve" smooth="yes"/>
      <point x="345.875" y="447.5"/>
      <point x="294.125" y="464.75"/>
      <point x="242.375" y="464.75" type="curve" smooth="yes"/>
      <point x="188.375" y="464.75"/>
      <point x="177.125" y="438.5"/>
    </contour>
    <contour>
      <point x="113.375" y="393.5" type="line" smooth="yes"/>
      <point x="113.375" y="455.75"/>
      <point x="100.625" y="459.5"/>
      <point x="48.125" y="461.75" type="curve"/>
      <point x="45.875" y="464"/>
      <point x="44.375" y="469.25"/>
      <point x="44.375" y="473.75" type="curve" smooth="yes"/>
      <point x="44.375" y="479"/>
      <point x="45.875" y="484.25"/>
      <point x="48.125" y="486.5" type="curve"/>
      <point x="78.125" y="485.75"/>
      <point x="117.125" y="485"/>
      <point x="144.875" y="485" type="curve" smooth="yes"/>
      <point x="174.875" y="485"/>
      <point x="219.125" y="490.25"/>
      <point x="247.625" y="490.25" type="curve" smooth="yes"/>
      <point x="386.375" y="490.25"/>
      <point x="415.625" y="410"/>
      <point x="415.625" y="365.75" type="curve" smooth="yes"/>
      <point x="415.625" y="302"/>
      <point x="374.375" y="212.75"/>
      <point x="237.875" y="212.75" type="curve" smooth="yes"/>
      <point x="211.625" y="212.75"/>
      <point x="193.625" y="215"/>
      <point x="177.125" y="220.25" type="curve"/>
      <point x="177.125" y="92.75" type="line" smooth="yes"/>
      <point x="177.125" y="30.5"/>
      <point x="195.125" y="27.5"/>
      <point x="253.625" y="24.5" type="curve"/>
      <point x="255.875" y="22.25"/>
      <point x="257.375" y="17"/>
      <point x="257.375" y="11.75" type="curve" smooth="yes"/>
      <point x="257.375" y="7.25"/>
      <point x="255.875" y="3.5"/>
      <point x="253.625" y="1.25" type="curve"/>
      <point x="240.875" y="1.25"/>
      <point x="228.125" y="1.25"/>
      <point x="214.625" y="1.25" type="curve" smooth="yes"/>
      <point x="188.375" y="1.25"/>
      <point x="162.875" y="1.25"/>
      <point x="145.625" y="1.25" type="curve" smooth="yes"/>
      <point x="118.625" y="1.25"/>
      <point x="81.875" y="0.5"/>
      <point x="48.125" y="-0.25" type="curve"/>
      <point x="45.875" y="2"/>
      <point x="44.375" y="7.25"/>
      <point x="44.375" y="11.75" type="curve" smooth="yes"/>
      <point x="44.375" y="17"/>
      <point x="45.875" y="22.25"/>
      <point x="48.125" y="24.5" type="curve"/>
      <point x="100.625" y="26.75"/>
      <point x="113.375" y="30.5"/>
      <point x="113.375" y="92.75" type="curve" smooth="yes"/>
    </contour>
  </outline>
</glyph>
<glyph name="Q" format="2">
  <advance width="935"/>
  <unicode hex="0051"/>
  <outline>
    <contour>
      <point x="741" y="322" type="curve" smooth="yes"/>
      <point x="741" y="358"/>
      <point x="733" y="389.667"/>
      <point x="717" y="417" type="curve" smooth="yes"/>
      <point x="697.667" y="450.333"/>
      <point x="672.333" y="467"/>
      <point x="641" y="467" type="curve" smooth="yes"/>
      <point x="618.333" y="467"/>
      <point x="597.333" y="455.667"/>
      <point x="578" y="433" type="curve" smooth="yes"/>
      <point x="562" y="413.667"/>
      <point x="547.333" y="385"/>
      <point x="534" y="347" type="curve" smooth="yes"/>
      <point x="530.667" y="339"/>
      <point x="527" y="325.333"/>
      <point x="523" y="306" type="curve" smooth="yes"/>
      <point x="513.667" y="263.333"/>
      <point x="509" y="228.667"/>
      <point x="509" y="202" type="curve" smooth="yes"/>
      <point x="509" y="177.333"/>
      <point x="514.5" y="159.833"/>
      <point x="525.5" y="149.5" type="curve" smooth="yes"/>
      <point x="536.5" y="139.167"/>
      <point x="553.333" y="134"/>
      <point x="576" y="134" type="curve" smooth="yes"/>
      <point x="628" y="134"/>
      <point x="669" y="152.667"/>
      <point x="699" y="190" type="curve" smooth="yes"/>
      <point x="727" y="224.667"/>
      <point x="741" y="268.667"/>
    </contour>
    <contour>
      <point x="429" y="202" type="curve" smooth="yes"/>
      <point x="429" y="224.667"/>
      <point x="426" y="251"/>
      <point x="420" y="281" type="curve" smooth="yes"/>
      <point x="414" y="311"/>
      <point x="408.333" y="333"/>
      <point x="403" y="347" type="curve" smooth="yes"/>
      <point x="389.667" y="384.333"/>
      <point x="375" y="413"/>
      <point x="359" y="433" type="curve" smooth="yes"/>
      <point x="341" y="455.667"/>
      <point x="320.333" y="467"/>
      <point x="297" y="467" type="curve" smooth="yes"/>
      <point x="265.667" y="467"/>
      <point x="240.667" y="450.667"/>
      <point x="222" y="418" type="curve" smooth="yes"/>
      <point x="205.333" y="389.333"/>
      <point x="197" y="357.333"/>
      <point x="197" y="322" type="curve" smooth="yes"/>
      <point x="197" y="268.667"/>
      <point x="210.667" y="225"/>
      <point x="238" y="191" type="curve" smooth="yes"/>
      <point x="268" y="153"/>
      <point x="309.333" y="134"/>
      <point x="362" y="134" type="curve" smooth="yes"/>
      <point x="384" y="134"/>
      <point x="400.667" y="139.333"/>
      <point x="412" y="150" type="curve" smooth="yes"/>
      <point x="423.333" y="160.667"/>
      <point x="429" y="178"/>
    </contour>
    <contour>
      <point x="676" y="81" type="curve" smooth="yes"/>
      <point x="247" y="81" type="line" smooth="yes"/>
      <point x="213.667" y="81"/>
      <point x="182.667" y="105"/>
      <point x="154" y="153" type="curve" smooth="yes"/>
      <point x="128.667" y="195"/>
      <point x="113.667" y="237"/>
      <point x="109" y="279" type="curve" smooth="yes"/>
      <point x="108.333" y="285.667"/>
      <point x="107.833" y="291.333"/>
      <point x="107.5" y="296" type="curve" smooth="yes"/>
      <point x="107.167" y="300.667"/>
      <point x="107" y="304.333"/>
      <point x="107" y="307" type="curve" smooth="yes"/>
      <point x="107" y="356.333"/>
      <point x="118" y="401"/>
      <point x="140" y="441" type="curve" smooth="yes"/>
      <point x="162" y="481"/>
      <point x="189.333" y="510.333"/>
      <point x="222" y="529" type="curve" smooth="yes"/>
      <point x="230.667" y="533.667"/>
      <point x="243.5" y="537.5"/>
      <point x="260.5" y="540.5" type="curve" smooth="yes"/>
      <point x="277.5" y="543.5"/>
      <point x="291.667" y="545"/>
      <point x="303" y="545" type="curve" smooth="yes"/>
      <point x="331" y="545"/>
      <point x="359.667" y="530.333"/>
      <point x="389" y="501" type="curve" smooth="yes"/>
      <point x="409" y="480.333"/>
      <point x="428.333" y="453"/>
      <point x="447" y="419" type="curve" smooth="yes"/>
      <point x="453.667" y="404.333"/>
      <point x="461" y="389.667"/>
      <point x="469" y="375" type="curve"/>
      <point x="475.667" y="389.667"/>
      <point x="482.667" y="404.333"/>
      <point x="490" y="419" type="curve" smooth="yes"/>
      <point x="509.333" y="453"/>
      <point x="529" y="480.333"/>
      <point x="549" y="501" type="curve" smooth="yes"/>
      <point x="577.667" y="530.333"/>
      <point x="606" y="545"/>
      <point x="634" y="545" type="curve" smooth="yes"/>
      <point x="653.333" y="545"/>
      <point x="668.833" y="544"/>
      <point x="680.5" y="542" type="curve" smooth="yes"/>
      <point x="692.167" y="540"/>
      <point x="704" y="535.667"/>
      <point x="716" y="529" type="curve" smooth="yes"/>
      <point x="752.667" y="507"/>
      <point x="780" y="478.333"/>
      <point x="798" y="443" type="curve" smooth="yes"/>
      <point x="818" y="403.667"/>
      <point x="828.333" y="354.333"/>
      <point x="829" y="295" type="curve" smooth="yes"/>
      <point x="829" y="259"/>
      <point x="811.667" y="215"/>
      <point x="777" y="163" type="curve" smooth="yes"/>
      <point x="740.333" y="108.333"/>
      <point x="706.667" y="81"/>
    </contour>
    <contour>
      <point x="391" y="729" type="curve" smooth="yes"/>
      <point x="405" y="729"/>
      <point x="416.833" y="724.167"/>
      <point x="426.5" y="714.5" type="curve" smooth="yes"/>
      <point x="436.167" y="704.833"/>
      <point x="441" y="693"/>
      <point x="441" y="679" type="curve" smooth="yes"/>
      <point x="441" y="665.667"/>
      <point x="436.167" y="654.167"/>
      <point x="426.5" y="644.5" type="curve" smooth="yes"/>
      <point x="416.833" y="634.833"/>
      <point x="405" y="630"/>
      <point x="391" y="630" type="curve" smooth="yes"/>
      <point x="377.667" y="630"/>
      <point x="366" y="634.833"/>
      <point x="356" y="644.5" type="curve" smooth="yes"/>
      <point x="346" y="654.167"/>
      <point x="341" y="665.667"/>
      <point x="341" y="679" type="curve" smooth="yes"/>
      <point x="341" y="693"/>
      <point x="345.833" y="704.833"/>
      <point x="355.5" y="714.5" type="curve" smooth="yes"/>
      <point x="365.167" y="724.167"/>
      <point x="377" y="729"/>
    </contour>
    <contour>
      <point x="537" y="729" type="curve" smooth="yes"/>
      <point x="551" y="729"/>
      <point x="562.667" y="724.167"/>
      <point x="572" y="714.5" type="curve" smooth="yes"/>
      <point x="581.333" y="704.833"/>
      <point x="586" y="693"/>
      <point x="586" y="679" type="curve" smooth="yes"/>
      <point x="586" y="665.667"/>
      <point x="581.333" y="654.167"/>
      <point x="572" y="644.5" type="curve" smooth="yes"/>
      <point x="562.667" y="634.833"/>
      <point x="551" y="630"/>
      <point x="537" y="630" type="curve" smooth="yes"/>
      <point x="523.667" y="630"/>
      <point x="511.833" y="634.833"/>
      <point x="501.5" y="644.5" type="curve" smooth="yes"/>
      <point x="491.167" y="654.167"/>
      <point x="486" y="665.667"/>
      <point x="486" y="679" type="curve" smooth="yes"/>
      <point x="486" y="693"/>
      <point x="491" y="704.833"/>
      <point x="501" y="714.5" type="curve" smooth="yes"/>
      <point x="511" y="724.167"/>
      <point x="523" y="729"/>
    </contour>
  </outline>
</glyph>
<glyph name="R" format="2">
  <advance width="684"/>
  <unicode hex="0052"/>
  <outline>
    <contour>
      <point x="620" y="81" type="line"/>
      <point x="104" y="81" type="line"/>
      <point x="104" y="121" type="line"/>
      <point x="457" y="121" type="line"/>
      <point x="184" y="393" type="line" smooth="yes"/>
      <point x="156" y="421"/>
      <point x="142" y="436" type="qcurve" smooth="yes"/>
      <point x="104" y="478"/>
      <point x="104" y="492" type="qcurve" smooth="yes"/>
      <point x="104" y="522"/>
      <point x="134" y="535" type="qcurve" smooth="yes"/>
      <point x="153" y="543"/>
      <point x="187" y="543" type="qcurve" smooth="yes"/>
      <point x="337" y="543" type="line"/>
      <point x="337" y="453" type="line"/>
      <point x="256" y="453" type="line" smooth="yes"/>
      <point x="252" y="453"/>
      <point x="245" y="447"/>
      <point x="245" y="444" type="qcurve" smooth="yes"/>
      <point x="245" y="440"/>
      <point x="331" y="356" type="qcurve" smooth="yes"/>
      <point x="399" y="289"/>
      <point x="490" y="203" type="qcurve" smooth="yes"/>
      <point x="533" y="161"/>
      <point x="576" y="120" type="qcurve" smooth="yes"/>
    </contour>
    <contour>
      <point x="278" y="729" type="qcurve" smooth="yes"/>
      <point x="299" y="729"/>
      <point x="328" y="700"/>
      <point x="328" y="679" type="qcurve" smooth="yes"/>
      <point x="328" y="659"/>
      <point x="299" y="630"/>
      <point x="278" y="630" type="qcurve" smooth="yes"/>
      <point x="258" y="630"/>
      <point x="228" y="659"/>
      <point x="228" y="679" type="qcurve" smooth="yes"/>
      <point x="228" y="700"/>
      <point x="257" y="729"/>
    </contour>
    <contour>
      <point x="424" y="729" type="qcurve" smooth="yes"/>
      <point x="445" y="729"/>
      <point x="473" y="700"/>
      <point x="473" y="679" type="qcurve" smooth="yes"/>
      <point x="473" y="659"/>
      <point x="444" y="630"/>
      <point x="424" y="630" type="qcurve" smooth="yes"/>
      <point x="404" y="630"/>
      <point x="373" y="659"/>
      <point x="373" y="679" type="qcurve" smooth="yes"/>
      <point x="373" y="700"/>
      <point x="403" y="729"/>
    </contour>
  </outline>
</glyph>
<glyph name="S" format="2">
  <advance width="754"/>
  <unicode hex="0053"/>
  <outline>
    <contour>
      <point x="271" y="729" type="qcurve" smooth="yes"/>
      <point x="292" y="729"/>
      <point x="320" y="700"/>
      <point x="320" y="679" type="qcurve" smooth="yes"/>
      <point x="320" y="659"/>
      <point x="292" y="630"/>
      <point x="271" y="630" type="qcurve" smooth="yes"/>
      <point x="251" y="630"/>
      <point x="220" y="659"/>
      <point x="220" y="679" type="qcurve" smooth="yes"/>
      <point x="220" y="700"/>
      <point x="250" y="729"/>
    </contour>
    <contour>
      <point x="416" y="729" type="qcurve" smooth="yes"/>
      <point x="437" y="729"/>
      <point x="466" y="700"/>
      <point x="466" y="679" type="qcurve" smooth="yes"/>
      <point x="466" y="659"/>
      <point x="437" y="630"/>
      <point x="416" y="630" type="qcurve" smooth="yes"/>
      <point x="396" y="630"/>
      <point x="366" y="659"/>
      <point x="366" y="679" type="qcurve" smooth="yes"/>
      <point x="366" y="700"/>
      <point x="395" y="729"/>
    </contour>
    <contour>
      <point x="156" y="121" type="line"/>
      <point x="135" y="202"/>
      <point x="118" y="274" type="qcurve" smooth="yes"/>
      <point x="96" y="372"/>
      <point x="96" y="395" type="qcurve" smooth="yes"/>
      <point x="96" y="480"/>
      <point x="116" y="513" type="qcurve" smooth="yes"/>
      <point x="134" y="543"/>
      <point x="169" y="543" type="qcurve" smooth="yes"/>
      <point x="516" y="543" type="line" smooth="yes"/>
      <point x="540" y="543"/>
      <point x="564" y="483" type="qcurve" smooth="yes"/>
      <point x="586" y="429"/>
      <point x="586" y="395" type="qcurve" smooth="yes"/>
      <point x="586" y="331"/>
      <point x="525" y="263" type="qcurve" smooth="yes"/>
      <point x="498" y="235"/>
      <point x="472" y="208" type="qcurve"/>
      <point x="464" y="208" type="line"/>
      <point x="428" y="267" type="line"/>
      <point x="450" y="300"/>
      <point x="461" y="318" type="qcurve" smooth="yes"/>
      <point x="494" y="374"/>
      <point x="494" y="396" type="qcurve" smooth="yes"/>
      <point x="494" y="421"/>
      <point x="472" y="469"/>
      <point x="464" y="469" type="qcurve" smooth="yes"/>
      <point x="209" y="469" type="line" smooth="yes"/>
      <point x="191" y="469"/>
      <point x="183" y="425" type="qcurve" smooth="yes"/>
      <point x="180" y="408"/>
      <point x="180" y="395" type="qcurve" smooth="yes"/>
      <point x="180" y="369"/>
      <point x="236" y="136"/>
      <point x="248" y="115" type="qcurve"/>
      <point x="260" y="81" type="line"/>
      <point x="65" y="81" type="line"/>
      <point x="65" y="121" type="line"/>
    </contour>
  </outline>
</glyph>
<glyph name="T" format="2">
  <advance width="680"/>
  <unicode hex="0054"/>
  <outline>
    <contour>
      <point x="585" y="394" type="qcurve" smooth="yes"/>
      <point x="585" y="372"/>
      <point x="567" y="293" type="qcurve" smooth="yes"/>
      <point x="560" y="261"/>
      <point x="533" y="152" type="qcurve" smooth="yes"/>
      <point x="523" y="116"/>
      <point x="514" y="80" type="qcurve"/>
      <point x="420" y="80" type="line"/>
      <point x="106" y="80" type="line"/>
      <point x="106" y="121" type="line"/>
      <point x="433" y="121" type="line"/>
      <point x="445" y="143"/>
      <point x="501" y="368"/>
      <point x="501" y="394" type="qcurve" smooth="yes"/>
      <point x="501" y="415"/>
      <point x="495" y="437" type="qcurve" smooth="yes"/>
      <point x="487" y="469"/>
      <point x="471" y="469" type="qcurve" smooth="yes"/>
      <point x="216" y="469" type="line" smooth="yes"/>
      <point x="209" y="469"/>
      <point x="186" y="419"/>
      <point x="186" y="396" type="qcurve" smooth="yes"/>
      <point x="186" y="378"/>
      <point x="229" y="304"/>
      <point x="252" y="266" type="qcurve"/>
      <point x="252" y="260"/>
      <point x="244" y="248" type="qcurve" smooth="yes"/>
      <point x="223" y="218"/>
      <point x="217" y="208" type="qcurve"/>
      <point x="209" y="208" type="line"/>
      <point x="174" y="246"/>
      <point x="138" y="285" type="qcurve"/>
      <point x="95" y="340"/>
      <point x="94" y="394" type="qcurve" smooth="yes"/>
      <point x="94" y="427"/>
      <point x="140" y="542"/>
      <point x="164" y="542" type="qcurve" smooth="yes"/>
      <point x="511" y="542" type="line" smooth="yes"/>
      <point x="556" y="542"/>
      <point x="573" y="493" type="qcurve" smooth="yes"/>
      <point x="585" y="458"/>
    </contour>
    <contour>
      <point x="274" y="729" type="qcurve" smooth="yes"/>
      <point x="295" y="729"/>
      <point x="323" y="700"/>
      <point x="323" y="678" type="qcurve" smooth="yes"/>
      <point x="323" y="658"/>
      <point x="294" y="630"/>
      <point x="274" y="630" type="qcurve" smooth="yes"/>
      <point x="254" y="630"/>
      <point x="223" y="658"/>
      <point x="223" y="678" type="qcurve" smooth="yes"/>
      <point x="223" y="699"/>
      <point x="253" y="729"/>
    </contour>
    <contour>
      <point x="419" y="729" type="qcurve" smooth="yes"/>
      <point x="440" y="729"/>
      <point x="469" y="700"/>
      <point x="469" y="678" type="qcurve" smooth="yes"/>
      <point x="469" y="658"/>
      <point x="440" y="630"/>
      <point x="419" y="630" type="qcurve" smooth="yes"/>
      <point x="399" y="630"/>
      <point x="369" y="658"/>
      <point x="369" y="678" type="qcurve" smooth="yes"/>
      <point x="369" y="699"/>
      <point x="398" y="729"/>
    </contour>
  </outline>
</glyph>
<glyph name="U" format="2">
  <advance width="579"/>
  <unicode hex="0055"/>
  <outline>
    <contour>
      <point x="170" y="400" type="curve" smooth="yes"/>
      <point x="170" y="207" type="line" smooth="yes"/>
      <point x="170" y="158"/>
      <point x="171" y="101"/>
      <point x="208" y="66" type="curve" smooth="yes"/>
      <point x="230" y="44"/>
      <point x="262" y="31"/>
      <point x="298" y="31" type="curve" smooth="yes"/>
      <point x="425" y="31"/>
      <point x="436" y="131"/>
      <point x="436" y="215" type="curve" smooth="yes"/>
      <point x="436" y="400" type="line" smooth="yes"/>
      <point x="436" y="461"/>
      <point x="423" y="463"/>
      <point x="367" y="468" type="curve"/>
      <point x="365" y="470"/>
      <point x="364" y="476"/>
      <point x="364" y="480" type="curve" smooth="yes"/>
      <point x="364" y="485"/>
      <point x="365" y="491"/>
      <point x="367" y="493" type="curve"/>
      <point x="378" y="493"/>
      <point x="390" y="493"/>
      <point x="401" y="493" type="curve" smooth="yes"/>
      <point x="423" y="493"/>
      <point x="443" y="493"/>
      <point x="454" y="493" type="curve" smooth="yes"/>
      <point x="465" y="493"/>
      <point x="483" y="493"/>
      <point x="502" y="493" type="curve" smooth="yes"/>
      <point x="511" y="493"/>
      <point x="520" y="493"/>
      <point x="530" y="493" type="curve"/>
      <point x="532" y="491"/>
      <point x="533" y="485"/>
      <point x="533" y="480" type="curve" smooth="yes"/>
      <point x="533" y="476"/>
      <point x="532" y="470"/>
      <point x="530" y="468" type="curve"/>
      <point x="485" y="463"/>
      <point x="472" y="460"/>
      <point x="472" y="400" type="curve" smooth="yes"/>
      <point x="472" y="229" type="line" smooth="yes"/>
      <point x="472" y="95"/>
      <point x="436" y="0"/>
      <point x="282" y="0" type="curve" smooth="yes"/>
      <point x="205" y="0"/>
      <point x="106" y="29"/>
      <point x="106" y="182" type="curve" smooth="yes"/>
      <point x="106" y="400" type="line" smooth="yes"/>
      <point x="106" y="462"/>
      <point x="94" y="466"/>
      <point x="49" y="468" type="curve"/>
      <point x="47" y="470"/>
      <point x="46" y="476"/>
      <point x="46" y="480" type="curve" smooth="yes"/>
      <point x="46" y="485"/>
      <point x="47" y="491"/>
      <point x="49" y="493" type="curve"/>
      <point x="78" y="492"/>
      <point x="109" y="491"/>
      <point x="138" y="491" type="curve" smooth="yes"/>
      <point x="167" y="491"/>
      <point x="204" y="492"/>
      <point x="239" y="493" type="curve"/>
      <point x="241" y="491"/>
      <point x="242" y="485"/>
      <point x="242" y="480" type="curve" smooth="yes"/>
      <point x="242" y="476"/>
      <point x="241" y="470"/>
      <point x="239" y="468" type="curve"/>
      <point x="181" y="466"/>
      <point x="170" y="462"/>
    </contour>
  </outline>
</glyph>
<glyph name="V" format="2">
  <advance width="571"/>
  <unicode hex="0056"/>
  <outline>
    <contour>
      <point x="378" y="470" type="curve"/>
      <point x="376" y="472"/>
      <point x="375" y="478"/>
      <point x="375" y="482" type="curve" smooth="yes"/>
      <point x="375" y="487"/>
      <point x="376" y="493"/>
      <point x="378" y="495" type="curve"/>
      <point x="409" y="494"/>
      <point x="443" y="493"/>
      <point x="460" y="493" type="curve" smooth="yes"/>
      <point x="477" y="493"/>
      <point x="504" y="494"/>
      <point x="526" y="495" type="curve"/>
      <point x="528" y="493"/>
      <point x="529" y="487"/>
      <point x="529" y="482" type="curve" smooth="yes"/>
      <point x="529" y="478"/>
      <point x="528" y="472"/>
      <point x="526" y="470" type="curve"/>
      <point x="479" y="465"/>
      <point x="466" y="435"/>
      <point x="452" y="400" type="curve" smooth="yes"/>
      <point x="297" y="18" type="line" smooth="yes"/>
      <point x="293" y="8"/>
      <point x="287" y="0"/>
      <point x="279" y="0" type="curve" smooth="yes"/>
      <point x="271" y="0"/>
      <point x="266" y="6"/>
      <point x="262" y="18" type="curve" smooth="yes"/>
      <point x="114" y="402" type="line" smooth="yes"/>
      <point x="94" y="454"/>
      <point x="87" y="466"/>
      <point x="46" y="470" type="curve"/>
      <point x="44" y="472"/>
      <point x="42" y="478"/>
      <point x="42" y="483" type="curve" smooth="yes"/>
      <point x="42" y="487"/>
      <point x="44" y="493"/>
      <point x="46" y="495" type="curve"/>
      <point x="71" y="494"/>
      <point x="97" y="493"/>
      <point x="124" y="493" type="curve" smooth="yes"/>
      <point x="151" y="493"/>
      <point x="184" y="494"/>
      <point x="214" y="495" type="curve"/>
      <point x="216" y="493"/>
      <point x="217" y="487"/>
      <point x="217" y="482" type="curve" smooth="yes"/>
      <point x="217" y="478"/>
      <point x="216" y="472"/>
      <point x="214" y="470" type="curve"/>
      <point x="180" y="466"/>
      <point x="167" y="460"/>
      <point x="167" y="444" type="curve" smooth="yes"/>
      <point x="167" y="436"/>
      <point x="171" y="425"/>
      <point x="176" y="410" type="curve" smooth="yes"/>
      <point x="295" y="105" type="line"/>
      <point x="299" y="105" type="line"/>
      <point x="418" y="405" type="line" smooth="yes"/>
      <point x="423" y="419"/>
      <point x="426" y="431"/>
      <point x="426" y="441" type="curve" smooth="yes"/>
      <point x="426" y="458"/>
      <point x="414" y="468"/>
    </contour>
  </outline>
</glyph>
<glyph name="W" format="2">
  <advance width="660"/>
  <unicode hex="0057"/>
  <outline>
    <contour>
      <point x="434" y="121" type="line"/>
      <point x="434" y="501" type="line"/>
      <point x="221" y="501" type="line"/>
      <point x="221" y="121" type="line"/>
    </contour>
    <contour>
      <point x="101" y="81" type="line"/>
      <point x="100" y="543" type="line"/>
      <point x="556" y="543" type="line"/>
      <point x="556" y="81" type="line"/>
    </contour>
    <contour>
      <point x="263" y="729" type="curve" smooth="yes"/>
      <point x="277" y="729"/>
      <point x="288.833" y="724.167"/>
      <point x="298.5" y="714.5" type="curve" smooth="yes"/>
      <point x="308.167" y="704.833"/>
      <point x="313" y="693"/>
      <point x="313" y="679" type="curve" smooth="yes"/>
      <point x="313" y="665.667"/>
      <point x="308.167" y="654.167"/>
      <point x="298.5" y="644.5" type="curve" smooth="yes"/>
      <point x="288.833" y="634.833"/>
      <point x="277" y="630"/>
      <point x="263" y="630" type="curve" smooth="yes"/>
      <point x="249.667" y="630"/>
      <point x="238" y="634.833"/>
      <point x="228" y="644.5" type="curve" smooth="yes"/>
      <point x="218" y="654.167"/>
      <point x="213" y="665.667"/>
      <point x="213" y="679" type="curve" smooth="yes"/>
      <point x="213" y="693"/>
      <point x="217.833" y="704.833"/>
      <point x="227.5" y="714.5" type="curve" smooth="yes"/>
      <point x="237.167" y="724.167"/>
      <point x="249" y="729"/>
    </contour>
    <contour>
      <point x="409" y="729" type="curve" smooth="yes"/>
      <point x="423" y="729"/>
      <point x="434.667" y="724.167"/>
      <point x="444" y="714.5" type="curve" smooth="yes"/>
      <point x="453.333" y="704.833"/>
      <point x="458" y="693"/>
      <point x="458" y="679" type="curve" smooth="yes"/>
      <point x="458" y="665.667"/>
      <point x="453.333" y="654.167"/>
      <point x="444" y="644.5" type="curve" smooth="yes"/>
      <point x="434.667" y="634.833"/>
      <point x="423" y="630"/>
      <point x="409" y="630" type="curve" smooth="yes"/>
      <point x="395.667" y="630"/>
      <point x="383.833" y="634.833"/>
      <point x="373.5" y="644.5" type="curve" smooth="yes"/>
      <point x="363.167" y="654.167"/>
      <point x="358" y="665.667"/>
      <point x="358" y="679" type="curve" smooth="yes"/>
      <point x="358" y="693"/>
      <point x="363" y="704.833"/>
      <point x="373" y="714.5" type="curve" smooth="yes"/>
      <point x="383" y="724.167"/>
      <point x="395" y="729"/>
    </contour>
  </outline>
</glyph>
<glyph name="X" format="2">
  <advance width="564"/>
  <unicode hex="0058"/>
  <outline>
    <contour>
      <point x="443" y="77" type="line" smooth="yes"/>
      <point x="475" y="33"/>
      <point x="487" y="26"/>
      <point x="519" y="24" type="curve"/>
      <point x="521" y="22"/>
      <point x="523" y="15"/>
      <point x="523" y="10" type="curve" smooth="yes"/>
      <point x="523" y="6"/>
      <point x="522" y="1"/>
      <point x="520" y="-1" type="curve"/>
      <point x="498" y="0"/>
      <point x="472" y="1"/>
      <point x="443" y="1" type="curve" smooth="yes"/>
      <point x="413" y="1"/>
      <point x="386" y="0"/>
      <point x="358" y="-1" type="curve"/>
      <point x="356" y="1"/>
      <point x="355" y="7"/>
      <point x="355" y="11" type="curve" smooth="yes"/>
      <point x="355" y="16"/>
      <point x="356" y="22"/>
      <point x="358" y="24" type="curve"/>
      <point x="381" y="26"/>
      <point x="391" y="28"/>
      <point x="391" y="36" type="curve" smooth="yes"/>
      <point x="391" y="42"/>
      <point x="385" y="50"/>
      <point x="376" y="64" type="curve" smooth="yes"/>
      <point x="283" y="196" type="line" smooth="yes"/>
      <point x="279" y="202"/>
      <point x="275" y="205"/>
      <point x="272" y="205" type="curve" smooth="yes"/>
      <point x="270" y="205"/>
      <point x="265" y="200"/>
      <point x="261" y="194" type="curve" smooth="yes"/>
      <point x="162" y="55" type="line" smooth="yes"/>
      <point x="157" y="47"/>
      <point x="154" y="42"/>
      <point x="154" y="38" type="curve" smooth="yes"/>
      <point x="154" y="28"/>
      <point x="168" y="26"/>
      <point x="191" y="24" type="curve"/>
      <point x="193" y="22"/>
      <point x="194" y="16"/>
      <point x="194" y="11" type="curve" smooth="yes"/>
      <point x="194" y="7"/>
      <point x="193" y="1"/>
      <point x="191" y="-1" type="curve"/>
      <point x="161" y="0"/>
      <point x="129" y="1"/>
      <point x="112" y="1" type="curve" smooth="yes"/>
      <point x="95" y="1"/>
      <point x="67" y="0"/>
      <point x="45" y="-1" type="curve"/>
      <point x="43" y="1"/>
      <point x="41" y="7"/>
      <point x="41" y="11" type="curve" smooth="yes"/>
      <point x="41" y="16"/>
      <point x="43" y="22"/>
      <point x="45" y="24" type="curve"/>
      <point x="79" y="27"/>
      <point x="102" y="36"/>
      <point x="128" y="70" type="curve" smooth="yes"/>
      <point x="239" y="219" type="line" smooth="yes"/>
      <point x="243" y="225"/>
      <point x="247" y="232"/>
      <point x="247" y="236" type="curve" smooth="yes"/>
      <point x="247" y="244"/>
      <point x="242" y="250"/>
      <point x="236" y="259" type="curve" smooth="yes"/>
      <point x="130" y="411" type="line" smooth="yes"/>
      <point x="98" y="455"/>
      <point x="85" y="459"/>
      <point x="53" y="461" type="curve"/>
      <point x="51" y="463"/>
      <point x="50" y="470"/>
      <point x="50" y="475" type="curve" smooth="yes"/>
      <point x="50" y="479"/>
      <point x="50" y="484"/>
      <point x="52" y="486" type="curve"/>
      <point x="74" y="485"/>
      <point x="100" y="484"/>
      <point x="129" y="484" type="curve" smooth="yes"/>
      <point x="159" y="484"/>
      <point x="186" y="485"/>
      <point x="214" y="486" type="curve"/>
      <point x="216" y="484"/>
      <point x="218" y="478"/>
      <point x="218" y="473" type="curve" smooth="yes"/>
      <point x="218" y="469"/>
      <point x="216" y="463"/>
      <point x="214" y="461" type="curve"/>
      <point x="191" y="459"/>
      <point x="182" y="457"/>
      <point x="182" y="449" type="curve" smooth="yes"/>
      <point x="182" y="443"/>
      <point x="187" y="434"/>
      <point x="197" y="421" type="curve"/>
      <point x="280" y="298" type="line" smooth="yes"/>
      <point x="284" y="293"/>
      <point x="287" y="289"/>
      <point x="289" y="289" type="curve" smooth="yes"/>
      <point x="292" y="289"/>
      <point x="297" y="291"/>
      <point x="301" y="298" type="curve" smooth="yes"/>
      <point x="393" y="430" type="line" smooth="yes"/>
      <point x="398" y="438"/>
      <point x="400" y="443"/>
      <point x="400" y="447" type="curve" smooth="yes"/>
      <point x="400" y="457"/>
      <point x="387" y="459"/>
      <point x="364" y="461" type="curve"/>
      <point x="362" y="463"/>
      <point x="361" y="469"/>
      <point x="361" y="473" type="curve" smooth="yes"/>
      <point x="361" y="478"/>
      <point x="362" y="484"/>
      <point x="364" y="486" type="curve"/>
      <point x="394" y="485"/>
      <point x="425" y="484"/>
      <point x="442" y="484" type="curve" smooth="yes"/>
      <point x="459" y="484"/>
      <point x="488" y="485"/>
      <point x="510" y="486" type="curve"/>
      <point x="512" y="484"/>
      <point x="514" y="478"/>
      <point x="514" y="473" type="curve" smooth="yes"/>
      <point x="514" y="469"/>
      <point x="512" y="463"/>
      <point x="510" y="461" type="curve"/>
      <point x="476" y="458"/>
      <point x="453" y="449"/>
      <point x="427" y="415" type="curve" smooth="yes"/>
      <point x="324" y="282" type="line" smooth="yes"/>
      <point x="317" y="273"/>
      <point x="316" y="266"/>
      <point x="316" y="259" type="curve" smooth="yes"/>
      <point x="316" y="251"/>
      <point x="320" y="245"/>
      <point x="328" y="235" type="curve" smooth="yes"/>
    </contour>
  </outline>
</glyph>
<glyph name="Y" format="2">
  <advance width="742"/>
  <unicode hex="0059"/>
  <outline>
    <contour>
      <point x="286" y="343" type="qcurve"/>
      <point x="94" y="543" type="line"/>
      <point x="212" y="543" type="line"/>
      <point x="366" y="388" type="line"/>
      <point x="525" y="542" type="line"/>
      <point x="648" y="541" type="line"/>
      <point x="440" y="347" type="line"/>
      <point x="464" y="324"/>
      <point x="490" y="254"/>
      <point x="490" y="225" type="qcurve" smooth="yes"/>
      <point x="490" y="157"/>
      <point x="460" y="115" type="qcurve" smooth="yes"/>
      <point x="427" y="70"/>
      <point x="365" y="70" type="qcurve" smooth="yes"/>
      <point x="304" y="70"/>
      <point x="271" y="115" type="qcurve" smooth="yes"/>
      <point x="241" y="156"/>
      <point x="241" y="225" type="qcurve" smooth="yes"/>
      <point x="241" y="258"/>
      <point x="263" y="319"/>
    </contour>
    <contour>
      <point x="296" y="728" type="qcurve" smooth="yes"/>
      <point x="317" y="728"/>
      <point x="345" y="699"/>
      <point x="345" y="677" type="qcurve" smooth="yes"/>
      <point x="345" y="657"/>
      <point x="317" y="629"/>
      <point x="296" y="629" type="qcurve" smooth="yes"/>
      <point x="276" y="629"/>
      <point x="245" y="657"/>
      <point x="245" y="677" type="qcurve" smooth="yes"/>
      <point x="245" y="698"/>
      <point x="275" y="728"/>
    </contour>
    <contour>
      <point x="441" y="728" type="qcurve" smooth="yes"/>
      <point x="462" y="728"/>
      <point x="491" y="699"/>
      <point x="491" y="677" type="qcurve" smooth="yes"/>
      <point x="491" y="657"/>
      <point x="462" y="629"/>
      <point x="441" y="629" type="qcurve" smooth="yes"/>
      <point x="421" y="629"/>
      <point x="391" y="657"/>
      <point x="391" y="677" type="qcurve" smooth="yes"/>
      <point x="391" y="698"/>
      <point x="420" y="728"/>
    </contour>
  </outline>
</glyph>
<glyph name="Z" format="2">
  <advance width="970"/>
  <unicode hex="005A"/>
  <outline>
    <contour>
      <point x="843" y="301" type="curve" smooth="yes"/>
      <point x="843" y="233"/>
      <point x="825.667" y="181"/>
      <point x="791" y="145" type="curve" smooth="yes"/>
      <point x="749.667" y="102.333"/>
      <point x="677.333" y="81"/>
      <point x="574" y="81" type="curve" smooth="yes"/>
      <point x="117" y="81" type="line"/>
      <point x="117" y="141" type="line"/>
      <point x="137" y="209"/>
      <point x="165.833" y="270"/>
      <point x="203.5" y="324" type="curve" smooth="yes"/>
      <point x="241.167" y="378"/>
      <point x="287" y="423"/>
      <point x="341" y="459" type="curve"/>
      <point x="205" y="669" type="line"/>
      <point x="312" y="669" type="line"/>
      <point x="407" y="484" type="line"/>
      <point x="425" y="493.333"/>
      <point x="436.333" y="499"/>
      <point x="441" y="501" type="curve" smooth="yes"/>
      <point x="477" y="515.667"/>
      <point x="523.667" y="523"/>
      <point x="581" y="523" type="curve" smooth="yes"/>
      <point x="658.333" y="523"/>
      <point x="720.667" y="504.333"/>
      <point x="768" y="467" type="curve" smooth="yes"/>
      <point x="818" y="427"/>
      <point x="843" y="371.667"/>
    </contour>
    <contour>
      <point x="743" y="304" type="curve" smooth="yes"/>
      <point x="743" y="352"/>
      <point x="725.333" y="388"/>
      <point x="690" y="412" type="curve" smooth="yes"/>
      <point x="659.333" y="433.333"/>
      <point x="617.667" y="444"/>
      <point x="565" y="444" type="curve" smooth="yes"/>
      <point x="521.667" y="444"/>
      <point x="490" y="441.667"/>
      <point x="470" y="437" type="curve" smooth="yes"/>
      <point x="468" y="436.333"/>
      <point x="455.667" y="431.333"/>
      <point x="433" y="422" type="curve"/>
      <point x="570" y="144" type="line"/>
      <point x="573.333" y="145.333"/>
      <point x="585" y="146"/>
      <point x="605" y="146" type="curve" smooth="yes"/>
      <point x="651.667" y="146"/>
      <point x="688" y="166.333"/>
      <point x="714" y="207" type="curve" smooth="yes"/>
      <point x="733.333" y="238.333"/>
      <point x="743" y="270.667"/>
    </contour>
    <contour>
      <point x="521" y="144" type="line"/>
      <point x="509.667" y="163.333"/>
      <point x="498.333" y="183"/>
      <point x="487" y="203" type="curve" smooth="yes"/>
      <point x="454.333" y="258.333"/>
      <point x="432" y="296.667"/>
      <point x="420" y="318" type="curve" smooth="yes"/>
      <point x="389.333" y="370"/>
      <point x="373.333" y="397.667"/>
      <point x="372" y="401" type="curve"/>
      <point x="362" y="401"/>
      <point x="341.167" y="385"/>
      <point x="309.5" y="353" type="curve" smooth="yes"/>
      <point x="277.833" y="321"/>
      <point x="250" y="286.333"/>
      <point x="226" y="249" type="curve" smooth="yes"/>
      <point x="197.333" y="205"/>
      <point x="182.667" y="170"/>
      <point x="182" y="144" type="curve"/>
    </contour>
    <contour>
      <point x="486" y="729" type="curve" smooth="yes"/>
      <point x="500" y="729"/>
      <point x="511.667" y="724.167"/>
      <point x="521" y="714.5" type="curve" smooth="yes"/>
      <point x="530.333" y="704.833"/>
      <point x="535" y="693"/>
      <point x="535" y="679" type="curve" smooth="yes"/>
      <point x="535" y="665.667"/>
      <point x="530.167" y="654.167"/>
      <point x="520.5" y="644.5" type="curve" smooth="yes"/>
      <point x="510.833" y="634.833"/>
      <point x="499.333" y="630"/>
      <point x="486" y="630" type="curve" smooth="yes"/>
      <point x="472.667" y="630"/>
      <point x="460.833" y="634.833"/>
      <point x="450.5" y="644.5" type="curve" smooth="yes"/>
      <point x="440.167" y="654.167"/>
      <point x="435" y="665.667"/>
      <point x="435" y="679" type="curve" smooth="yes"/>
      <point x="435" y="693"/>
      <point x="440" y="704.833"/>
      <point x="450" y="714.5" type="curve" smooth="yes"/>
      <point x="460" y="724.167"/>
      <point x="472" y="729"/>
    </contour>
    <contour>
      <point x="631" y="729" type="curve" smooth="yes"/>
      <point x="645" y="729"/>
      <point x="656.833" y="724.167"/>
      <point x="666.5" y="714.5" type="curve" smooth="yes"/>
      <point x="676.167" y="704.833"/>
      <point x="681" y="693"/>
      <point x="681" y="679" type="curve" smooth="yes"/>
      <point x="681" y="665.667"/>
      <point x="676.167" y="654.167"/>
      <point x="666.5" y="644.5" type="curve" smooth="yes"/>
      <point x="656.833" y="634.833"/>
      <point x="645" y="630"/>
      <point x="631" y="630" type="curve" smooth="yes"/>
      <point x="617.667" y="630"/>
      <point x="606" y="634.833"/>
      <point x="596" y="644.5" type="curve" smooth="yes"/>
      <point x="586" y="654.167"/>
      <point x="581" y="665.667"/>
      <point x="581" y="679" type="curve" smooth="yes"/>
      <point x="581" y="693"/>
      <point x="585.833" y="704.833"/>
      <point x="595.5" y="714.5" type="curve" smooth="yes"/>
      <point x="605.167" y="724.167"/>
      <point x="617" y="729"/>
    </contour>
  </outline>
</glyph>
<glyph name="bracketleft" format="2">
  <advance width="384"/>
  <unicode hex="005B"/>
  <outline>
    <contour>
      <point x="292" y="-62" type="line"/>
      <point x="96" y="-62" type="line"/>
      <point x="96" y="598" type="line"/>
      <point x="292" y="598" type="line"/>
      <point x="292" y="550" type="line"/>
      <point x="175" y="550" type="line"/>
      <point x="175" y="-13" type="line"/>
      <point x="292" y="-13" type="line"/>
    </contour>
  </outline>
</glyph>
<glyph name="backslash" format="2">
  <advance width="239"/>
  <unicode hex="005C"/>
  <outline>
    <contour>
      <point x="143" y="44" type="line"/>
      <point x="26" y="466" type="line"/>
      <point x="61" y="466" type="line"/>
      <point x="177" y="44" type="line"/>
    </contour>
  </outline>
</glyph>
<glyph name="bracketright" format="2">
  <advance width="384"/>
  <unicode hex="005D"/>
  <outline>
    <contour>
      <point x="88" y="-62" type="line"/>
      <point x="88" y="-13" type="line"/>
      <point x="204" y="-13" type="line"/>
      <point x="205" y="550" type="line"/>
      <point x="206" y="550"/>
      <point x="88" y="550" type="qcurve"/>
      <point x="88" y="598" type="line"/>
      <point x="284" y="598" type="line"/>
      <point x="284" y="-62" type="line"/>
    </contour>
  </outline>
</glyph>
<glyph name="asciicircum" format="2">
  <advance width="393"/>
  <unicode hex="005E"/>
  <outline>
    <contour>
      <point x="196" y="519" type="line"/>
      <point x="119" y="334" type="line"/>
      <point x="86" y="334" type="line"/>
      <point x="181" y="562" type="line"/>
      <point x="212" y="562" type="line"/>
      <point x="307" y="334" type="line"/>
      <point x="274" y="334" type="line"/>
    </contour>
  </outline>
</glyph>
<glyph name="underscore" format="2">
  <advance width="352"/>
  <unicode hex="005F"/>
  <outline>
    <contour>
      <point x="351" y="5" type="line"/>
      <point x="1" y="5" type="line"/>
      <point x="1" y="45" type="line"/>
      <point x="351" y="45" type="line"/>
    </contour>
  </outline>
</glyph>
<glyph name="grave" format="2">
  <advance width="170"/>
  <unicode hex="0060"/>
  <outline>
    <contour>
      <point x="126" y="483" type="line"/>
      <point x="17" y="639" type="line" smooth="yes"/>
      <point x="16" y="640"/>
      <point x="17" y="640"/>
      <point x="17" y="641" type="curve" smooth="yes"/>
      <point x="17" y="642"/>
      <point x="17" y="642"/>
      <point x="19" y="642" type="curve" smooth="yes"/>
      <point x="70" y="642" type="line"/>
      <point x="153" y="489" type="line" smooth="yes"/>
      <point x="154" y="488"/>
      <point x="154" y="487"/>
      <point x="154" y="486" type="curve" smooth="yes"/>
      <point x="154" y="484"/>
      <point x="153" y="483"/>
      <point x="151" y="483" type="curve" smooth="yes"/>
    </contour>
  </outline>
</glyph>
<glyph name="a" format="2">
  <advance width="406"/>
  <unicode hex="0061"/>
  <outline>
    <contour>
      <point x="239" y="182" type="line"/>
      <point x="179" y="167" type="line" smooth="yes"/>
      <point x="123" y="153"/>
      <point x="108" y="118"/>
      <point x="108" y="84" type="curve" smooth="yes"/>
      <point x="108" y="61"/>
      <point x="124" y="31"/>
      <point x="162" y="31" type="curve" smooth="yes"/>
      <point x="183" y="31"/>
      <point x="208" y="48"/>
      <point x="228" y="64" type="curve" smooth="yes"/>
      <point x="234" y="68"/>
      <point x="239" y="73"/>
      <point x="239" y="83" type="curve" smooth="yes"/>
    </contour>
    <contour>
      <point x="116" y="281" type="curve" smooth="yes"/>
      <point x="116" y="265"/>
      <point x="122" y="266"/>
      <point x="122" y="252" type="curve" smooth="yes"/>
      <point x="122" y="242"/>
      <point x="108" y="227"/>
      <point x="86" y="227" type="curve" smooth="yes"/>
      <point x="70" y="227"/>
      <point x="60" y="236"/>
      <point x="60" y="254" type="curve" smooth="yes"/>
      <point x="60" y="297"/>
      <point x="122" y="337"/>
      <point x="184" y="337" type="curve" smooth="yes"/>
      <point x="240" y="337"/>
      <point x="298" y="316"/>
      <point x="298" y="210" type="curve" smooth="yes"/>
      <point x="298" y="100" type="line" smooth="yes"/>
      <point x="298" y="66"/>
      <point x="298" y="36"/>
      <point x="320" y="36" type="curve" smooth="yes"/>
      <point x="329" y="36"/>
      <point x="342" y="44"/>
      <point x="347" y="48" type="curve"/>
      <point x="356" y="43"/>
      <point x="358" y="37"/>
      <point x="360" y="28" type="curve"/>
      <point x="344" y="13"/>
      <point x="317" y="0"/>
      <point x="288" y="0" type="curve" smooth="yes"/>
      <point x="250" y="0"/>
      <point x="243" y="21"/>
      <point x="239" y="44" type="curve"/>
      <point x="238" y="44" type="line"/>
      <point x="222" y="32" type="line" smooth="yes"/>
      <point x="189" y="6"/>
      <point x="166" y="0"/>
      <point x="140" y="0" type="curve" smooth="yes"/>
      <point x="88" y="0"/>
      <point x="46" y="19"/>
      <point x="46" y="81" type="curve" smooth="yes"/>
      <point x="46" y="132"/>
      <point x="98" y="172"/>
      <point x="170" y="190" type="curve" smooth="yes"/>
      <point x="234" y="206" type="line" smooth="yes"/>
      <point x="236" y="207"/>
      <point x="239" y="210"/>
      <point x="239" y="215" type="curve" smooth="yes"/>
      <point x="239" y="300"/>
      <point x="204" y="312"/>
      <point x="178" y="312" type="curve" smooth="yes"/>
      <point x="150" y="312"/>
      <point x="116" y="305"/>
    </contour>
  </outline>
</glyph>
<glyph name="b" format="2">
  <advance width="411"/>
  <unicode hex="0062"/>
  <outline>
    <contour>
      <point x="162" y="279" type="curve" smooth="yes"/>
      <point x="152" y="271"/>
      <point x="150" y="264"/>
      <point x="150" y="248" type="curve" smooth="yes"/>
      <point x="150" y="60" type="line"/>
      <point x="165" y="41"/>
      <point x="181" y="25"/>
      <point x="204" y="25" type="curve" smooth="yes"/>
      <point x="275" y="25"/>
      <point x="309" y="89"/>
      <point x="309" y="175" type="curve" smooth="yes"/>
      <point x="309" y="248"/>
      <point x="272" y="303"/>
      <point x="226" y="303" type="curve" smooth="yes"/>
      <point x="204" y="303"/>
      <point x="182" y="296"/>
    </contour>
    <contour>
      <point x="157" y="302" type="curve" smooth="yes"/>
      <point x="180" y="323"/>
      <point x="209" y="336"/>
      <point x="241" y="336" type="curve" smooth="yes"/>
      <point x="306" y="336"/>
      <point x="374" y="280"/>
      <point x="374" y="188" type="curve" smooth="yes"/>
      <point x="374" y="69"/>
      <point x="284" y="-1"/>
      <point x="208" y="-1" type="curve" smooth="yes"/>
      <point x="181" y="-1"/>
      <point x="159" y="3"/>
      <point x="142" y="18" type="curve" smooth="yes"/>
      <point x="138" y="21"/>
      <point x="134" y="22"/>
      <point x="132" y="22" type="curve" smooth="yes"/>
      <point x="128" y="22"/>
      <point x="125" y="20"/>
      <point x="121" y="16" type="curve" smooth="yes"/>
      <point x="116" y="9"/>
      <point x="108" y="2"/>
      <point x="104" y="-2" type="curve"/>
      <point x="95" y="-2"/>
      <point x="91" y="1"/>
      <point x="87" y="7" type="curve"/>
      <point x="89" y="17"/>
      <point x="90" y="31"/>
      <point x="90" y="60" type="curve" smooth="yes"/>
      <point x="90" y="426" type="line" smooth="yes"/>
      <point x="90" y="489"/>
      <point x="81" y="486"/>
      <point x="42" y="488" type="curve"/>
      <point x="38" y="491"/>
      <point x="37" y="499"/>
      <point x="37" y="505" type="curve" smooth="yes"/>
      <point x="37" y="507"/>
      <point x="37" y="508"/>
      <point x="38" y="510" type="curve"/>
      <point x="68" y="512"/>
      <point x="124" y="522"/>
      <point x="143" y="530" type="curve"/>
      <point x="150" y="530"/>
      <point x="153" y="528"/>
      <point x="153" y="523" type="curve" smooth="yes"/>
      <point x="153" y="523"/>
      <point x="150" y="493"/>
      <point x="150" y="444" type="curve" smooth="yes"/>
      <point x="150" y="306" type="line" smooth="yes"/>
      <point x="150" y="299"/>
      <point x="152" y="298"/>
    </contour>
  </outline>
</glyph>
<glyph name="c" format="2">
  <advance width="358"/>
  <unicode hex="0063"/>
  <outline>
    <contour>
      <point x="315" y="76" type="curve"/>
      <point x="277" y="14"/>
      <point x="237" y="0"/>
      <point x="192" y="0" type="curve" smooth="yes"/>
      <point x="98" y="0"/>
      <point x="43" y="67"/>
      <point x="43" y="164" type="curve" smooth="yes"/>
      <point x="43" y="270"/>
      <point x="123" y="337"/>
      <point x="198" y="337" type="curve" smooth="yes"/>
      <point x="270" y="337"/>
      <point x="312" y="307"/>
      <point x="312" y="266" type="curve" smooth="yes"/>
      <point x="312" y="243"/>
      <point x="291" y="233"/>
      <point x="276" y="233" type="curve" smooth="yes"/>
      <point x="260" y="233"/>
      <point x="247" y="240"/>
      <point x="247" y="260" type="curve" smooth="yes"/>
      <point x="247" y="286"/>
      <point x="238" y="312"/>
      <point x="193" y="312" type="curve" smooth="yes"/>
      <point x="143" y="312"/>
      <point x="108" y="262"/>
      <point x="108" y="180" type="curve" smooth="yes"/>
      <point x="108" y="92"/>
      <point x="154" y="37"/>
      <point x="208" y="37" type="curve" smooth="yes"/>
      <point x="241" y="37"/>
      <point x="272" y="53"/>
      <point x="298" y="86" type="curve"/>
      <point x="306" y="86"/>
      <point x="312" y="83"/>
    </contour>
  </outline>
</glyph>
<glyph name="d" format="2">
  <advance width="445"/>
  <unicode hex="0064"/>
  <outline>
    <contour>
      <point x="278" y="101" type="curve" smooth="yes"/>
      <point x="278" y="243" type="line" smooth="yes"/>
      <point x="278" y="266"/>
      <point x="276" y="272"/>
      <point x="266" y="284" type="curve" smooth="yes"/>
      <point x="251" y="301"/>
      <point x="232" y="311"/>
      <point x="205" y="311" type="curve" smooth="yes"/>
      <point x="190" y="311"/>
      <point x="158" y="308"/>
      <point x="135" y="273" type="curve" smooth="yes"/>
      <point x="124" y="257"/>
      <point x="113" y="228"/>
      <point x="113" y="174" type="curve" smooth="yes"/>
      <point x="113" y="80"/>
      <point x="156" y="36"/>
      <point x="196" y="36" type="curve" smooth="yes"/>
      <point x="215" y="36"/>
      <point x="238" y="48"/>
      <point x="266" y="72" type="curve" smooth="yes"/>
      <point x="276" y="81"/>
      <point x="278" y="87"/>
    </contour>
    <contour>
      <point x="271" y="47" type="curve" smooth="yes"/>
      <point x="234" y="17"/>
      <point x="205" y="0"/>
      <point x="176" y="0" type="curve" smooth="yes"/>
      <point x="95" y="0"/>
      <point x="49" y="68"/>
      <point x="49" y="160" type="curve" smooth="yes"/>
      <point x="49" y="216"/>
      <point x="69" y="260"/>
      <point x="101" y="292" type="curve"/>
      <point x="131" y="320"/>
      <point x="163" y="337"/>
      <point x="213" y="337" type="curve" smooth="yes"/>
      <point x="238" y="337"/>
      <point x="269" y="324"/>
      <point x="272" y="324" type="curve" smooth="yes"/>
      <point x="277" y="324"/>
      <point x="278" y="326"/>
      <point x="278" y="331" type="curve" smooth="yes"/>
      <point x="278" y="427" type="line" smooth="yes"/>
      <point x="278" y="487"/>
      <point x="270" y="488"/>
      <point x="236" y="488" type="curve" smooth="yes"/>
      <point x="230" y="488" type="line"/>
      <point x="227" y="491"/>
      <point x="225" y="499"/>
      <point x="225" y="505" type="curve" smooth="yes"/>
      <point x="225" y="507"/>
      <point x="226" y="509"/>
      <point x="226" y="511" type="curve"/>
      <point x="256" y="511"/>
      <point x="312" y="523"/>
      <point x="331" y="531" type="curve"/>
      <point x="338" y="531"/>
      <point x="341" y="529"/>
      <point x="341" y="524" type="curve" smooth="yes"/>
      <point x="341" y="524"/>
      <point x="338" y="494"/>
      <point x="338" y="445" type="curve" smooth="yes"/>
      <point x="338" y="105" type="line" smooth="yes"/>
      <point x="338" y="68"/>
      <point x="344" y="50"/>
      <point x="392" y="50" type="curve"/>
      <point x="394" y="48"/>
      <point x="396" y="44"/>
      <point x="396" y="40" type="curve" smooth="yes"/>
      <point x="396" y="36"/>
      <point x="394" y="32"/>
      <point x="392" y="30" type="curve"/>
      <point x="346" y="25"/>
      <point x="320" y="14"/>
      <point x="304" y="0" type="curve"/>
      <point x="302" y="-2"/>
      <point x="299" y="-1"/>
      <point x="297" y="-1" type="curve" smooth="yes"/>
      <point x="295" y="-1"/>
      <point x="293" y="-2"/>
      <point x="290" y="0" type="curve"/>
      <point x="290" y="0"/>
      <point x="283" y="25"/>
      <point x="281" y="44" type="curve" smooth="yes"/>
      <point x="281" y="49"/>
      <point x="275" y="50"/>
    </contour>
  </outline>
</glyph>
<glyph name="e" format="2">
  <advance width="383"/>
  <unicode hex="0065"/>
  <outline>
    <contour>
      <point x="118" y="219" type="curve"/>
      <point x="254" y="221" type="line" smooth="yes"/>
      <point x="262" y="221"/>
      <point x="265" y="225"/>
      <point x="265" y="232" type="curve" smooth="yes"/>
      <point x="265" y="295"/>
      <point x="231" y="310"/>
      <point x="203" y="310" type="curve" smooth="yes"/>
      <point x="185" y="310"/>
      <point x="132" y="304"/>
    </contour>
    <contour>
      <point x="203" y="-0" type="curve" smooth="yes"/>
      <point x="105" y="0"/>
      <point x="53" y="65"/>
      <point x="53" y="159" type="curve" smooth="yes"/>
      <point x="53" y="273"/>
      <point x="138" y="335"/>
      <point x="203" y="335" type="curve" smooth="yes"/>
      <point x="307" y="335"/>
      <point x="330" y="268"/>
      <point x="330" y="205" type="curve" smooth="yes"/>
      <point x="330" y="197"/>
      <point x="324" y="192"/>
      <point x="315" y="192" type="curve" smooth="yes"/>
      <point x="116" y="193" type="line"/>
      <point x="116" y="149"/>
      <point x="125" y="116"/>
      <point x="140" y="91" type="curve" smooth="yes"/>
      <point x="163" y="53"/>
      <point x="195" y="37"/>
      <point x="222" y="37" type="curve" smooth="yes"/>
      <point x="266" y="37"/>
      <point x="286" y="49"/>
      <point x="314" y="77" type="curve"/>
      <point x="323" y="76"/>
      <point x="328" y="73"/>
      <point x="330" y="65" type="curve"/>
      <point x="300" y="26"/>
      <point x="260" y="0"/>
    </contour>
  </outline>
</glyph>
<glyph name="f" format="2">
  <advance width="341"/>
  <unicode hex="0066"/>
  <outline>
    <contour>
      <point x="145.375" y="92.5" type="line" smooth="yes"/>
      <point x="145.375" y="30.25"/>
      <point x="149.875" y="27.25"/>
      <point x="208.375" y="24.25" type="curve"/>
      <point x="210.625" y="22"/>
      <point x="212.125" y="16.75"/>
      <point x="212.125" y="11.5" type="curve" smooth="yes"/>
      <point x="212.125" y="6.25"/>
      <point x="210.625" y="1.75"/>
      <point x="208.375" y="-0.5" type="curve"/>
      <point x="182.125" y="0.25"/>
      <point x="146.125" y="1"/>
      <point x="116.125" y="1" type="curve" smooth="yes"/>
      <point x="86.125" y="1"/>
      <point x="59.875" y="0.25"/>
      <point x="33.625" y="-0.5" type="curve"/>
      <point x="31.375" y="1.75"/>
      <point x="30.625" y="6.25"/>
      <point x="30.625" y="11.5" type="curve" smooth="yes"/>
      <point x="30.625" y="16.75"/>
      <point x="31.375" y="22"/>
      <point x="33.625" y="24.25" type="curve"/>
      <point x="74.125" y="27.25"/>
      <point x="86.125" y="30.25"/>
      <point x="86.125" y="92.5" type="curve" smooth="yes"/>
      <point x="86.125" y="293.5" type="line"/>
      <point x="34.375" y="293.5" type="line" smooth="yes"/>
      <point x="31.375" y="293.5"/>
      <point x="30.625" y="294.25"/>
      <point x="30.625" y="298" type="curve" smooth="yes"/>
      <point x="30.625" y="307.75" type="line" smooth="yes"/>
      <point x="30.625" y="313.75"/>
      <point x="34.375" y="322.75"/>
      <point x="47.875" y="322.75" type="curve" smooth="yes"/>
      <point x="86.125" y="322.75" type="line"/>
      <point x="86.125" y="352.75" type="line" smooth="yes"/>
      <point x="86.125" y="469.75"/>
      <point x="155.875" y="524.5"/>
      <point x="218.875" y="524.5" type="curve" smooth="yes"/>
      <point x="247.375" y="524.5"/>
      <point x="266.875" y="522.25"/>
      <point x="286.375" y="508.75" type="curve"/>
      <point x="302.125" y="496.75"/>
      <point x="310.375" y="483.25"/>
      <point x="310.375" y="470.5" type="curve" smooth="yes"/>
      <point x="310.375" y="455.5"/>
      <point x="292.375" y="439.75"/>
      <point x="279.625" y="439.75" type="curve" smooth="yes"/>
      <point x="263.875" y="439.75"/>
      <point x="255.625" y="450.25"/>
      <point x="249.625" y="463.75" type="curve" smooth="yes"/>
      <point x="239.125" y="490"/>
      <point x="227.125" y="499"/>
      <point x="204.625" y="499" type="curve" smooth="yes"/>
      <point x="179.875" y="499"/>
      <point x="145.375" y="481"/>
      <point x="145.375" y="365.5" type="curve" smooth="yes"/>
      <point x="145.375" y="322.75" type="line"/>
      <point x="226.375" y="322.75" type="line" smooth="yes"/>
      <point x="230.125" y="322.75"/>
      <point x="232.375" y="321.25"/>
      <point x="232.375" y="318.25" type="curve" smooth="yes"/>
      <point x="232.375" y="303.25" type="line" smooth="yes"/>
      <point x="232.375" y="296.5"/>
      <point x="221.875" y="293.5"/>
      <point x="215.125" y="293.5" type="curve" smooth="yes"/>
      <point x="145.375" y="293.5" type="line"/>
    </contour>
  </outline>
</glyph>
<glyph name="g" format="2">
  <advance width="441"/>
  <unicode hex="0067"/>
  <outline>
    <contour>
      <point x="268" y="219" type="curve" smooth="yes"/>
      <point x="268" y="281"/>
      <point x="242" y="316"/>
      <point x="194" y="316" type="curve" smooth="yes"/>
      <point x="154" y="316"/>
      <point x="134" y="288"/>
      <point x="134" y="236" type="curve" smooth="yes"/>
      <point x="134" y="188"/>
      <point x="142" y="135"/>
      <point x="205" y="135" type="curve" smooth="yes"/>
      <point x="232" y="135"/>
      <point x="268" y="149"/>
    </contour>
    <contour>
      <point x="127" y="2" type="curve"/>
      <point x="106" y="-24"/>
      <point x="104" y="-42"/>
      <point x="104" y="-68" type="curve" smooth="yes"/>
      <point x="104" y="-119"/>
      <point x="167" y="-141"/>
      <point x="194" y="-141" type="curve" smooth="yes"/>
      <point x="262" y="-141"/>
      <point x="341" y="-112"/>
      <point x="341" y="-58" type="curve" smooth="yes"/>
      <point x="341" y="-38"/>
      <point x="332" y="-28"/>
      <point x="302" y="-12" type="curve" smooth="yes"/>
      <point x="281" y="0"/>
      <point x="250" y="1"/>
      <point x="212" y="1" type="curve" smooth="yes"/>
      <point x="202" y="1"/>
      <point x="181" y="-1"/>
      <point x="157" y="-1" type="curve" smooth="yes"/>
      <point x="148" y="-1"/>
      <point x="136" y="0"/>
    </contour>
    <contour>
      <point x="169" y="43" type="curve" smooth="yes"/>
      <point x="187" y="43"/>
      <point x="223" y="47"/>
      <point x="239" y="47" type="curve" smooth="yes"/>
      <point x="267" y="47"/>
      <point x="321" y="46"/>
      <point x="349" y="22" type="curve" smooth="yes"/>
      <point x="371" y="4"/>
      <point x="382" y="-15"/>
      <point x="382" y="-39" type="curve" smooth="yes"/>
      <point x="382" y="-120"/>
      <point x="272" y="-168"/>
      <point x="172" y="-168" type="curve" smooth="yes"/>
      <point x="114" y="-168"/>
      <point x="52" y="-148"/>
      <point x="52" y="-83" type="curve" smooth="yes"/>
      <point x="52" y="-51"/>
      <point x="73" y="-16"/>
      <point x="113" y="8" type="curve"/>
      <point x="93" y="18"/>
      <point x="79" y="39"/>
      <point x="79" y="66" type="curve" smooth="yes"/>
      <point x="79" y="92"/>
      <point x="91" y="123"/>
      <point x="112" y="141" type="curve"/>
      <point x="91" y="161"/>
      <point x="73" y="185"/>
      <point x="73" y="225" type="curve" smooth="yes"/>
      <point x="73" y="294"/>
      <point x="134" y="339"/>
      <point x="202" y="339" type="curve" smooth="yes"/>
      <point x="246" y="339"/>
      <point x="271" y="324"/>
      <point x="280" y="318" type="curve"/>
      <point x="300" y="344"/>
      <point x="335" y="356"/>
      <point x="355" y="356" type="curve" smooth="yes"/>
      <point x="375" y="356"/>
      <point x="389" y="345"/>
      <point x="389" y="329" type="curve" smooth="yes"/>
      <point x="389" y="314"/>
      <point x="376" y="300"/>
      <point x="361" y="300" type="curve" smooth="yes"/>
      <point x="353" y="300"/>
      <point x="343" y="308"/>
      <point x="340" y="314" type="curve"/>
      <point x="336" y="321"/>
      <point x="331" y="323"/>
      <point x="325" y="323" type="curve" smooth="yes"/>
      <point x="316" y="323"/>
      <point x="301" y="313"/>
      <point x="295" y="305" type="curve"/>
      <point x="317" y="283"/>
      <point x="328" y="262"/>
      <point x="328" y="227" type="curve" smooth="yes"/>
      <point x="328" y="153"/>
      <point x="266" y="112"/>
      <point x="200" y="112" type="curve" smooth="yes"/>
      <point x="172" y="112"/>
      <point x="151" y="118"/>
      <point x="133" y="128" type="curve"/>
      <point x="124" y="115"/>
      <point x="119" y="99"/>
      <point x="119" y="84" type="curve" smooth="yes"/>
      <point x="119" y="52"/>
      <point x="147" y="43"/>
    </contour>
  </outline>
</glyph>
<glyph name="h" format="2">
  <advance width="466"/>
  <unicode hex="0068"/>
  <outline>
    <contour>
      <point x="155" y="216" type="curve" smooth="yes"/>
      <point x="155" y="92" type="line" smooth="yes"/>
      <point x="155" y="30"/>
      <point x="162" y="27"/>
      <point x="200" y="24" type="curve"/>
      <point x="202" y="22"/>
      <point x="204" y="17"/>
      <point x="204" y="12" type="curve" smooth="yes"/>
      <point x="204" y="7"/>
      <point x="202" y="2"/>
      <point x="200" y="-0" type="curve"/>
      <point x="179" y="1"/>
      <point x="154" y="1"/>
      <point x="126" y="1" type="curve" smooth="yes"/>
      <point x="96" y="1"/>
      <point x="69" y="1"/>
      <point x="44" y="-0" type="curve"/>
      <point x="42" y="2"/>
      <point x="41" y="7"/>
      <point x="41" y="12" type="curve" smooth="yes"/>
      <point x="41" y="17"/>
      <point x="42" y="22"/>
      <point x="44" y="24" type="curve"/>
      <point x="88" y="27"/>
      <point x="96" y="30"/>
      <point x="96" y="92" type="curve" smooth="yes"/>
      <point x="96" y="420" type="line" smooth="yes"/>
      <point x="96" y="483"/>
      <point x="87" y="480"/>
      <point x="48" y="482" type="curve"/>
      <point x="45" y="485"/>
      <point x="43" y="492"/>
      <point x="43" y="498" type="curve" smooth="yes"/>
      <point x="43" y="500"/>
      <point x="44" y="502"/>
      <point x="44" y="504" type="curve"/>
      <point x="74" y="506"/>
      <point x="130" y="516"/>
      <point x="149" y="524" type="curve"/>
      <point x="156" y="524"/>
      <point x="158" y="522"/>
      <point x="158" y="517" type="curve" smooth="yes"/>
      <point x="158" y="517"/>
      <point x="155" y="487"/>
      <point x="155" y="438" type="curve" smooth="yes"/>
      <point x="155" y="270" type="line" smooth="yes"/>
      <point x="155" y="260"/>
      <point x="160" y="267"/>
      <point x="162" y="270" type="curve" smooth="yes"/>
      <point x="208" y="321"/>
      <point x="253" y="330"/>
      <point x="290" y="330" type="curve" smooth="yes"/>
      <point x="316" y="330"/>
      <point x="339" y="321"/>
      <point x="352" y="305" type="curve" smooth="yes"/>
      <point x="370" y="282"/>
      <point x="372" y="245"/>
      <point x="372" y="204" type="curve" smooth="yes"/>
      <point x="372" y="92" type="line" smooth="yes"/>
      <point x="372" y="30"/>
      <point x="380" y="28"/>
      <point x="422" y="24" type="curve"/>
      <point x="424" y="22"/>
      <point x="425" y="17"/>
      <point x="425" y="12" type="curve" smooth="yes"/>
      <point x="425" y="7"/>
      <point x="424" y="2"/>
      <point x="422" y="-0" type="curve"/>
      <point x="397" y="1"/>
      <point x="373" y="1"/>
      <point x="343" y="1" type="curve" smooth="yes"/>
      <point x="313" y="1"/>
      <point x="287" y="1"/>
      <point x="266" y="-0" type="curve"/>
      <point x="264" y="2"/>
      <point x="263" y="7"/>
      <point x="263" y="12" type="curve" smooth="yes"/>
      <point x="263" y="17"/>
      <point x="264" y="22"/>
      <point x="266" y="24" type="curve"/>
      <point x="305" y="28"/>
      <point x="313" y="30"/>
      <point x="313" y="92" type="curve" smooth="yes"/>
      <point x="313" y="206" type="line" smooth="yes"/>
      <point x="313" y="228"/>
      <point x="312" y="249"/>
      <point x="304" y="264" type="curve" smooth="yes"/>
      <point x="296" y="281"/>
      <point x="280" y="290"/>
      <point x="264" y="290" type="curve" smooth="yes"/>
      <point x="235" y="290"/>
      <point x="196" y="275"/>
      <point x="168" y="247" type="curve" smooth="yes"/>
      <point x="162" y="240"/>
      <point x="155" y="232"/>
    </contour>
  </outline>
</glyph>
<glyph name="i" format="2">
  <advance width="247"/>
  <unicode hex="0069"/>
  <outline>
    <contour>
      <point x="84" y="450" type="curve" smooth="yes"/>
      <point x="84" y="468"/>
      <point x="106" y="486"/>
      <point x="124" y="486" type="curve" smooth="yes"/>
      <point x="145" y="486"/>
      <point x="160" y="465"/>
      <point x="160" y="447" type="curve" smooth="yes"/>
      <point x="160" y="431"/>
      <point x="141" y="411"/>
      <point x="120" y="411" type="curve" smooth="yes"/>
      <point x="102" y="411"/>
      <point x="84" y="430"/>
    </contour>
    <contour>
      <point x="154" y="92" type="line" smooth="yes"/>
      <point x="154" y="30"/>
      <point x="162" y="27"/>
      <point x="208" y="24" type="curve"/>
      <point x="210" y="22"/>
      <point x="210" y="16"/>
      <point x="210" y="11" type="curve" smooth="yes"/>
      <point x="210" y="6"/>
      <point x="210" y="1"/>
      <point x="208" y="-1" type="curve"/>
      <point x="182" y="0"/>
      <point x="154" y="1"/>
      <point x="124" y="1" type="curve" smooth="yes"/>
      <point x="94" y="1"/>
      <point x="66" y="0"/>
      <point x="40" y="-1" type="curve"/>
      <point x="38" y="1"/>
      <point x="36" y="6"/>
      <point x="36" y="11" type="curve" smooth="yes"/>
      <point x="36" y="16"/>
      <point x="38" y="22"/>
      <point x="40" y="24" type="curve"/>
      <point x="86" y="28"/>
      <point x="94" y="30"/>
      <point x="94" y="92" type="curve" smooth="yes"/>
      <point x="94" y="238" type="line" smooth="yes"/>
      <point x="94" y="281"/>
      <point x="86" y="286"/>
      <point x="46" y="290" type="curve"/>
      <point x="44" y="294"/>
      <point x="42" y="306"/>
      <point x="44" y="310" type="curve"/>
      <point x="95" y="317"/>
      <point x="125" y="324"/>
      <point x="146" y="332" type="curve"/>
      <point x="152" y="332"/>
      <point x="156" y="330"/>
      <point x="156" y="327" type="curve" smooth="yes"/>
      <point x="156" y="327"/>
      <point x="154" y="279"/>
      <point x="154" y="241" type="curve" smooth="yes"/>
    </contour>
  </outline>
</glyph>
<glyph name="j" format="2">
  <advance width="202"/>
  <unicode hex="006A"/>
  <outline>
    <contour>
      <point x="86" y="450" type="curve" smooth="yes"/>
      <point x="86" y="468"/>
      <point x="107" y="486"/>
      <point x="125" y="486" type="curve" smooth="yes"/>
      <point x="145" y="486"/>
      <point x="161" y="465"/>
      <point x="161" y="447" type="curve" smooth="yes"/>
      <point x="161" y="431"/>
      <point x="143" y="411"/>
      <point x="122" y="411" type="curve" smooth="yes"/>
      <point x="104" y="411"/>
      <point x="86" y="430"/>
    </contour>
    <contour>
      <point x="97" y="238" type="line" smooth="yes"/>
      <point x="97" y="281"/>
      <point x="88" y="286"/>
      <point x="48" y="290" type="curve"/>
      <point x="46" y="294"/>
      <point x="44" y="307"/>
      <point x="46" y="311" type="curve"/>
      <point x="98" y="318"/>
      <point x="128" y="324"/>
      <point x="149" y="332" type="curve"/>
      <point x="155" y="332"/>
      <point x="159" y="330"/>
      <point x="159" y="327" type="curve" smooth="yes"/>
      <point x="159" y="327"/>
      <point x="156" y="280"/>
      <point x="156" y="242" type="curve" smooth="yes"/>
      <point x="156" y="84" type="line" smooth="yes"/>
      <point x="156" y="-58"/>
      <point x="135" y="-113"/>
      <point x="100" y="-141" type="curve" smooth="yes"/>
      <point x="72" y="-164"/>
      <point x="33" y="-166"/>
      <point x="17" y="-166" type="curve" smooth="yes"/>
      <point x="3" y="-166"/>
      <point x="-24" y="-156"/>
      <point x="-24" y="-134" type="curve" smooth="yes"/>
      <point x="-24" y="-120"/>
      <point x="-8" y="-106"/>
      <point x="-0" y="-106" type="curve" smooth="yes"/>
      <point x="16" y="-106"/>
      <point x="25" y="-117"/>
      <point x="33" y="-125" type="curve" smooth="yes"/>
      <point x="38" y="-130"/>
      <point x="48" y="-133"/>
      <point x="56" y="-133" type="curve" smooth="yes"/>
      <point x="94" y="-133"/>
      <point x="97" y="-41"/>
      <point x="97" y="58" type="curve" smooth="yes"/>
    </contour>
  </outline>
</glyph>
<glyph name="k" format="2">
  <advance width="460"/>
  <unicode hex="006B"/>
  <outline>
    <contour>
      <point x="99" y="92" type="curve" smooth="yes"/>
      <point x="99" y="420" type="line" smooth="yes"/>
      <point x="99" y="480"/>
      <point x="90" y="482"/>
      <point x="56" y="482" type="curve" smooth="yes"/>
      <point x="51" y="482" type="line"/>
      <point x="48" y="485"/>
      <point x="46" y="492"/>
      <point x="46" y="498" type="curve" smooth="yes"/>
      <point x="46" y="500"/>
      <point x="46" y="502"/>
      <point x="46" y="504" type="curve"/>
      <point x="76" y="504"/>
      <point x="132" y="516"/>
      <point x="151" y="524" type="curve"/>
      <point x="158" y="524"/>
      <point x="161" y="522"/>
      <point x="161" y="517" type="curve" smooth="yes"/>
      <point x="161" y="517"/>
      <point x="158" y="487"/>
      <point x="158" y="438" type="curve" smooth="yes"/>
      <point x="158" y="176" type="line"/>
      <point x="172" y="178"/>
      <point x="193" y="187"/>
      <point x="209" y="200" type="curve" smooth="yes"/>
      <point x="229" y="214"/>
      <point x="252" y="239"/>
      <point x="269" y="261" type="curve" smooth="yes"/>
      <point x="273" y="265"/>
      <point x="279" y="274"/>
      <point x="279" y="282" type="curve" smooth="yes"/>
      <point x="279" y="290"/>
      <point x="273" y="300"/>
      <point x="252" y="300" type="curve"/>
      <point x="250" y="302"/>
      <point x="249" y="307"/>
      <point x="249" y="312" type="curve" smooth="yes"/>
      <point x="249" y="317"/>
      <point x="250" y="322"/>
      <point x="252" y="324" type="curve"/>
      <point x="269" y="324"/>
      <point x="297" y="323"/>
      <point x="325" y="323" type="curve" smooth="yes"/>
      <point x="352" y="323"/>
      <point x="373" y="324"/>
      <point x="390" y="324" type="curve"/>
      <point x="392" y="322"/>
      <point x="394" y="317"/>
      <point x="394" y="312" type="curve" smooth="yes"/>
      <point x="394" y="307"/>
      <point x="392" y="302"/>
      <point x="390" y="300" type="curve"/>
      <point x="360" y="300"/>
      <point x="334" y="290"/>
      <point x="312" y="266" type="curve" smooth="yes"/>
      <point x="246" y="198" type="line" smooth="yes"/>
      <point x="243" y="195"/>
      <point x="243" y="194"/>
      <point x="243" y="191" type="curve" smooth="yes"/>
      <point x="243" y="187"/>
      <point x="245" y="183"/>
      <point x="248" y="180" type="curve" smooth="yes"/>
      <point x="347" y="56" type="line" smooth="yes"/>
      <point x="367" y="30"/>
      <point x="386" y="27"/>
      <point x="412" y="24" type="curve"/>
      <point x="414" y="22"/>
      <point x="415" y="17"/>
      <point x="415" y="12" type="curve" smooth="yes"/>
      <point x="415" y="7"/>
      <point x="414" y="2"/>
      <point x="412" y="-0" type="curve"/>
      <point x="397" y="0"/>
      <point x="373" y="1"/>
      <point x="350" y="1" type="curve" smooth="yes"/>
      <point x="335" y="1"/>
      <point x="319" y="0"/>
      <point x="304" y="-0" type="curve" smooth="yes"/>
      <point x="302" y="0"/>
      <point x="300" y="1"/>
      <point x="300" y="3" type="curve" smooth="yes"/>
      <point x="300" y="11"/>
      <point x="291" y="26"/>
      <point x="269" y="56" type="curve" smooth="yes"/>
      <point x="214" y="129" type="line" smooth="yes"/>
      <point x="205" y="141"/>
      <point x="198" y="148"/>
      <point x="190" y="153" type="curve"/>
      <point x="182" y="156"/>
      <point x="172" y="158"/>
      <point x="158" y="158" type="curve"/>
      <point x="158" y="92" type="line" smooth="yes"/>
      <point x="158" y="30"/>
      <point x="166" y="27"/>
      <point x="197" y="24" type="curve"/>
      <point x="199" y="22"/>
      <point x="201" y="17"/>
      <point x="201" y="12" type="curve" smooth="yes"/>
      <point x="201" y="7"/>
      <point x="199" y="2"/>
      <point x="197" y="-0" type="curve"/>
      <point x="180" y="1"/>
      <point x="155" y="1"/>
      <point x="129" y="1" type="curve" smooth="yes"/>
      <point x="99" y="1"/>
      <point x="73" y="1"/>
      <point x="48" y="-0" type="curve"/>
      <point x="46" y="2"/>
      <point x="45" y="7"/>
      <point x="45" y="12" type="curve" smooth="yes"/>
      <point x="45" y="17"/>
      <point x="46" y="22"/>
      <point x="48" y="24" type="curve"/>
      <point x="90" y="27"/>
      <point x="99" y="30"/>
    </contour>
  </outline>
</glyph>
<glyph name="l" format="2">
  <advance width="232"/>
  <unicode hex="006C"/>
  <outline>
    <contour>
      <point x="104" y="92" type="curve" smooth="yes"/>
      <point x="104" y="420" type="line" smooth="yes"/>
      <point x="104" y="476"/>
      <point x="100" y="479"/>
      <point x="56" y="482" type="curve"/>
      <point x="52" y="485"/>
      <point x="50" y="492"/>
      <point x="50" y="498" type="curve" smooth="yes"/>
      <point x="50" y="500"/>
      <point x="50" y="502"/>
      <point x="51" y="504" type="curve"/>
      <point x="81" y="506"/>
      <point x="136" y="516"/>
      <point x="156" y="524" type="curve"/>
      <point x="162" y="524"/>
      <point x="165" y="522"/>
      <point x="165" y="517" type="curve" smooth="yes"/>
      <point x="165" y="517"/>
      <point x="162" y="487"/>
      <point x="162" y="438" type="curve" smooth="yes"/>
      <point x="162" y="92" type="line" smooth="yes"/>
      <point x="162" y="30"/>
      <point x="171" y="26"/>
      <point x="216" y="24" type="curve"/>
      <point x="219" y="22"/>
      <point x="220" y="17"/>
      <point x="220" y="12" type="curve" smooth="yes"/>
      <point x="220" y="7"/>
      <point x="219" y="2"/>
      <point x="216" y="-0" type="curve"/>
      <point x="192" y="1"/>
      <point x="164" y="1"/>
      <point x="134" y="1" type="curve" smooth="yes"/>
      <point x="104" y="1"/>
      <point x="76" y="1"/>
      <point x="50" y="-0" type="curve"/>
      <point x="47" y="2"/>
      <point x="46" y="7"/>
      <point x="46" y="12" type="curve" smooth="yes"/>
      <point x="46" y="17"/>
      <point x="47" y="22"/>
      <point x="50" y="24" type="curve"/>
      <point x="95" y="26"/>
      <point x="104" y="30"/>
    </contour>
  </outline>
</glyph>
<glyph name="m" format="2">
  <advance width="693"/>
  <unicode hex="006D"/>
  <outline>
    <contour>
      <point x="174" y="268" type="curve" smooth="yes"/>
      <point x="174" y="259"/>
      <point x="179" y="264"/>
      <point x="183" y="268" type="curve" smooth="yes"/>
      <point x="214" y="302"/>
      <point x="253" y="329"/>
      <point x="297" y="329" type="curve" smooth="yes"/>
      <point x="336" y="329"/>
      <point x="364" y="305"/>
      <point x="372" y="274" type="curve" smooth="yes"/>
      <point x="374" y="268"/>
      <point x="378" y="272"/>
      <point x="380" y="274" type="curve" smooth="yes"/>
      <point x="419" y="315"/>
      <point x="465" y="329"/>
      <point x="504" y="329" type="curve" smooth="yes"/>
      <point x="570" y="329"/>
      <point x="581" y="277"/>
      <point x="581" y="210" type="curve" smooth="yes"/>
      <point x="581" y="92" type="line" smooth="yes"/>
      <point x="581" y="30"/>
      <point x="588" y="23"/>
      <point x="629" y="23" type="curve"/>
      <point x="631" y="21"/>
      <point x="631" y="15"/>
      <point x="631" y="10" type="curve" smooth="yes"/>
      <point x="631" y="5"/>
      <point x="631" y="0"/>
      <point x="629" y="-2" type="curve"/>
      <point x="608" y="-2"/>
      <point x="582" y="0"/>
      <point x="552" y="0" type="curve" smooth="yes"/>
      <point x="522" y="0"/>
      <point x="494" y="-2"/>
      <point x="475" y="-2" type="curve"/>
      <point x="473" y="0"/>
      <point x="472" y="5"/>
      <point x="472" y="10" type="curve" smooth="yes"/>
      <point x="472" y="15"/>
      <point x="473" y="21"/>
      <point x="475" y="23" type="curve"/>
      <point x="514" y="23"/>
      <point x="522" y="30"/>
      <point x="522" y="92" type="curve" smooth="yes"/>
      <point x="522" y="224" type="line" smooth="yes"/>
      <point x="522" y="274"/>
      <point x="505" y="289"/>
      <point x="477" y="289" type="curve" smooth="yes"/>
      <point x="448" y="289"/>
      <point x="414" y="281"/>
      <point x="378" y="241" type="curve"/>
      <point x="378" y="232"/>
      <point x="378" y="221"/>
      <point x="378" y="211" type="curve" smooth="yes"/>
      <point x="378" y="92" type="line" smooth="yes"/>
      <point x="378" y="30"/>
      <point x="385" y="23"/>
      <point x="423" y="23" type="curve"/>
      <point x="425" y="21"/>
      <point x="425" y="15"/>
      <point x="425" y="10" type="curve" smooth="yes"/>
      <point x="425" y="5"/>
      <point x="425" y="0"/>
      <point x="423" y="-2" type="curve"/>
      <point x="404" y="-2"/>
      <point x="379" y="0"/>
      <point x="349" y="0" type="curve" smooth="yes"/>
      <point x="319" y="0"/>
      <point x="292" y="-1"/>
      <point x="273" y="-2" type="curve"/>
      <point x="271" y="0"/>
      <point x="270" y="5"/>
      <point x="270" y="10" type="curve" smooth="yes"/>
      <point x="270" y="15"/>
      <point x="271" y="21"/>
      <point x="273" y="23" type="curve"/>
      <point x="313" y="26"/>
      <point x="319" y="30"/>
      <point x="319" y="92" type="curve" smooth="yes"/>
      <point x="319" y="222" type="line" smooth="yes"/>
      <point x="319" y="272"/>
      <point x="298" y="289"/>
      <point x="270" y="289" type="curve" smooth="yes"/>
      <point x="247" y="289"/>
      <point x="218" y="274"/>
      <point x="189" y="246" type="curve" smooth="yes"/>
      <point x="183" y="239"/>
      <point x="176" y="230"/>
      <point x="176" y="214" type="curve" smooth="yes"/>
      <point x="176" y="92" type="line" smooth="yes"/>
      <point x="176" y="30"/>
      <point x="184" y="27"/>
      <point x="222" y="23" type="curve"/>
      <point x="224" y="21"/>
      <point x="225" y="15"/>
      <point x="225" y="10" type="curve" smooth="yes"/>
      <point x="225" y="5"/>
      <point x="224" y="0"/>
      <point x="222" y="-2" type="curve"/>
      <point x="200" y="-1"/>
      <point x="177" y="0"/>
      <point x="147" y="0" type="curve" smooth="yes"/>
      <point x="117" y="0"/>
      <point x="88" y="-1"/>
      <point x="66" y="-2" type="curve"/>
      <point x="64" y="0"/>
      <point x="62" y="5"/>
      <point x="62" y="10" type="curve" smooth="yes"/>
      <point x="62" y="15"/>
      <point x="64" y="21"/>
      <point x="66" y="23" type="curve"/>
      <point x="107" y="26"/>
      <point x="117" y="30"/>
      <point x="117" y="92" type="curve" smooth="yes"/>
      <point x="117" y="238" type="line" smooth="yes"/>
      <point x="117" y="282"/>
      <point x="108" y="285"/>
      <point x="68" y="289" type="curve"/>
      <point x="66" y="293"/>
      <point x="64" y="306"/>
      <point x="66" y="310" type="curve"/>
      <point x="118" y="317"/>
      <point x="138" y="324"/>
      <point x="159" y="332" type="curve"/>
      <point x="165" y="332"/>
      <point x="166" y="329"/>
      <point x="168" y="326" type="curve" smooth="yes"/>
      <point x="171" y="318"/>
      <point x="172" y="290"/>
    </contour>
  </outline>
</glyph>
<glyph name="n" format="2">
  <advance width="495"/>
  <unicode hex="006E"/>
  <outline>
    <contour>
      <point x="179" y="268" type="curve" smooth="yes"/>
      <point x="223" y="319"/>
      <point x="265" y="329"/>
      <point x="302" y="329" type="curve" smooth="yes"/>
      <point x="328" y="329"/>
      <point x="351" y="320"/>
      <point x="364" y="304" type="curve" smooth="yes"/>
      <point x="381" y="281"/>
      <point x="384" y="244"/>
      <point x="384" y="203" type="curve" smooth="yes"/>
      <point x="384" y="92" type="line" smooth="yes"/>
      <point x="384" y="30"/>
      <point x="393" y="27"/>
      <point x="435" y="23" type="curve"/>
      <point x="437" y="21"/>
      <point x="438" y="15"/>
      <point x="438" y="10" type="curve" smooth="yes"/>
      <point x="438" y="5"/>
      <point x="437" y="0"/>
      <point x="435" y="-2" type="curve"/>
      <point x="413" y="-1"/>
      <point x="385" y="0"/>
      <point x="355" y="0" type="curve" smooth="yes"/>
      <point x="325" y="0"/>
      <point x="301" y="-1"/>
      <point x="279" y="-2" type="curve"/>
      <point x="277" y="0"/>
      <point x="276" y="5"/>
      <point x="276" y="10" type="curve" smooth="yes"/>
      <point x="276" y="15"/>
      <point x="277" y="21"/>
      <point x="279" y="23" type="curve"/>
      <point x="318" y="27"/>
      <point x="325" y="30"/>
      <point x="325" y="92" type="curve" smooth="yes"/>
      <point x="325" y="206" type="line" smooth="yes"/>
      <point x="325" y="228"/>
      <point x="324" y="248"/>
      <point x="316" y="263" type="curve" smooth="yes"/>
      <point x="307" y="280"/>
      <point x="291" y="289"/>
      <point x="276" y="289" type="curve" smooth="yes"/>
      <point x="247" y="289"/>
      <point x="213" y="274"/>
      <point x="185" y="246" type="curve" smooth="yes"/>
      <point x="179" y="239"/>
      <point x="172" y="230"/>
      <point x="172" y="214" type="curve" smooth="yes"/>
      <point x="172" y="92" type="line" smooth="yes"/>
      <point x="172" y="30"/>
      <point x="180" y="27"/>
      <point x="218" y="23" type="curve"/>
      <point x="220" y="21"/>
      <point x="221" y="15"/>
      <point x="221" y="10" type="curve" smooth="yes"/>
      <point x="221" y="5"/>
      <point x="220" y="0"/>
      <point x="218" y="-2" type="curve"/>
      <point x="196" y="-1"/>
      <point x="173" y="0"/>
      <point x="143" y="0" type="curve" smooth="yes"/>
      <point x="113" y="0"/>
      <point x="82" y="-1"/>
      <point x="60" y="-2" type="curve"/>
      <point x="58" y="0"/>
      <point x="57" y="5"/>
      <point x="57" y="10" type="curve" smooth="yes"/>
      <point x="57" y="15"/>
      <point x="58" y="21"/>
      <point x="60" y="23" type="curve"/>
      <point x="105" y="27"/>
      <point x="113" y="30"/>
      <point x="113" y="92" type="curve" smooth="yes"/>
      <point x="113" y="238" type="line" smooth="yes"/>
      <point x="113" y="282"/>
      <point x="104" y="285"/>
      <point x="64" y="289" type="curve"/>
      <point x="62" y="293"/>
      <point x="61" y="306"/>
      <point x="63" y="310" type="curve"/>
      <point x="115" y="317"/>
      <point x="134" y="324"/>
      <point x="155" y="332" type="curve"/>
      <point x="161" y="332"/>
      <point x="162" y="329"/>
      <point x="164" y="326" type="curve" smooth="yes"/>
      <point x="168" y="318"/>
      <point x="169" y="288"/>
      <point x="170" y="268" type="curve" smooth="yes"/>
      <point x="170" y="260"/>
      <point x="175" y="263"/>
    </contour>
  </outline>
</glyph>
<glyph name="o" format="2">
  <advance width="429"/>
  <unicode hex="006F"/>
  <outline>
    <contour>
      <point x="373" y="168" type="curve" smooth="yes"/>
      <point x="373" y="76"/>
      <point x="314" y="0"/>
      <point x="214" y="0" type="curve" smooth="yes"/>
      <point x="108" y="0"/>
      <point x="56" y="85"/>
      <point x="56" y="161" type="curve" smooth="yes"/>
      <point x="56" y="259"/>
      <point x="117" y="337"/>
      <point x="215" y="337" type="curve" smooth="yes"/>
      <point x="330" y="337"/>
      <point x="373" y="246"/>
    </contour>
    <contour>
      <point x="204" y="311" type="curve" smooth="yes"/>
      <point x="136" y="311"/>
      <point x="121" y="244"/>
      <point x="121" y="179" type="curve" smooth="yes"/>
      <point x="121" y="121"/>
      <point x="146" y="26"/>
      <point x="224" y="26" type="curve" smooth="yes"/>
      <point x="259" y="26"/>
      <point x="308" y="50"/>
      <point x="308" y="144" type="curve" smooth="yes"/>
      <point x="308" y="252"/>
      <point x="268" y="311"/>
    </contour>
  </outline>
</glyph>
<glyph name="p" format="2">
  <advance width="435"/>
  <unicode hex="0070"/>
  <outline>
    <contour>
      <point x="167" y="255" type="curve" smooth="yes"/>
      <point x="159" y="244"/>
      <point x="155" y="238"/>
      <point x="155" y="222" type="curve" smooth="yes"/>
      <point x="155" y="86" type="line" smooth="yes"/>
      <point x="155" y="59"/>
      <point x="158" y="55"/>
      <point x="173" y="41" type="curve" smooth="yes"/>
      <point x="187" y="29"/>
      <point x="212" y="25"/>
      <point x="226" y="25" type="curve" smooth="yes"/>
      <point x="310" y="25"/>
      <point x="332" y="101"/>
      <point x="332" y="163" type="curve" smooth="yes"/>
      <point x="332" y="248"/>
      <point x="291" y="302"/>
      <point x="243" y="302" type="curve" smooth="yes"/>
      <point x="221" y="302"/>
      <point x="187" y="279"/>
    </contour>
    <contour>
      <point x="396" y="182" type="curve" smooth="yes"/>
      <point x="396" y="78"/>
      <point x="332" y="0"/>
      <point x="231" y="-0" type="curve" smooth="yes"/>
      <point x="208" y="0"/>
      <point x="185" y="3"/>
      <point x="166" y="11" type="curve" smooth="yes"/>
      <point x="158" y="14"/>
      <point x="155" y="16"/>
      <point x="155" y="6" type="curve" smooth="yes"/>
      <point x="155" y="-76" type="line" smooth="yes"/>
      <point x="155" y="-138"/>
      <point x="164" y="-141"/>
      <point x="217" y="-144" type="curve"/>
      <point x="219" y="-146"/>
      <point x="220" y="-151"/>
      <point x="220" y="-156" type="curve" smooth="yes"/>
      <point x="220" y="-161"/>
      <point x="219" y="-166"/>
      <point x="217" y="-168" type="curve"/>
      <point x="192" y="-167"/>
      <point x="156" y="-167"/>
      <point x="126" y="-167" type="curve" smooth="yes"/>
      <point x="96" y="-167"/>
      <point x="68" y="-167"/>
      <point x="42" y="-168" type="curve"/>
      <point x="40" y="-166"/>
      <point x="39" y="-161"/>
      <point x="39" y="-156" type="curve" smooth="yes"/>
      <point x="39" y="-151"/>
      <point x="40" y="-146"/>
      <point x="42" y="-144" type="curve"/>
      <point x="88" y="-142"/>
      <point x="96" y="-138"/>
      <point x="96" y="-76" type="curve" smooth="yes"/>
      <point x="96" y="245" type="line" smooth="yes"/>
      <point x="96" y="289"/>
      <point x="87" y="292"/>
      <point x="47" y="296" type="curve"/>
      <point x="45" y="300"/>
      <point x="44" y="313"/>
      <point x="46" y="317" type="curve"/>
      <point x="98" y="324"/>
      <point x="117" y="330"/>
      <point x="138" y="338" type="curve"/>
      <point x="144" y="338"/>
      <point x="145" y="335"/>
      <point x="147" y="332" type="curve" smooth="yes"/>
      <point x="151" y="324"/>
      <point x="152" y="305"/>
      <point x="153" y="283" type="curve" smooth="yes"/>
      <point x="154" y="275"/>
      <point x="157" y="275"/>
      <point x="161" y="280" type="curve" smooth="yes"/>
      <point x="191" y="313"/>
      <point x="230" y="336"/>
      <point x="264" y="336" type="curve" smooth="yes"/>
      <point x="340" y="336"/>
      <point x="396" y="262"/>
    </contour>
  </outline>
</glyph>
<glyph name="q" format="2">
  <advance width="466"/>
  <unicode hex="0071"/>
  <outline>
    <contour>
      <point x="273" y="284" type="curve" smooth="yes"/>
      <point x="257" y="303"/>
      <point x="237" y="312"/>
      <point x="214" y="312" type="curve" smooth="yes"/>
      <point x="154" y="312"/>
      <point x="122" y="256"/>
      <point x="122" y="178" type="curve" smooth="yes"/>
      <point x="122" y="65"/>
      <point x="187" y="34"/>
      <point x="231" y="34" type="curve" smooth="yes"/>
      <point x="243" y="34"/>
      <point x="264" y="34"/>
      <point x="281" y="43" type="curve" smooth="yes"/>
      <point x="291" y="48"/>
      <point x="291" y="52"/>
      <point x="291" y="66" type="curve" smooth="yes"/>
      <point x="291" y="238" type="line" smooth="yes"/>
      <point x="291" y="256"/>
      <point x="288" y="268"/>
    </contour>
    <contour>
      <point x="293" y="-76" type="curve" smooth="yes"/>
      <point x="291" y="8" type="line" smooth="yes"/>
      <point x="291" y="16"/>
      <point x="290" y="19"/>
      <point x="287" y="19" type="curve" smooth="yes"/>
      <point x="284" y="19"/>
      <point x="279" y="17"/>
      <point x="271" y="12" type="curve" smooth="yes"/>
      <point x="258" y="4"/>
      <point x="233" y="0"/>
      <point x="213" y="0" type="curve" smooth="yes"/>
      <point x="105" y="0"/>
      <point x="58" y="93"/>
      <point x="58" y="163" type="curve" smooth="yes"/>
      <point x="58" y="262"/>
      <point x="125" y="337"/>
      <point x="217" y="337" type="curve" smooth="yes"/>
      <point x="249" y="337"/>
      <point x="279" y="331"/>
      <point x="302" y="316" type="curve" smooth="yes"/>
      <point x="305" y="314"/>
      <point x="307" y="312"/>
      <point x="309" y="312" type="curve" smooth="yes"/>
      <point x="313" y="312"/>
      <point x="317" y="316"/>
      <point x="323" y="325" type="curve" smooth="yes"/>
      <point x="329" y="333"/>
      <point x="334" y="340"/>
      <point x="339" y="340" type="curve" smooth="yes"/>
      <point x="347" y="340"/>
      <point x="350" y="331"/>
      <point x="350" y="321" type="curve" smooth="yes"/>
      <point x="350" y="-75" type="line" smooth="yes"/>
      <point x="350" y="-137"/>
      <point x="358" y="-141"/>
      <point x="404" y="-143" type="curve"/>
      <point x="406" y="-145"/>
      <point x="408" y="-151"/>
      <point x="408" y="-156" type="curve" smooth="yes"/>
      <point x="408" y="-161"/>
      <point x="406" y="-166"/>
      <point x="404" y="-168" type="curve"/>
      <point x="379" y="-167"/>
      <point x="351" y="-166"/>
      <point x="321" y="-166" type="curve" smooth="yes"/>
      <point x="291" y="-166"/>
      <point x="263" y="-167"/>
      <point x="237" y="-168" type="curve"/>
      <point x="235" y="-166"/>
      <point x="234" y="-161"/>
      <point x="234" y="-156" type="curve" smooth="yes"/>
      <point x="234" y="-151"/>
      <point x="235" y="-145"/>
      <point x="237" y="-143" type="curve"/>
      <point x="283" y="-141"/>
      <point x="293" y="-138"/>
    </contour>
  </outline>
</glyph>
<glyph name="r" format="2">
  <advance width="328"/>
  <unicode hex="0072"/>
  <outline>
    <contour>
      <point x="154" y="268" type="curve" smooth="yes"/>
      <point x="154" y="264"/>
      <point x="158" y="259"/>
      <point x="162" y="267" type="curve" smooth="yes"/>
      <point x="179" y="296"/>
      <point x="210" y="329"/>
      <point x="245" y="329" type="curve" smooth="yes"/>
      <point x="277" y="329"/>
      <point x="290" y="307"/>
      <point x="290" y="293" type="curve" smooth="yes"/>
      <point x="290" y="274"/>
      <point x="273" y="256"/>
      <point x="255" y="256" type="curve" smooth="yes"/>
      <point x="241" y="256"/>
      <point x="233" y="265"/>
      <point x="228" y="273" type="curve" smooth="yes"/>
      <point x="222" y="281"/>
      <point x="216" y="283"/>
      <point x="209" y="283" type="curve" smooth="yes"/>
      <point x="200" y="283"/>
      <point x="182" y="258"/>
      <point x="174" y="246" type="curve" smooth="yes"/>
      <point x="165" y="232"/>
      <point x="156" y="216"/>
      <point x="156" y="196" type="curve" smooth="yes"/>
      <point x="156" y="92" type="line" smooth="yes"/>
      <point x="156" y="30"/>
      <point x="166" y="23"/>
      <point x="218" y="23" type="curve"/>
      <point x="220" y="21"/>
      <point x="221" y="15"/>
      <point x="221" y="10" type="curve" smooth="yes"/>
      <point x="221" y="5"/>
      <point x="220" y="0"/>
      <point x="218" y="-2" type="curve"/>
      <point x="192" y="-2"/>
      <point x="157" y="0"/>
      <point x="127" y="0" type="curve" smooth="yes"/>
      <point x="97" y="0"/>
      <point x="67" y="-2"/>
      <point x="41" y="-2" type="curve"/>
      <point x="39" y="0"/>
      <point x="38" y="5"/>
      <point x="38" y="10" type="curve" smooth="yes"/>
      <point x="38" y="15"/>
      <point x="39" y="21"/>
      <point x="41" y="23" type="curve"/>
      <point x="87" y="23"/>
      <point x="97" y="30"/>
      <point x="97" y="92" type="curve" smooth="yes"/>
      <point x="97" y="238" type="line" smooth="yes"/>
      <point x="97" y="282"/>
      <point x="88" y="289"/>
      <point x="48" y="289" type="curve"/>
      <point x="46" y="293"/>
      <point x="45" y="306"/>
      <point x="47" y="310" type="curve"/>
      <point x="99" y="317"/>
      <point x="118" y="324"/>
      <point x="139" y="332" type="curve"/>
      <point x="145" y="332"/>
      <point x="146" y="329"/>
      <point x="148" y="326" type="curve" smooth="yes"/>
      <point x="151" y="318"/>
      <point x="154" y="298"/>
    </contour>
  </outline>
</glyph>
<glyph name="s" format="2">
  <advance width="323"/>
  <unicode hex="0073"/>
  <outline>
    <contour>
      <point x="48" y="111" type="curve"/>
      <point x="50" y="113"/>
      <point x="56" y="115"/>
      <point x="61" y="115" type="curve" smooth="yes"/>
      <point x="65" y="115"/>
      <point x="70" y="114"/>
      <point x="72" y="112" type="curve"/>
      <point x="82" y="70"/>
      <point x="91" y="25"/>
      <point x="154" y="25" type="curve" smooth="yes"/>
      <point x="182" y="25"/>
      <point x="218" y="40"/>
      <point x="218" y="77" type="curve" smooth="yes"/>
      <point x="218" y="109"/>
      <point x="203" y="125"/>
      <point x="141" y="151" type="curve" smooth="yes"/>
      <point x="83" y="175"/>
      <point x="59" y="198"/>
      <point x="59" y="253" type="curve" smooth="yes"/>
      <point x="59" y="301"/>
      <point x="108" y="337"/>
      <point x="164" y="337" type="curve" smooth="yes"/>
      <point x="203" y="337"/>
      <point x="240" y="327"/>
      <point x="263" y="323" type="curve"/>
      <point x="263" y="298"/>
      <point x="258" y="270"/>
      <point x="258" y="243" type="curve"/>
      <point x="256" y="240"/>
      <point x="250" y="239"/>
      <point x="245" y="239" type="curve" smooth="yes"/>
      <point x="241" y="239"/>
      <point x="236" y="240"/>
      <point x="234" y="242" type="curve"/>
      <point x="224" y="306"/>
      <point x="180" y="312"/>
      <point x="164" y="312" type="curve" smooth="yes"/>
      <point x="138" y="312"/>
      <point x="112" y="295"/>
      <point x="112" y="264" type="curve" smooth="yes"/>
      <point x="112" y="223"/>
      <point x="142" y="210"/>
      <point x="187" y="194" type="curve" smooth="yes"/>
      <point x="238" y="175"/>
      <point x="275" y="146"/>
      <point x="275" y="95" type="curve" smooth="yes"/>
      <point x="275" y="21"/>
      <point x="198" y="0"/>
      <point x="156" y="0" type="curve" smooth="yes"/>
      <point x="128" y="0"/>
      <point x="107" y="3"/>
      <point x="87" y="8" type="curve" smooth="yes"/>
      <point x="82" y="10"/>
      <point x="77" y="10"/>
      <point x="72" y="10" type="curve" smooth="yes"/>
      <point x="68" y="10"/>
      <point x="62" y="10"/>
      <point x="54" y="8" type="curve"/>
      <point x="54" y="40"/>
      <point x="48" y="74"/>
    </contour>
  </outline>
</glyph>
